<svg width="24" height="24" viewBox="0 0 24 24" fill="none" xmlns="http://www.w3.org/2000/svg">
<g clip-path="url(#clip0_75_2632)">
<g clip-path="url(#clip1_75_2632)">
<path d="M8.02247 21.2416C7.62486 21.1091 7.22725 20.8442 6.96218 20.3143C6.69711 20.0494 6.43204 19.6519 6.03443 19.1221C5.50428 18.3272 4.97414 17.2675 4.57653 16.2077C4.17892 15.0154 4.04639 13.8232 4.04639 12.6309C4.04639 11.3062 4.31146 10.2465 4.8416 9.31915C5.23921 8.52432 5.90189 7.99443 6.56457 7.46454C7.22725 7.06713 8.02247 6.80219 8.81768 6.80219C9.08276 6.80219 9.34783 6.80219 9.74544 6.93466C10.0105 6.93466 10.2756 7.06713 10.6732 7.1996C11.0708 7.33207 11.3359 7.46454 11.4684 7.46454C11.7335 7.59702 11.9985 7.59702 12.1311 7.59702C12.2636 7.59702 12.3962 7.59702 12.6612 7.46454C12.7938 7.46454 13.0588 7.33207 13.3239 7.1996C13.589 7.06713 13.8541 6.93466 14.1191 6.93466C14.3842 6.93466 14.6493 6.80219 14.9143 6.80219C15.1794 6.80219 15.577 6.66971 15.8421 6.80219C16.3722 6.80219 16.9024 6.93466 17.4325 7.1996C18.2277 7.46454 18.8904 8.1269 19.4206 8.78926C19.288 8.78926 19.023 8.92173 18.8904 9.18668C18.4928 9.58409 18.0952 9.98151 17.8301 10.3789C17.5651 11.0413 17.3 11.7036 17.3 12.4985C17.3 13.4258 17.5651 14.2206 17.9627 14.883C18.2277 15.4128 18.7579 15.8103 19.1555 16.0752C19.5531 16.2077 19.8182 16.3402 19.9507 16.4726C19.9507 16.7376 19.8182 17.135 19.6856 17.2675C19.4206 18.0623 19.023 18.5922 18.6254 19.2545C18.2277 19.7844 17.9627 20.1818 17.8301 20.3143C17.4325 20.7117 17.1675 21.1091 16.7698 21.2416C16.5048 21.5065 16.1072 21.639 15.577 21.639C15.312 21.639 15.0469 21.639 14.7818 21.5065C14.6493 21.5065 14.3842 21.3741 14.1191 21.2416C13.7215 21.1091 13.589 20.9767 13.3239 20.9767C13.0588 20.8442 12.6612 20.8442 12.3962 20.8442C12.1311 20.8442 11.7335 20.8442 11.4684 20.9767C11.2033 20.9767 10.9383 21.1091 10.6732 21.2416C10.2756 21.3741 10.143 21.5065 10.0105 21.5065C9.74544 21.639 9.48036 21.639 9.21529 21.639C8.81768 21.639 8.42008 21.5065 8.02247 21.2416ZM13.589 6.13983C13.0588 6.40477 12.5287 6.53724 11.9985 6.53724C11.866 6.00736 11.9985 5.47747 12.2636 4.81511C12.5287 4.28522 12.6612 3.88781 13.0588 3.49039C13.4564 3.09298 13.8541 2.69556 14.3842 2.43062C14.9143 2.16568 15.4445 2.0332 15.9746 2.0332C15.9746 2.56309 15.8421 3.09298 15.7096 3.75534C15.577 4.28522 15.1794 4.68264 14.9143 5.08005C14.5167 5.60994 14.1191 5.87488 13.589 6.13983Z" fill="white"/>
</g>
</g>
<defs>
<clipPath id="clip0_75_2632">
<rect width="16" height="19.6721" fill="white" transform="translate(4 2)"/>
</clipPath>
<clipPath id="clip1_75_2632">
<rect width="16.0369" height="19.7383" fill="white" transform="translate(4.04639 2.0332)"/>
</clipPath>
</defs>
</svg>
