<svg width="375" height="812" viewBox="0 0 375 812" fill="none" xmlns="http://www.w3.org/2000/svg">
<rect width="375" height="812" fill="#F3FCFC"/>
<path d="M221.553 176.096H154.508C139.921 176.096 128.096 187.921 128.096 202.508V269.553C128.096 284.14 139.921 295.965 154.508 295.965H221.553C236.14 295.965 247.965 284.14 247.965 269.553V202.508C247.965 187.921 236.14 176.096 221.553 176.096Z" fill="#FF2922"/>
<g filter="url(#filter0_d_290_2495)">
<path d="M188.666 197.902C166.359 197.902 148.276 214.752 148.276 235.533C148.276 247.375 154.149 257.941 163.328 264.838V279.187L177.081 271.591C180.752 272.614 184.641 273.167 188.666 273.167C210.974 273.167 229.058 256.317 229.058 235.533C229.058 214.749 210.974 197.902 188.666 197.902Z" fill="white"/>
</g>
<g filter="url(#filter1_d_290_2495)">
<path d="M204.586 231.505H204.585C204.59 231.396 204.594 231.286 204.594 231.176C204.594 226.749 200.86 222.911 196.253 222.911C192.886 222.911 189.986 225.079 188.668 227.841H188.666C187.35 225.078 184.45 222.911 181.081 222.911C176.475 222.911 172.741 226.749 172.741 231.176C172.741 231.286 172.744 231.396 172.749 231.505H172.748C172.748 231.505 172.278 236.765 178.131 242.507C180.792 245.174 183.768 247.708 188.667 251.69C193.566 247.708 196.542 245.175 199.204 242.507C205.057 236.765 204.586 231.505 204.586 231.505Z" fill="#FF2922"/>
</g>
<path d="M144.92 330.8L140.64 344.6C140.44 345.32 139.04 348.16 137.92 348.04C136.84 348 136 347.68 135.4 346.16C133.4 341.68 132.64 337.48 130.76 332.36C130.76 333.64 130.72 335.52 130.68 336.84C130.56 340.04 130.6 343.32 130.28 346.56C130.12 347.44 130.04 348.4 129 348.56C127.48 348.76 125.96 348.36 125.96 346.2C125.64 342.4 126.16 338.6 126.48 334.88C126.88 330.84 127.04 326.68 127.96 322.68C128.16 322 128.8 321.12 129.04 321.24C130.12 320.96 132.76 321.04 133.2 322.2C135 328 136.76 332.84 137.92 338.16C138.32 337 138.36 335.8 138.76 335.12C140.48 329.88 141.88 326.44 144.4 321.52C145.76 319.16 149.48 320.52 149.56 322.08C150.44 330.08 149.68 337.92 149.68 345.88C149.68 349.52 144.2 348.2 144.48 344.8C144.24 339.84 145.08 335.6 144.92 330.8ZM158.757 321.64L166.877 320.92C170.077 320.6 169.477 323.12 169.437 323.04C169.437 322.96 169.437 325.68 166.917 326C163.597 326.48 163.877 326.12 160.997 326.68C160.197 326.8 159.957 327.6 159.917 328.28C159.757 330.04 159.797 330.24 159.677 331.48C159.557 332.24 159.517 332.56 160.437 332.52C164.157 332.08 164.517 332.24 168.277 331.8C169.517 331.68 169.757 333.4 169.757 333.76C169.797 334.2 170.117 336.16 167.877 336.6C164.157 337.28 164.037 336.92 160.557 337.6C159.677 337.76 159.357 338.16 159.277 339.04C159.037 340.92 159.157 339.64 158.997 341.8C158.997 342.76 159.397 342.68 160.197 342.64C162.277 342.56 164.317 342.48 167.797 342.08C170.397 341.8 169.637 345.52 169.557 345.8C168.997 346.88 167.557 346.84 166.317 347.08C162.357 347.76 160.837 347.72 157.197 347.84C154.797 347.88 153.317 347.04 153.357 344.88C153.517 338.52 153.877 331 154.397 324.76C154.677 322.28 156.997 321.96 158.757 321.64ZM183.719 330.76L182.879 344.64C182.759 345.92 182.599 347.64 180.559 347.76C178.479 347.68 177.759 347.92 177.479 346.16C177.479 343.76 177.599 342.28 177.759 340C177.919 337.04 178.319 330.6 178.679 326.2C175.479 326.36 171.439 326.28 170.919 324.64C170.199 322.68 171.119 322.2 174.119 321.72C180.599 320.96 180.599 320.88 186.519 320.56C193.559 320.12 192.879 324.44 188.599 325.04L183.959 325.72C183.919 327.32 183.839 328.64 183.719 330.76ZM203.969 323.84L208.809 346.56C208.849 347.92 207.689 347.92 206.049 348.2C203.649 348.64 202.929 342.44 202.209 340.32C202.089 339.76 201.729 339.56 201.169 339.6C199.329 339.84 198.009 339.96 196.209 340.32C195.129 340.6 195.009 340.56 194.689 341.68C194.129 343.68 193.689 344.76 193.289 346.84C193.009 347.96 192.089 348.52 191.209 348.36C190.289 348.24 188.609 348.28 188.689 347.12C188.849 344.2 190.289 338.88 191.529 334.84C193.129 329.64 193.929 326.56 196.209 321.72C196.929 320.24 200.249 320.32 200.569 320.4C202.449 320.64 203.369 321.24 203.969 323.84ZM200.329 334.68C201.089 334.48 201.289 334.6 201.169 333.72C200.769 331.36 200.369 329.24 199.889 326.96C199.769 326.52 199.569 326.16 199.489 326.16C199.329 326.16 199.169 326.68 199.009 326.92C197.729 329.88 197.409 331.76 196.329 335.16C198.449 334.96 198.889 334.92 200.329 334.68ZM210.957 342.16C211.477 335.04 211.677 330.08 212.837 321.96C213.597 319.92 216.237 319.44 217.877 320.96C218.357 321.44 218.477 322.6 218.437 323.2C217.717 329.24 217.597 333.6 216.957 341.24C216.837 342.8 217.277 342.76 218.437 342.72C222.117 342.56 220.677 342.6 224.317 342.32C228.597 342 229.677 346.24 225.397 347.12C222.717 347.84 214.317 348.48 212.437 347.28C210.757 345.92 210.837 344.04 210.957 342.16ZM236.91 330.12C240.35 326.88 242.03 325.12 245.39 321.84C246.79 320.6 248.19 321.04 248.67 321.52C249.27 322.08 249.51 323.6 248.31 324.72C245.31 328.24 243.63 329.68 240.39 333.04C240.07 333.4 239.79 333.72 240.31 334.28C243.83 337.84 246.31 340.88 249.59 344.24C251.11 345.84 248.75 348 247.11 347.08C242.95 345.08 239.51 339.92 236.83 336.08C236.83 339.64 236.75 342.76 236.19 346.44C236.11 347.16 234.87 347.96 234.11 347.92C233.15 347.88 231.39 347.96 231.39 345.8C231.39 337.88 231.71 330.08 232.79 321C233.03 319.76 234.51 319.64 235.39 319.8C236.63 319.96 237.79 319.84 237.75 321.48C237.47 324.64 237.27 327 236.91 330.12Z" fill="#FF2922"/>
<defs>
<filter id="filter0_d_290_2495" x="144.386" y="194.012" width="92.4516" height="92.9543" filterUnits="userSpaceOnUse" color-interpolation-filters="sRGB">
<feFlood flood-opacity="0" result="BackgroundImageFix"/>
<feColorMatrix in="SourceAlpha" type="matrix" values="0 0 0 0 0 0 0 0 0 0 0 0 0 0 0 0 0 0 127 0" result="hardAlpha"/>
<feOffset dx="1.94489" dy="1.94489"/>
<feGaussianBlur stdDeviation="2.91734"/>
<feColorMatrix type="matrix" values="0 0 0 0 0 0 0 0 0 0 0 0 0 0 0 0 0 0 0.3 0"/>
<feBlend mode="normal" in2="BackgroundImageFix" result="effect1_dropShadow_290_2495"/>
<feBlend mode="normal" in="SourceGraphic" in2="effect1_dropShadow_290_2495" result="shape"/>
</filter>
<filter id="filter1_d_290_2495" x="171.767" y="221.938" width="35.7457" height="32.6693" filterUnits="userSpaceOnUse" color-interpolation-filters="sRGB">
<feFlood flood-opacity="0" result="BackgroundImageFix"/>
<feColorMatrix in="SourceAlpha" type="matrix" values="0 0 0 0 0 0 0 0 0 0 0 0 0 0 0 0 0 0 127 0" result="hardAlpha"/>
<feOffset dx="0.972447" dy="0.972447"/>
<feGaussianBlur stdDeviation="0.972447"/>
<feColorMatrix type="matrix" values="0 0 0 0 0 0 0 0 0 0 0 0 0 0 0 0 0 0 0.2 0"/>
<feBlend mode="normal" in2="BackgroundImageFix" result="effect1_dropShadow_290_2495"/>
<feBlend mode="normal" in="SourceGraphic" in2="effect1_dropShadow_290_2495" result="shape"/>
</filter>
</defs>
</svg>
