<svg width="127" height="31" viewBox="0 0 127 31" fill="none" xmlns="http://www.w3.org/2000/svg">
<path d="M19.92 11.8L15.64 25.6C15.44 26.32 14.04 29.16 12.92 29.04C11.84 29 11 28.68 10.4 27.16C8.4 22.68 7.64 18.48 5.76 13.36C5.76 14.64 5.72 16.52 5.68 17.84C5.56 21.04 5.6 24.32 5.28 27.56C5.12 28.44 5.04 29.4 4 29.56C2.48 29.76 0.96 29.36 0.96 27.2C0.64 23.4 1.16 19.6 1.48 15.88C1.88 11.84 2.04 7.68 2.96 3.68C3.16 3 3.8 2.12 4.04 2.24C5.12 1.96 7.76 2.04 8.2 3.2C10 9 11.76 13.84 12.92 19.16C13.32 18 13.36 16.8 13.76 16.12C15.48 10.88 16.88 7.44 19.4 2.52C20.76 0.16 24.48 1.52 24.56 3.08C25.44 11.08 24.68 18.92 24.68 26.88C24.68 30.52 19.2 29.2 19.48 25.8C19.24 20.84 20.08 16.6 19.92 11.8ZM33.7566 2.64L41.8766 1.92C45.0766 1.6 44.4766 4.12 44.4366 4.04C44.4366 3.96 44.4366 6.68 41.9166 7C38.5966 7.48 38.8766 7.12 35.9966 7.68C35.1966 7.8 34.9566 8.6 34.9166 9.28C34.7566 11.04 34.7966 11.24 34.6766 12.48C34.5566 13.24 34.5166 13.56 35.4366 13.52C39.1566 13.08 39.5166 13.24 43.2766 12.8C44.5166 12.68 44.7566 14.4 44.7566 14.76C44.7966 15.2 45.1166 17.16 42.8766 17.6C39.1566 18.28 39.0366 17.92 35.5566 18.6C34.6766 18.76 34.3566 19.16 34.2766 20.04C34.0366 21.92 34.1566 20.64 33.9966 22.8C33.9966 23.76 34.3966 23.68 35.1966 23.64C37.2766 23.56 39.3166 23.48 42.7966 23.08C45.3966 22.8 44.6366 26.52 44.5566 26.8C43.9966 27.88 42.5566 27.84 41.3166 28.08C37.3566 28.76 35.8366 28.72 32.1966 28.84C29.7966 28.88 28.3166 28.04 28.3566 25.88C28.5166 19.52 28.8766 12 29.3966 5.76C29.6766 3.28 31.9966 2.96 33.7566 2.64ZM58.7188 11.76L57.8788 25.64C57.7588 26.92 57.5988 28.64 55.5588 28.76C53.4788 28.68 52.7588 28.92 52.4788 27.16C52.4788 24.76 52.5988 23.28 52.7588 21C52.9188 18.04 53.3188 11.6 53.6788 7.2C50.4788 7.36 46.4388 7.28 45.9188 5.64C45.1987 3.68 46.1188 3.2 49.1188 2.72C55.5988 1.96 55.5988 1.88 61.5188 1.56C68.5588 1.12 67.8788 5.44 63.5988 6.04L58.9588 6.72C58.9188 8.32 58.8388 9.64 58.7188 11.76ZM78.9694 4.84L83.8094 27.56C83.8494 28.92 82.6894 28.92 81.0494 29.2C78.6494 29.64 77.9294 23.44 77.2094 21.32C77.0894 20.76 76.7294 20.56 76.1694 20.6C74.3294 20.84 73.0094 20.96 71.2094 21.32C70.1294 21.6 70.0094 21.56 69.6894 22.68C69.1294 24.68 68.6894 25.76 68.2894 27.84C68.0094 28.96 67.0894 29.52 66.2094 29.36C65.2894 29.24 63.6094 29.28 63.6894 28.12C63.8494 25.2 65.2894 19.88 66.5294 15.84C68.1294 10.64 68.9294 7.56 71.2094 2.72C71.9294 1.24 75.2494 1.32 75.5694 1.4C77.4494 1.64 78.3694 2.24 78.9694 4.84ZM75.3294 15.68C76.0894 15.48 76.2894 15.6 76.1694 14.72C75.7694 12.36 75.3694 10.24 74.8894 7.96C74.7694 7.52 74.5694 7.16 74.4894 7.16C74.3294 7.16 74.1694 7.68 74.0094 7.92C72.7294 10.88 72.4094 12.76 71.3294 16.16C73.4494 15.96 73.8894 15.92 75.3294 15.68ZM85.9572 23.16C86.4772 16.04 86.6772 11.08 87.8372 2.96C88.5972 0.92 91.2372 0.439999 92.8772 1.96C93.3572 2.44 93.4772 3.6 93.4372 4.2C92.7172 10.24 92.5972 14.6 91.9572 22.24C91.8372 23.8 92.2772 23.76 93.4372 23.72C97.1172 23.56 95.6772 23.6 99.3172 23.32C103.597 23 104.677 27.24 100.397 28.12C97.7172 28.84 89.3172 29.48 87.4372 28.28C85.7572 26.92 85.8372 25.04 85.9572 23.16ZM111.91 11.12C115.35 7.88 117.03 6.12 120.39 2.84C121.79 1.6 123.19 2.04 123.67 2.52C124.27 3.08 124.51 4.6 123.31 5.72C120.31 9.24 118.63 10.68 115.39 14.04C115.07 14.4 114.79 14.72 115.31 15.28C118.83 18.84 121.31 21.88 124.59 25.24C126.11 26.84 123.75 29 122.11 28.08C117.95 26.08 114.51 20.92 111.83 17.08C111.83 20.64 111.75 23.76 111.19 27.44C111.11 28.16 109.87 28.96 109.11 28.92C108.15 28.88 106.39 28.96 106.39 26.8C106.39 18.88 106.71 11.08 107.79 2C108.03 0.759999 109.51 0.639998 110.39 0.799999C111.63 0.959999 112.79 0.839998 112.75 2.48C112.47 5.64 112.27 8 111.91 11.12Z" fill="#FF2922"/>
</svg>
