<svg width="32" height="32" viewBox="0 0 32 32" fill="none" xmlns="http://www.w3.org/2000/svg">
<g clip-path="url(#clip0_0_7814)">
<path d="M29.3317 25.51C29.3315 26.0099 29.2328 26.5049 29.0413 26.9667C28.8498 27.4285 28.5692 27.848 28.2155 28.2013C27.8619 28.5546 27.4421 28.8348 26.9801 29.0259C26.5181 29.2169 26.0231 29.3151 25.5232 29.3149H6.47411C5.46449 29.3153 4.49603 28.9147 3.78172 28.2012C3.06741 27.4877 2.66574 26.5197 2.66504 25.51V6.48907C2.66588 5.47959 3.06763 4.51177 3.78194 3.79846C4.49625 3.08514 5.46463 2.68474 6.47411 2.6853H25.5232C26.023 2.68496 26.518 2.78307 26.9799 2.97405C27.4419 3.16502 27.8616 3.44512 28.2153 3.79834C28.569 4.15156 28.8496 4.57098 29.0411 5.03266C29.2327 5.49434 29.3314 5.98923 29.3317 6.48907V25.51Z" fill="#FFE400"/>
<path d="M21.7168 18.6637C21.5973 17.7355 21.1332 16.8861 20.4167 16.2841C20.3107 16.1907 20.1956 16.1038 20.0684 16.0004C20.1744 15.9209 20.2625 15.8599 20.3446 15.7915C20.8603 15.3646 21.2587 14.8133 21.5021 14.1897C21.7326 13.6 21.8057 12.9605 21.7142 12.3339C21.6128 11.5719 21.276 10.8604 20.7508 10.299C20.3765 9.88219 19.9141 9.55399 19.3971 9.33823C18.8951 9.13495 18.3577 9.03314 17.816 9.03866H11.7461C11.7043 9.03627 11.6623 9.03627 11.6205 9.03866C11.5539 9.04169 11.4912 9.07071 11.4458 9.11949C11.4004 9.16827 11.3759 9.23291 11.3776 9.29953C11.3776 9.34194 11.3776 9.38383 11.3776 9.42572V22.5406C11.3776 22.6063 11.3739 22.6726 11.3776 22.7384C11.3803 22.7927 11.402 22.8444 11.4388 22.8845C11.4755 22.9246 11.5252 22.9505 11.5791 22.9579C11.6208 22.9629 11.6628 22.9645 11.7048 22.9627H17.991C18.6241 22.9651 19.2464 22.7988 19.7937 22.4807C20.5758 22.0412 21.1794 21.3419 21.5 20.504C21.7314 19.92 21.8061 19.2855 21.7168 18.6637ZM16.886 19.1356H15.7519V12.879H16.8733C16.8733 12.879 16.8691 12.8758 16.8733 12.8758V12.879H16.886V19.1356Z" fill="#1E1719"/>
</g>
<defs>
<clipPath id="clip0_0_7814">
<rect width="26.6667" height="26.6301" fill="white" transform="translate(2.6665 2.68497)"/>
</clipPath>
</defs>
</svg>
