<svg width="32" height="32" viewBox="0 0 32 32" fill="none" xmlns="http://www.w3.org/2000/svg">
<g clip-path="url(#clip0_0_7832)">
<path d="M15.3469 1.54452C12.4875 1.6742 9.73079 2.64903 7.4255 4.34569C5.1202 6.04235 3.3699 8.38462 2.39601 11.0762C1.42212 13.7678 1.26839 16.6877 1.95428 19.4667C2.64017 22.2456 4.13487 24.7587 6.24926 26.688C8.36366 28.6174 11.0028 29.8763 13.8327 30.3055C16.6627 30.7347 19.5564 30.3149 22.1478 29.0992C24.7392 27.8836 26.9118 25.9267 28.3908 23.476C29.8698 21.0254 30.5888 18.1912 30.4567 15.3319C30.3718 13.4332 29.9135 11.5699 29.108 9.84846C28.3025 8.12703 27.1656 6.58123 25.7624 5.29946C24.3591 4.01768 22.7169 3.02506 20.9297 2.37835C19.1426 1.73164 17.2455 1.44352 15.3469 1.53046V1.54452Z" fill="url(#paint0_radial_0_7832)"/>
<path d="M15.3393 1.3482C12.4412 1.47922 9.64711 2.46672 7.31033 4.18583C4.97356 5.90493 3.19908 8.2784 2.21132 11.0061C1.22355 13.7337 1.06689 16.6931 1.76113 19.5098C2.45536 22.3265 3.96932 24.8741 6.11152 26.8303C8.25372 28.7865 10.9279 30.0635 13.7959 30.4998C16.664 30.9361 19.5969 30.512 22.2239 29.2812C24.8509 28.0505 27.0539 26.0684 28.5543 23.5855C30.0547 21.1026 30.7851 18.2305 30.6531 15.3325C30.4761 11.447 28.7637 7.79071 25.8922 5.16716C23.0206 2.5436 19.225 1.16746 15.3393 1.34116V1.3482ZM17.0556 15.5787C19.6654 17.9845 21.0934 19.2788 21.0934 19.2788C25.6868 23.1055 24.1182 26.6016 22.3596 27.8186C20.9462 28.7612 19.289 29.272 17.5903 29.2887C17.5315 29.2976 17.4715 29.2946 17.4139 29.2798C17.3563 29.2651 17.3022 29.2388 17.255 29.2027C17.2077 29.1666 17.1682 29.1214 17.1388 29.0697C17.1094 29.018 17.0907 28.9609 17.0838 28.9019C17.0838 28.5712 17.5551 28.4868 17.5551 28.4868C21.8953 27.6357 20.6221 24.7867 19.0886 23.3377C18.4485 22.7257 12.4059 17.5132 12.4059 17.5132C6.65182 12.5891 7.10906 8.68505 7.10906 8.68505C7.3834 3.92278 11.5548 2.74101 14.7132 3.01535C15.079 3.05052 15.283 3.27563 15.2197 3.57811C15.1564 3.88059 14.664 3.94389 14.664 3.94389C13.7618 3.92046 12.8693 4.13389 12.0753 4.56292C9.53591 6.27227 10.2886 9.18449 13.6792 12.4203C14.1012 12.8283 14.5585 13.2574 15.0227 13.6935C15.0227 13.6935 15.705 14.2915 17.0556 15.5787ZM15.086 27.8889C15.086 28.3602 13.9816 28.5572 12.6944 28.4305C10.7695 28.2936 8.93632 27.5554 7.45374 26.3202C6.02701 25.0356 4.99504 23.3717 4.47821 21.5228C3.99987 19.8627 3.77478 17.9282 4.59076 18.0759C4.82993 18.1252 5.25198 19.1944 5.70218 19.9682C6.00346 20.5481 6.41715 21.0622 6.91914 21.4806C7.08093 21.6002 7.62256 20.3692 8.43854 19.6728C8.90281 19.2859 9.41633 19.1522 9.50074 20.3058C9.59922 21.7127 9.34599 23.401 9.75399 23.401C10.162 23.401 11.0131 23.1055 12.9195 22.9437C13.6229 22.8875 14.0449 23.0211 13.3626 23.9848C12.8639 24.7441 12.2268 25.4027 11.4844 25.9263C13.1094 27.4317 15.0509 27.2488 15.086 27.8889ZM16.3663 13.1167C16.2364 12.5132 16.2173 11.8911 16.31 11.2807C16.5023 10.0328 16.8817 8.82096 17.4355 7.68618C18.1389 6.01903 16.4929 5.04125 16.7321 4.42926C17.0979 3.59921 18.2515 4.65436 19.5458 4.73174C20.6502 4.79505 21.3185 4.73175 22.1767 4.85133C23.3163 5.00609 24.6809 5.38594 25.2859 6.10345C25.8908 6.82095 24.9975 7.55253 23.9704 7.05309C23.2248 6.6873 22.2822 6.91241 22.8309 7.69322C23.2437 8.21125 23.8413 8.54911 24.498 8.63583C26.3621 9.12823 26.4043 10.915 25.1382 11.8435C23.6961 12.8916 22.247 12.4625 21.6632 10.3944C21.3677 9.36037 20.6362 8.83981 19.8905 9.12822C19.1449 9.41663 19.588 10.7813 20.1578 12.0334C21.2833 14.9175 18.4766 14.8472 18.153 14.7839C17.7298 14.6968 17.3388 14.4943 17.0235 14.1988C16.7082 13.9033 16.4807 13.5264 16.3663 13.1097V13.1167Z" fill="url(#paint1_radial_0_7832)"/>
</g>
<defs>
<radialGradient id="paint0_radial_0_7832" cx="0" cy="0" r="1" gradientUnits="userSpaceOnUse" gradientTransform="translate(18.2601 11.2629) scale(13.7479 13.7479)">
<stop stop-color="white"/>
<stop offset="1" stop-color="#CF9C51"/>
</radialGradient>
<radialGradient id="paint1_radial_0_7832" cx="0" cy="0" r="1" gradientUnits="userSpaceOnUse" gradientTransform="translate(14.8562 7.07784) scale(30.7954 30.7954)">
<stop stop-color="#00C0F3"/>
<stop offset="0.22" stop-color="#0097D6"/>
<stop offset="0.28" stop-color="#0086CA"/>
<stop offset="0.37" stop-color="#0074BD"/>
<stop offset="0.46" stop-color="#0069B5"/>
<stop offset="0.57" stop-color="#0066B3"/>
</radialGradient>
<clipPath id="clip0_0_7832">
<rect width="29.3333" height="29.3333" fill="white" transform="translate(1.3335 1.33334)"/>
</clipPath>
</defs>
</svg>
