<svg width="32" height="32" viewBox="0 0 32 32" fill="none" xmlns="http://www.w3.org/2000/svg">
<g clip-path="url(#clip0_0_7793)">
<path d="M21.1969 2.8252L16.0003 5.43868L10.8037 2.8252L16.0003 12.7017L21.1969 2.8252Z" fill="#FFB71B"/>
<path d="M23.0563 10.425L26.7638 8.87508V3.6481L20.3212 6.41355L16.7352 13.16C18.1148 13.319 19.3813 13.9996 20.2751 15.0624C21.169 16.1251 21.6227 17.4895 21.543 18.8759C21.4634 20.2623 20.8565 21.5658 19.8468 22.5191C18.8371 23.4725 17.501 24.0036 16.1123 24.0036C14.7236 24.0036 13.3875 23.4725 12.3778 22.5191C11.3681 21.5658 10.7612 20.2623 10.6816 18.8759C10.6019 17.4895 11.0554 16.1251 11.9493 15.0624C12.8432 13.9996 14.1097 13.319 15.4892 13.16L11.9033 6.41355L5.49121 3.6481V8.87508L9.25946 10.425C7.62516 11.8535 6.46562 13.7467 5.93563 15.8516C5.40563 17.9566 5.53037 20.1731 6.29333 22.2052C7.05628 24.2373 8.42107 25.9884 10.2054 27.2244C11.9898 28.4605 14.1088 29.1228 16.2794 29.1228C18.45 29.1228 20.569 28.4605 22.3534 27.2244C24.1377 25.9884 25.5025 24.2373 26.2655 22.2052C27.0284 20.1731 27.1533 17.9566 26.6233 15.8516C26.0933 13.7467 24.9336 11.8535 23.2993 10.425H23.0563Z" fill="#FFB71B"/>
</g>
<defs>
<clipPath id="clip0_0_7793">
<rect width="21.3333" height="26.3476" fill="white" transform="translate(5.3335 2.82681)"/>
</clipPath>
</defs>
</svg>
