<svg width="32" height="32" viewBox="0 0 32 32" fill="none" xmlns="http://www.w3.org/2000/svg">
<path d="M30.1614 16.2827L29.9098 16.1088C29.4177 15.6248 28.8334 15.2636 28.1981 15.0507C27.5628 14.8377 26.892 14.7783 26.2331 14.8764C25.0861 14.9789 23.9809 15.3895 23.0177 16.071V16.0105C23.0268 15.5352 23.0594 15.0607 23.1156 14.5891C23.1575 14.0977 23.2065 13.6063 23.2065 13.1375C23.2213 12.6887 23.1524 12.2413 23.0038 11.822C22.986 11.7724 22.954 11.7302 22.9125 11.7017C22.871 11.6731 22.8222 11.6596 22.7731 11.6632C22.2486 11.7166 21.742 11.8975 21.2912 12.1925L21.1794 12.4495C21.1775 13.169 21.1049 13.8863 20.9627 14.5891C20.9472 14.6507 20.9285 14.7113 20.9068 14.7706C20.7322 16.5802 20.7322 18.4046 20.9068 20.2142C20.9068 20.3654 21.2073 20.5998 21.417 20.6905C21.8973 20.7032 22.3744 20.6026 22.815 20.3956H22.9758C23.0078 20.3911 23.0387 20.3795 23.0665 20.3616C23.0943 20.3438 23.1184 20.3199 23.1374 20.2916C23.1563 20.2633 23.1698 20.2311 23.1768 20.197C23.1839 20.1629 23.1845 20.1276 23.1785 20.0932V19.6471C23.3698 18.8711 23.7503 18.1648 24.2803 17.6022C24.8102 17.0396 25.4702 16.6413 26.1912 16.449C26.5515 16.3646 26.926 16.3845 27.277 16.5066C27.628 16.6288 27.943 16.8488 28.1903 17.1446C28.3503 17.8963 28.2324 18.6858 27.8618 19.3447C27.3396 20.2693 26.5289 20.9612 25.5761 21.2953C24.4564 21.7268 23.2672 21.9069 22.0811 21.8246C22.0182 21.7868 20.7879 20.8871 20.7879 20.8871C19.6508 19.9476 18.417 19.1536 17.1112 18.5206C16.8112 18.3395 16.53 18.1241 16.2724 17.878L16.1536 17.7646C15.4546 17.1446 14.0916 16.1769 13.0082 15.3981L12.428 14.9672V14.8387C12.428 14.8008 13.127 14.3623 13.127 14.3623C13.6585 14.0784 14.1562 13.7255 14.6088 13.3114L14.7417 13.2283L17.1043 11.7766C19.369 10.4308 21.9413 8.90362 23.2903 7.39151L23.3532 7.15714V6.95299C23.4334 6.6748 23.4334 6.37686 23.3532 6.09867C23.3444 6.0501 23.3224 6.00546 23.29 5.97045C23.2577 5.93545 23.2164 5.91165 23.1715 5.90209C22.116 5.78868 20.76 6.46913 19.5228 7.72418C19.2939 7.95203 19.0376 8.1453 18.7609 8.29876L18.5721 8.40462C17.1742 9.24384 14.1335 11.3079 12.5258 12.4268C12.6778 10.1586 12.9509 7.90183 13.3437 5.66771L13.3017 5.40309L13.134 5.07042L13.0082 4.82848C12.7661 4.70081 12.4872 4.6818 12.2323 4.77557L11.9107 4.90409L11.4843 5.07042C11.4437 5.07977 11.4059 5.09984 11.3741 5.12887C11.3424 5.15789 11.3179 5.19496 11.3026 5.23676C10.4319 7.79304 9.90688 10.4719 9.74385 13.1904C8.56538 12.3906 7.34731 11.6612 6.09511 11.0055H6.01123C5.70511 10.9229 5.4159 10.7793 5.15845 10.5821L4.57829 10.1738L3.68358 9.55382L3.44592 9.49334C2.92467 9.67159 2.46142 10.0074 2.11084 10.4611C2.08416 10.5091 2.0697 10.5639 2.06891 10.6199C2.07545 10.6968 2.08951 10.7729 2.11084 10.8467L2.15279 11.0432L2.19472 11.1642C2.98747 11.8833 3.85832 12.4952 4.78799 12.9863L6.01123 13.6894L7.89152 14.7933L8.21306 15.073L8.42974 15.2091H8.47168C7.96841 15.5645 5.0606 17.6739 5.0606 17.6739L3.22923 19.0347C2.8936 19.2337 2.54826 19.4129 2.19472 19.5715C1.85473 19.7003 1.56762 19.9546 1.38389 20.2898L1.33496 20.4032L1.38389 20.4788L1.52369 20.5922L1.70543 20.7207L1.90814 20.8644L2.08987 20.9022C2.67174 20.8168 3.23366 20.6142 3.74649 20.3049C4.55033 19.9193 6.73119 18.4979 7.66784 17.8931L8.06627 17.6285C8.25587 17.6008 8.43226 17.508 8.56955 17.3639C8.83325 17.153 9.11398 16.9683 9.40834 16.8119C9.40834 16.8119 9.56211 16.7212 9.69492 16.6456V16.7666C9.6786 19.1322 9.85167 21.4948 10.2122 23.8281V23.9037C10.4281 24.422 10.5899 24.9646 10.6945 25.5217L11.044 26.807L11.1488 26.9279C11.5201 27.1685 11.9463 27.2916 12.3791 27.2833H12.4839L12.5468 27.1245C12.5814 26.9302 12.5978 26.7327 12.5957 26.5348C12.5957 26.3004 12.5957 26.0434 12.5957 25.7258V25.2646C12.4629 23.1099 12.3371 19.9723 12.3371 17.9309V17.7646L14.1545 19.0045C16.6709 20.7661 20.4454 23.4425 22.7731 24.1457C22.8309 24.1643 22.8922 24.1664 22.951 24.1519C23.0098 24.1373 23.0641 24.1065 23.1086 24.0625L23.4651 23.8206H23.528C23.6066 23.7517 23.6691 23.6638 23.7104 23.564C23.7517 23.4642 23.7706 23.3552 23.7657 23.246C25.7019 23.1477 28.407 22.3387 29.8539 20.3729C30.3707 19.6605 30.6558 18.7835 30.6647 17.878C30.6956 17.326 30.5249 16.783 30.1894 16.3659" fill="#FCAF17"/>
</svg>
