<svg width="32" height="32" viewBox="0 0 32 32" fill="none" xmlns="http://www.w3.org/2000/svg">
<g clip-path="url(#clip0_0_7802)">
<path d="M30.4973 11.9945C30.774 11.159 30.7077 10.2479 30.3129 9.46131C29.9182 8.67472 29.2273 8.07703 28.3921 7.79957L11.0088 1.96386C10.5951 1.82344 10.1575 1.76686 9.72161 1.79743C9.28574 1.82799 8.86033 1.94509 8.47021 2.14188" fill="white"/>
<path d="M8.47189 2.1416C7.68471 2.53554 7.08617 3.22594 6.80786 4.06104L1.50619 19.997C1.23163 20.8325 1.29893 21.7427 1.6934 22.5287C2.08786 23.3148 2.77742 23.9127 3.61138 24.1919L21.0024 30.0276C21.4165 30.1663 21.8538 30.222 22.2894 30.1915C22.7251 30.1609 23.1504 30.0448 23.541 29.8496C23.9308 29.6558 24.2781 29.3863 24.5625 29.0567C24.8469 28.7271 25.0627 28.3441 25.1973 27.9302L30.5067 11.9942" fill="white"/>
<path d="M16.9778 17.4505C16.0207 18.523 14.8251 19.3554 13.4872 19.8808L12.7132 20.1826V12.799L13.4872 13.1008C14.8268 13.6234 16.025 14.4532 16.9855 15.5234C17.5933 14.5289 17.9766 13.4137 18.1086 12.2556C18.2405 11.0976 18.1179 9.92475 17.7493 8.81904C17.3807 7.71334 16.7751 6.70148 15.9747 5.85422C15.1744 5.00696 14.1986 4.34474 13.1157 3.91387L10.5771 3.04703C10.3082 2.95881 10.0247 2.92447 9.74255 2.94599C9.46044 2.9675 9.18535 3.04445 8.93301 3.17242C8.68068 3.30038 8.45606 3.47686 8.27201 3.69174C8.08796 3.90662 7.9481 4.15569 7.86043 4.42469L2.54329 20.3761C2.36968 20.9253 2.41935 21.5207 2.68154 22.0335C2.94373 22.5463 3.39734 22.9352 3.94416 23.116L16.0103 27.1406C17.2137 25.8556 17.9594 24.2093 18.1315 22.4572C18.3036 20.7051 17.8926 18.9452 16.9623 17.4505H16.9778ZM9.99658 12.3578V20.6393H8.79693V12.3811L9.99658 12.3578Z" fill="#2293C8"/>
<path d="M16.2808 16.4834C15.6012 15.6897 14.7764 15.033 13.8506 14.5485V18.4183C14.7803 17.9299 15.6058 17.2648 16.2808 16.4602" fill="#E43D30"/>
<path d="M28.0144 8.85938L16.939 5.15982C18.3302 6.68116 19.1642 8.6294 19.3048 10.6861C19.4454 12.7429 18.8842 14.7865 17.7129 16.483C18.851 18.1288 19.4161 20.1033 19.321 22.102C19.2259 24.1007 18.4759 26.0126 17.1866 27.5429L21.3506 28.9283C21.6193 29.0176 21.9032 29.0528 22.1856 29.0317C22.468 29.0107 22.7435 28.9339 22.9961 28.8058C23.2487 28.6777 23.4734 28.5009 23.6572 28.2854C23.8411 28.07 23.9804 27.8203 24.0672 27.5507L29.4076 11.607C29.5836 11.0589 29.536 10.4634 29.2751 9.95023C29.0141 9.43706 28.561 9.04777 28.0144 8.86713V8.85938ZM25.0811 20.6237H23.5796L20.4837 16.483L23.5796 12.35H25.1275L22.0317 16.4984L25.0811 20.6237Z" fill="#215C9C"/>
</g>
<defs>
<clipPath id="clip0_0_7802">
<rect width="29.3333" height="28.4123" fill="white" transform="translate(1.3335 1.79361)"/>
</clipPath>
</defs>
</svg>
