<svg width="58" height="49" viewBox="0 0 58 49" fill="none" xmlns="http://www.w3.org/2000/svg">
<path d="M6.19727 31.6729C6.19727 31.6729 12.8843 24.8348 14.3525 12.0295C14.3525 12.0295 21.3048 26.288 25.586 26.8703L21.4421 34.0021L6.19727 31.6729Z" fill="url(#paint0_linear_409_863)"/>
<path d="M51.9199 31.6729C51.9199 31.6729 45.2328 24.8348 43.7647 12.0295C43.7647 12.0295 36.8124 26.288 32.5312 26.8703L36.6751 34.0021L51.9199 31.6729Z" fill="url(#paint1_linear_409_863)"/>
<path d="M14.8838 17.1357C16.9549 17.1357 18.6338 15.4567 18.6338 13.3857C18.6338 11.3146 16.9549 9.63568 14.8838 9.63568C12.8127 9.63568 11.1338 11.3146 11.1338 13.3857C11.1338 15.4567 12.8127 17.1357 14.8838 17.1357Z" fill="url(#paint2_linear_409_863)"/>
<path d="M43.115 17.1357C45.1861 17.1357 46.865 15.4567 46.865 13.3857C46.865 11.3146 45.1861 9.63568 43.115 9.63568C41.0439 9.63568 39.365 11.3146 39.365 13.3857C39.365 15.4567 41.0439 17.1357 43.115 17.1357Z" fill="url(#paint3_linear_409_863)"/>
<path d="M7.938 40.1149C7.938 40.1149 6.50118 34.5078 6.16721 31.5247C5.83325 28.5416 2.2373 18.2149 2.2373 18.2149C2.2373 18.2149 4.82359 25.8289 13.328 26.1881C21.8325 26.5473 25.9721 15.0923 26.9779 11.2768C27.9836 7.45711 28.9933 1.13599 28.9933 1.13599C28.9933 1.13599 29.5525 22.2543 43.5402 26.0698C50.5884 27.8613 54.8406 19.6261 56.1842 16.1656C56.1842 16.1656 54.4484 21.5909 53.4426 25.4106C52.4368 29.2304 51.3573 32.598 51.3573 36.7726C51.3573 40.9473 51.4699 42.498 51.4699 42.498C51.4699 42.498 48.1264 46.7064 28.9933 46.7064C9.86024 46.7064 7.94188 40.1106 7.94188 40.1106L7.938 40.1149Z" fill="url(#paint4_linear_409_863)"/>
<path d="M6.07401 43.3051C6.07401 43.3051 6.40409 34.8333 6.07401 31.8502C5.74393 28.8671 2.2373 19.0897 2.2373 18.0164C2.2373 16.9432 5.309 27.3206 13.6387 27.6798C21.9684 28.039 26.0303 16.584 27.0167 12.7685C28.003 8.95304 28.9894 2.62769 28.9894 2.62769C28.9894 2.62769 29.537 23.746 43.245 27.5615C50.1534 29.353 55.0852 17.9868 55.6367 17.6573C56.1881 17.3277 54.5416 22.7868 53.5552 26.6066C52.5689 30.4263 51.9087 33.4051 51.9087 37.584C51.9087 41.7629 52.0174 43.3094 52.0174 43.3094C52.0174 43.3094 47.7419 48.2023 28.9933 48.2023C10.2447 48.2023 6.0779 43.3094 6.0779 43.3094L6.07401 43.3051Z" fill="url(#paint5_linear_409_863)"/>
<path d="M29 10.3388C31.7614 10.3388 34 8.10023 34 5.33881C34 2.57738 31.7614 0.338806 29 0.338806C26.2386 0.338806 24 2.57738 24 5.33881C24 8.10023 26.2386 10.3388 29 10.3388Z" fill="url(#paint6_linear_409_863)"/>
<path d="M49.3998 40.2301C45.9631 41.3202 39.6294 42.6174 28.9853 42.6174C15.9917 42.6174 9.32021 40.6949 6.1825 39.2878C6.17474 39.609 6.17085 39.9174 6.16309 40.2132C9.51438 41.6583 16.248 43.4625 28.9853 43.4625C41.7225 43.4625 48.5416 41.6498 51.9162 40.2047C51.9123 39.9216 51.9084 39.6132 51.9046 39.2878C51.2366 39.5878 50.4134 39.909 49.3959 40.2301H49.3998Z" fill="url(#paint7_linear_409_863)"/>
<path d="M6.16351 40.1654C6.1208 41.9654 6.07031 43.3091 6.07031 43.3091C6.07031 43.3091 10.2371 48.2021 28.9857 48.2021C47.7343 48.2021 52.0098 43.3091 52.0098 43.3091C52.0098 43.3091 51.9477 42.4133 51.9166 40.157C48.6508 41.5852 41.9055 43.457 28.9857 43.457C16.0659 43.457 9.40607 41.5936 6.16351 40.1697V40.1654Z" fill="url(#paint8_linear_409_863)"/>
<path d="M3.09546 20.666C4.47617 20.666 5.59546 19.5467 5.59546 18.166C5.59546 16.7852 4.47617 15.666 3.09546 15.666C1.71475 15.666 0.595459 16.7852 0.595459 18.166C0.595459 19.5467 1.71475 20.666 3.09546 20.666Z" fill="url(#paint9_linear_409_863)"/>
<path d="M54.8987 20.666C56.2794 20.666 57.3987 19.5467 57.3987 18.166C57.3987 16.7852 56.2794 15.666 54.8987 15.666C53.518 15.666 52.3987 16.7852 52.3987 18.166C52.3987 19.5467 53.518 20.666 54.8987 20.666Z" fill="url(#paint10_linear_409_863)"/>
<defs>
<linearGradient id="paint0_linear_409_863" x1="6.19727" y1="23.0158" x2="25.586" y2="23.0158" gradientUnits="userSpaceOnUse">
<stop stop-color="#C17743"/>
<stop offset="1" stop-color="#A55315"/>
</linearGradient>
<linearGradient id="paint1_linear_409_863" x1="51.9199" y1="23.0158" x2="32.5312" y2="23.0158" gradientUnits="userSpaceOnUse">
<stop stop-color="#C17743"/>
<stop offset="1" stop-color="#A55315"/>
</linearGradient>
<linearGradient id="paint2_linear_409_863" x1="11.1379" y1="13.3857" x2="17.1239" y2="17.1357" gradientUnits="userSpaceOnUse">
<stop stop-color="#BB723E"/>
<stop offset="1" stop-color="#894512"/>
</linearGradient>
<linearGradient id="paint3_linear_409_863" x1="39.3691" y1="13.3857" x2="45.3551" y2="17.1357" gradientUnits="userSpaceOnUse">
<stop stop-color="#BB723E"/>
<stop offset="1" stop-color="#894512"/>
</linearGradient>
<linearGradient id="paint4_linear_409_863" x1="23.4674" y1="17.6337" x2="47.5679" y2="27.106" gradientUnits="userSpaceOnUse">
<stop stop-color="#DFA170"/>
<stop offset="1" stop-color="#CD8C5B"/>
</linearGradient>
<linearGradient id="paint5_linear_409_863" x1="2.2373" y1="25.4108" x2="55.7415" y2="25.4108" gradientUnits="userSpaceOnUse">
<stop stop-color="#CB6636"/>
<stop offset="0.1" stop-color="#D27B47"/>
<stop offset="0.19" stop-color="#CF753F"/>
<stop offset="0.34" stop-color="#EDB27F"/>
<stop offset="0.49" stop-color="#F6BE93"/>
<stop offset="0.63" stop-color="#B3642C"/>
<stop offset="0.87" stop-color="#A14D0D"/>
<stop offset="1" stop-color="#F1986C"/>
</linearGradient>
<linearGradient id="paint6_linear_409_863" x1="24" y1="5.33881" x2="34" y2="5.33881" gradientUnits="userSpaceOnUse">
<stop stop-color="#C17743"/>
<stop offset="1" stop-color="#A55315"/>
</linearGradient>
<linearGradient id="paint7_linear_409_863" x1="29.0391" y1="42.2693" x2="29.0391" y2="43.8172" gradientUnits="userSpaceOnUse">
<stop stop-color="#622800"/>
<stop offset="0.5" stop-color="#893A03"/>
<stop offset="1" stop-color="#642900"/>
</linearGradient>
<linearGradient id="paint8_linear_409_863" x1="6.07031" y1="44.1753" x2="52.0137" y2="44.1753" gradientUnits="userSpaceOnUse">
<stop stop-color="#CB6636"/>
<stop offset="0.1" stop-color="#D27B47"/>
<stop offset="0.19" stop-color="#CF753F"/>
<stop offset="0.34" stop-color="#EDB27F"/>
<stop offset="0.49" stop-color="#F6BE93"/>
<stop offset="0.63" stop-color="#B3642C"/>
<stop offset="0.87" stop-color="#A14D0D"/>
<stop offset="1" stop-color="#F1986C"/>
</linearGradient>
<linearGradient id="paint9_linear_409_863" x1="0.598224" y1="18.166" x2="5.59546" y2="18.166" gradientUnits="userSpaceOnUse">
<stop stop-color="#C17743"/>
<stop offset="1" stop-color="#A55315"/>
</linearGradient>
<linearGradient id="paint10_linear_409_863" x1="52.4014" y1="18.166" x2="57.3987" y2="18.166" gradientUnits="userSpaceOnUse">
<stop stop-color="#C17743"/>
<stop offset="1" stop-color="#A55315"/>
</linearGradient>
</defs>
</svg>
