<svg width="24" height="20" viewBox="0 0 24 20" fill="none" xmlns="http://www.w3.org/2000/svg">
<path d="M2.87891 13.0692C2.87891 13.0692 5.55374 10.334 6.14099 5.21184C6.14099 5.21184 8.92191 10.9152 10.6344 11.1481L8.97684 14.0009L2.87891 13.0692Z" fill="url(#paint0_linear_409_1387)"/>
<path d="M21.168 13.0692C21.168 13.0692 18.4931 10.334 17.9059 5.21184C17.9059 5.21184 15.125 10.9152 13.4125 11.1481L15.07 14.0009L21.168 13.0692Z" fill="url(#paint1_linear_409_1387)"/>
<path d="M6.35352 7.25427C7.18194 7.25427 7.85352 6.5827 7.85352 5.75427C7.85352 4.92585 7.18194 4.25427 6.35352 4.25427C5.52509 4.25427 4.85352 4.92585 4.85352 5.75427C4.85352 6.5827 5.52509 7.25427 6.35352 7.25427Z" fill="url(#paint2_linear_409_1387)"/>
<path d="M17.646 7.25427C18.4744 7.25427 19.146 6.5827 19.146 5.75427C19.146 4.92585 18.4744 4.25427 17.646 4.25427C16.8176 4.25427 16.146 4.92585 16.146 5.75427C16.146 6.5827 16.8176 7.25427 17.646 7.25427Z" fill="url(#paint3_linear_409_1387)"/>
<path d="M3.5752 16.446C3.5752 16.446 3.00047 14.2031 2.86688 13.0099C2.7333 11.8167 1.29492 7.68597 1.29492 7.68597C1.29492 7.68597 2.32944 10.7316 5.73121 10.8753C9.13299 11.0189 10.7888 6.43695 11.1911 4.91075C11.5935 3.38287 11.9973 0.854416 11.9973 0.854416C11.9973 0.854416 12.221 9.30174 17.8161 10.8279C20.6353 11.5446 22.3362 8.25047 22.8737 6.86625C22.8737 6.86625 22.1793 9.03639 21.777 10.5643C21.3747 12.0922 20.9429 13.4392 20.9429 15.1091C20.9429 16.7789 20.9879 17.3992 20.9879 17.3992C20.9879 17.3992 19.6505 19.0826 11.9973 19.0826C4.34409 19.0826 3.57675 16.4443 3.57675 16.4443L3.5752 16.446Z" fill="url(#paint4_linear_409_1387)"/>
<path d="M2.8296 17.7221C2.8296 17.7221 2.96164 14.3333 2.8296 13.1401C2.69757 11.9469 1.29492 8.03588 1.29492 7.60659C1.29492 7.17729 2.5236 11.3283 5.85548 11.4719C9.18736 11.6156 10.8121 7.03363 11.2067 5.50743C11.6012 3.98124 11.9958 1.4511 11.9958 1.4511C11.9958 1.4511 12.2148 9.89842 17.698 11.4246C20.4614 12.1412 22.4341 7.59476 22.6547 7.46293C22.8752 7.3311 22.2166 9.51476 21.8221 11.0426C21.4275 12.5705 21.1635 13.7621 21.1635 15.4336C21.1635 17.1052 21.207 17.7238 21.207 17.7238C21.207 17.7238 19.4968 19.681 11.9973 19.681C4.49787 19.681 2.83116 17.7238 2.83116 17.7238L2.8296 17.7221Z" fill="url(#paint5_linear_409_1387)"/>
<path d="M12 4.53552C13.1046 4.53552 14 3.64009 14 2.53552C14 1.43095 13.1046 0.535522 12 0.535522C10.8954 0.535522 10 1.43095 10 2.53552C10 3.64009 10.8954 4.53552 12 4.53552Z" fill="url(#paint6_linear_409_1387)"/>
<path d="M20.1599 16.4921C18.7852 16.9281 16.2518 17.447 11.9941 17.447C6.79669 17.447 4.12809 16.678 2.873 16.1152C2.86989 16.2436 2.86834 16.367 2.86523 16.4853C4.20575 17.0633 6.89921 17.785 11.9941 17.785C17.089 17.785 19.8166 17.0599 21.1665 16.4819C21.1649 16.3687 21.1634 16.2453 21.1618 16.1152C20.8947 16.2352 20.5653 16.3636 20.1584 16.4921H20.1599Z" fill="url(#paint7_linear_409_1387)"/>
<path d="M2.8654 16.4662C2.84832 17.1862 2.82812 17.7237 2.82812 17.7237C2.82812 17.7237 4.49484 19.6808 11.9943 19.6808C19.4937 19.6808 21.2039 17.7237 21.2039 17.7237C21.2039 17.7237 21.1791 17.3653 21.1667 16.4628C19.8603 17.0341 17.1622 17.7828 11.9943 17.7828C6.82638 17.7828 4.16243 17.0375 2.8654 16.4679V16.4662Z" fill="url(#paint8_linear_409_1387)"/>
<path d="M1.63818 8.66638C2.19047 8.66638 2.63818 8.21867 2.63818 7.66638C2.63818 7.1141 2.19047 6.66638 1.63818 6.66638C1.0859 6.66638 0.638184 7.1141 0.638184 7.66638C0.638184 8.21867 1.0859 8.66638 1.63818 8.66638Z" fill="url(#paint9_linear_409_1387)"/>
<path d="M22.3594 8.66638C22.9117 8.66638 23.3594 8.21867 23.3594 7.66638C23.3594 7.1141 22.9117 6.66638 22.3594 6.66638C21.8071 6.66638 21.3594 7.1141 21.3594 7.66638C21.3594 8.21867 21.8071 8.66638 22.3594 8.66638Z" fill="url(#paint10_linear_409_1387)"/>
<defs>
<linearGradient id="paint0_linear_409_1387" x1="2.87891" y1="9.60635" x2="10.6344" y2="9.60635" gradientUnits="userSpaceOnUse">
<stop stop-color="#C17743"/>
<stop offset="1" stop-color="#A55315"/>
</linearGradient>
<linearGradient id="paint1_linear_409_1387" x1="21.168" y1="9.60635" x2="13.4125" y2="9.60635" gradientUnits="userSpaceOnUse">
<stop stop-color="#C17743"/>
<stop offset="1" stop-color="#A55315"/>
</linearGradient>
<linearGradient id="paint2_linear_409_1387" x1="4.85517" y1="5.75427" x2="7.24957" y2="7.25427" gradientUnits="userSpaceOnUse">
<stop stop-color="#BB723E"/>
<stop offset="1" stop-color="#894512"/>
</linearGradient>
<linearGradient id="paint3_linear_409_1387" x1="16.1477" y1="5.75427" x2="18.5421" y2="7.25427" gradientUnits="userSpaceOnUse">
<stop stop-color="#BB723E"/>
<stop offset="1" stop-color="#894512"/>
</linearGradient>
<linearGradient id="paint4_linear_409_1387" x1="9.78697" y1="7.45352" x2="19.4271" y2="11.2424" gradientUnits="userSpaceOnUse">
<stop stop-color="#DFA170"/>
<stop offset="1" stop-color="#CD8C5B"/>
</linearGradient>
<linearGradient id="paint5_linear_409_1387" x1="1.29492" y1="10.5643" x2="22.6966" y2="10.5643" gradientUnits="userSpaceOnUse">
<stop stop-color="#CB6636"/>
<stop offset="0.1" stop-color="#D27B47"/>
<stop offset="0.19" stop-color="#CF753F"/>
<stop offset="0.34" stop-color="#EDB27F"/>
<stop offset="0.49" stop-color="#F6BE93"/>
<stop offset="0.63" stop-color="#B3642C"/>
<stop offset="0.87" stop-color="#A14D0D"/>
<stop offset="1" stop-color="#F1986C"/>
</linearGradient>
<linearGradient id="paint6_linear_409_1387" x1="10" y1="2.53552" x2="14" y2="2.53552" gradientUnits="userSpaceOnUse">
<stop stop-color="#C17743"/>
<stop offset="1" stop-color="#A55315"/>
</linearGradient>
<linearGradient id="paint7_linear_409_1387" x1="12.0156" y1="17.3077" x2="12.0156" y2="17.9269" gradientUnits="userSpaceOnUse">
<stop stop-color="#622800"/>
<stop offset="0.5" stop-color="#893A03"/>
<stop offset="1" stop-color="#642900"/>
</linearGradient>
<linearGradient id="paint8_linear_409_1387" x1="2.82812" y1="18.0701" x2="21.2055" y2="18.0701" gradientUnits="userSpaceOnUse">
<stop stop-color="#CB6636"/>
<stop offset="0.1" stop-color="#D27B47"/>
<stop offset="0.19" stop-color="#CF753F"/>
<stop offset="0.34" stop-color="#EDB27F"/>
<stop offset="0.49" stop-color="#F6BE93"/>
<stop offset="0.63" stop-color="#B3642C"/>
<stop offset="0.87" stop-color="#A14D0D"/>
<stop offset="1" stop-color="#F1986C"/>
</linearGradient>
<linearGradient id="paint9_linear_409_1387" x1="0.63929" y1="7.66638" x2="2.63818" y2="7.66638" gradientUnits="userSpaceOnUse">
<stop stop-color="#C17743"/>
<stop offset="1" stop-color="#A55315"/>
</linearGradient>
<linearGradient id="paint10_linear_409_1387" x1="21.3605" y1="7.66638" x2="23.3594" y2="7.66638" gradientUnits="userSpaceOnUse">
<stop stop-color="#C17743"/>
<stop offset="1" stop-color="#A55315"/>
</linearGradient>
</defs>
</svg>
