<svg width="85" height="84" viewBox="0 0 85 84" fill="none" xmlns="http://www.w3.org/2000/svg">
<path d="M10.5747 52.7403C10.5747 52.7403 19.9366 43.167 21.992 25.2396C21.992 25.2396 31.7252 45.2014 37.719 46.0166L31.9175 56.0011L10.5747 52.7403Z" fill="url(#paint0_linear_0_6611)"/>
<path d="M74.5112 52.7403C74.5112 52.7403 65.1493 43.167 63.0939 25.2396C63.0939 25.2396 53.3607 45.2014 47.367 46.0166L53.1685 56.0011L74.5112 52.7403Z" fill="url(#paint1_linear_0_6611)"/>
<path d="M22.7373 32.39C25.6368 32.39 27.9873 30.0394 27.9873 27.14C27.9873 24.2405 25.6368 21.89 22.7373 21.89C19.8378 21.89 17.4873 24.2405 17.4873 27.14C17.4873 30.0394 19.8378 32.39 22.7373 32.39Z" fill="url(#paint2_linear_0_6611)"/>
<path d="M62.2612 32.39C65.1607 32.39 67.5112 30.0394 67.5112 27.14C67.5112 24.2405 65.1607 21.89 62.2612 21.89C59.3617 21.89 57.0112 24.2405 57.0112 27.14C57.0112 30.0394 59.3617 32.39 62.2612 32.39Z" fill="url(#paint3_linear_0_6611)"/>
<path d="M13.0132 64.5608C13.0132 64.5608 11.0016 56.711 10.5341 52.5346C10.0665 48.3583 5.03223 33.9008 5.03223 33.9008C5.03223 33.9008 8.65302 44.5606 20.5592 45.0634C32.4655 45.5662 38.2609 29.5293 39.669 24.1876C41.0771 18.84 42.4906 9.99042 42.4906 9.99042C42.4906 9.99042 43.2735 39.5561 62.8562 44.8977C72.7237 47.4059 78.6768 35.8766 80.5579 31.0318C80.5579 31.0318 78.1277 38.6273 76.7196 43.9749C75.3115 49.3225 73.8002 54.0372 73.8002 59.8817C73.8002 65.7262 73.9578 67.8972 73.9578 67.8972C73.9578 67.8972 69.2769 73.789 42.4906 73.789C15.7043 73.789 13.0186 64.5549 13.0186 64.5549L13.0132 64.5608Z" fill="url(#paint4_linear_0_6611)"/>
<path d="M10.4036 69.0272C10.4036 69.0272 10.8657 57.1667 10.4036 52.9903C9.9415 48.814 5.03223 35.1256 5.03223 33.623C5.03223 32.1205 9.3326 46.6489 20.9942 47.1518C32.6557 47.6546 38.3425 31.6177 39.7234 26.276C41.1043 20.9343 42.4852 12.0788 42.4852 12.0788C42.4852 12.0788 43.2517 41.6444 62.443 46.9861C72.1148 49.4943 79.0193 33.5816 79.7913 33.1202C80.5633 32.6588 78.2582 40.3016 76.8773 45.6492C75.4964 50.9968 74.5722 55.1672 74.5722 61.0177C74.5722 66.8681 74.7244 69.0332 74.7244 69.0332C74.7244 69.0332 68.7387 75.8833 42.4906 75.8833C16.2426 75.8833 10.4091 69.0332 10.4091 69.0332L10.4036 69.0272Z" fill="url(#paint5_linear_0_6611)"/>
<path d="M42.5 22.8743C46.366 22.8743 49.5 19.7403 49.5 15.8743C49.5 12.0083 46.366 8.87433 42.5 8.87433C38.634 8.87433 35.5 12.0083 35.5 15.8743C35.5 19.7403 38.634 22.8743 42.5 22.8743Z" fill="url(#paint6_linear_0_6611)"/>
<path d="M10.5289 64.6317C10.4691 67.1517 10.3984 69.0328 10.3984 69.0328C10.3984 69.0328 16.2319 75.883 42.48 75.883C68.728 75.883 74.7138 69.0328 74.7138 69.0328C74.7138 69.0328 74.6268 67.7787 74.5833 64.6199C70.0111 66.6193 60.5677 69.2399 42.48 69.2399C24.3923 69.2399 15.0685 66.6311 10.5289 64.6376V64.6317Z" fill="url(#paint7_linear_0_6611)"/>
<path d="M6.23389 37.3323C8.16688 37.3323 9.73389 35.7653 9.73389 33.8323C9.73389 31.8993 8.16688 30.3323 6.23389 30.3323C4.30089 30.3323 2.73389 31.8993 2.73389 33.8323C2.73389 35.7653 4.30089 37.3323 6.23389 37.3323Z" fill="url(#paint8_linear_0_6611)"/>
<path d="M78.7495 37.3323C76.8165 37.3323 75.2495 35.7653 75.2495 33.8323C75.2495 31.8993 76.8165 30.3323 78.7495 30.3323C80.6825 30.3323 82.2495 31.8993 82.2495 33.8323C82.2495 35.7653 80.6825 37.3323 78.7495 37.3323Z" fill="url(#paint9_linear_0_6611)"/>
<path fill-rule="evenodd" clip-rule="evenodd" d="M50.6826 67.8652C60.7532 67.3527 67.2069 65.9446 71.0598 64.7225H71.0543C72.4787 64.2729 73.6313 63.8233 74.5664 63.4033C74.5718 63.8588 74.5773 64.2906 74.5827 64.687C70.6417 66.3746 63.3451 68.4203 50.6826 69.0524V70.1504C50.6826 71.1169 49.8991 71.9004 48.9326 71.9004H36.0264C35.0599 71.9004 34.2764 71.1169 34.2764 70.1504V69.0528C21.6477 68.423 14.4412 66.386 10.5283 64.6988C10.5341 64.479 10.5383 64.2542 10.5427 64.0244C10.5465 63.8213 10.5504 63.6143 10.5555 63.4033C14.2326 65.0523 21.3764 67.2069 34.2764 67.8652V66.3701C34.2764 65.4036 35.0599 64.6201 36.0264 64.6201H48.9326C49.8991 64.6201 50.6826 65.4036 50.6826 66.3701V67.8652Z" fill="#DF9C39"/>
<rect x="34.2764" y="64.6201" width="16.4062" height="7.28027" rx="1.75" fill="url(#paint10_linear_0_6611)"/>
<path fill-rule="evenodd" clip-rule="evenodd" d="M36.0236 63.5674H48.9299C50.4763 63.5674 51.7299 64.821 51.7299 66.3674V70.1477C51.7299 71.6941 50.4763 72.9477 48.9299 72.9477H36.0236C34.4772 72.9477 33.2236 71.6941 33.2236 70.1477V66.3674C33.2236 64.821 34.4772 63.5674 36.0236 63.5674ZM36.0236 64.6174C35.0571 64.6174 34.2736 65.4009 34.2736 66.3674V70.1477C34.2736 71.1142 35.0571 71.8977 36.0236 71.8977H48.9299C49.8964 71.8977 50.6799 71.1142 50.6799 70.1477V66.3674C50.6799 65.4009 49.8964 64.6174 48.9299 64.6174H36.0236Z" fill="#DF9C39"/>
<defs>
<linearGradient id="paint0_linear_0_6611" x1="12.7905" y1="38.4815" x2="37.7202" y2="50.5167" gradientUnits="userSpaceOnUse">
<stop stop-color="#F3BF39"/>
<stop offset="1" stop-color="#E6AE1F"/>
</linearGradient>
<linearGradient id="paint1_linear_0_6611" x1="72.2954" y1="38.4815" x2="47.3657" y2="50.5167" gradientUnits="userSpaceOnUse">
<stop stop-color="#F3BF39"/>
<stop offset="1" stop-color="#E6AE1F"/>
</linearGradient>
<linearGradient id="paint2_linear_0_6611" x1="17.4931" y1="27.14" x2="25.8735" y2="32.39" gradientUnits="userSpaceOnUse">
<stop stop-color="#FADE82"/>
<stop offset="1" stop-color="#E6961F"/>
</linearGradient>
<linearGradient id="paint3_linear_0_6611" x1="57.017" y1="27.14" x2="65.3974" y2="32.39" gradientUnits="userSpaceOnUse">
<stop stop-color="#FADE82"/>
<stop offset="1" stop-color="#E6961F"/>
</linearGradient>
<linearGradient id="paint4_linear_0_6611" x1="34.7544" y1="33.0873" x2="68.495" y2="46.3485" gradientUnits="userSpaceOnUse">
<stop stop-color="#FFF2C9"/>
<stop offset="1" stop-color="#FFD639"/>
</linearGradient>
<linearGradient id="paint5_linear_0_6611" x1="5.03223" y1="43.9751" x2="79.9381" y2="43.9751" gradientUnits="userSpaceOnUse">
<stop stop-color="#F3BD5D"/>
<stop offset="0.1" stop-color="#E1AA3F"/>
<stop offset="0.19" stop-color="#F5D46B"/>
<stop offset="0.34" stop-color="#FFEBA4"/>
<stop offset="0.49" stop-color="#FFEBA4"/>
<stop offset="0.63" stop-color="#E5951F"/>
<stop offset="0.796875" stop-color="#E6951F"/>
<stop offset="1" stop-color="#ECB773"/>
</linearGradient>
<linearGradient id="paint6_linear_0_6611" x1="37.1729" y1="13.375" x2="47.0331" y2="21.2631" gradientUnits="userSpaceOnUse">
<stop stop-color="#F9D879"/>
<stop offset="1" stop-color="#F2C134"/>
</linearGradient>
<linearGradient id="paint7_linear_0_6611" x1="10.3984" y1="70.2504" x2="74.7073" y2="70.2504" gradientUnits="userSpaceOnUse">
<stop stop-color="#F3BD5D"/>
<stop offset="0.1" stop-color="#E1AA3F"/>
<stop offset="0.19" stop-color="#F5D46B"/>
<stop offset="0.34" stop-color="#FFEBA4"/>
<stop offset="0.49" stop-color="#FFEBA4"/>
<stop offset="0.63" stop-color="#E5951F"/>
<stop offset="0.796875" stop-color="#E6951F"/>
<stop offset="1" stop-color="#ECB773"/>
</linearGradient>
<linearGradient id="paint8_linear_0_6611" x1="9.73389" y1="32.1166" x2="2.73389" y2="37.3323" gradientUnits="userSpaceOnUse">
<stop stop-color="#F6CE6C"/>
<stop offset="1" stop-color="#EBA635"/>
</linearGradient>
<linearGradient id="paint9_linear_0_6611" x1="75.2495" y1="32.1166" x2="82.2495" y2="37.3323" gradientUnits="userSpaceOnUse">
<stop stop-color="#F6CE6C"/>
<stop offset="1" stop-color="#EBA635"/>
</linearGradient>
<linearGradient id="paint10_linear_0_6611" x1="42.4795" y1="62.9572" x2="42.4795" y2="73.0929" gradientUnits="userSpaceOnUse">
<stop stop-color="#DF9C39"/>
<stop offset="0.600177" stop-color="#F7D07A"/>
<stop offset="1" stop-color="#DF9C39"/>
</linearGradient>
</defs>
</svg>
