<svg width="24" height="24" viewBox="0 0 24 24" fill="none" xmlns="http://www.w3.org/2000/svg">
<path d="M19.8391 16.0859C19.2766 12.1484 15.9766 9.14844 12.0016 9.14844C8.02656 9.14844 4.72656 12.1484 4.16406 16.0484H19.8391V16.0859Z" fill="url(#paint0_linear_0_6418)"/>
<path d="M23.1745 8.58815C23.0245 7.91315 22.612 7.38815 22.012 7.05065C21.7495 6.90065 21.4495 6.82565 21.1495 6.78815C20.887 6.75065 20.6245 6.78815 20.362 6.86315C19.912 6.97565 19.462 7.20065 19.0495 7.38815C18.487 7.65065 17.962 7.91315 17.4745 7.91315V9.63815C18.337 9.63815 19.1245 9.26315 19.7995 8.92565C20.512 8.58815 20.962 8.36315 21.2245 8.51315C21.412 8.62565 21.5245 8.77565 21.562 8.96315C21.5995 9.18815 21.5995 9.48815 21.5245 9.82565C21.4495 10.2006 21.262 10.6131 21.037 11.1006C20.587 12.0381 19.987 12.9381 19.537 13.6131C19.387 13.8756 19.237 14.1006 19.1245 14.2506L19.012 14.4756C19.012 14.5131 18.9745 14.5131 18.9745 14.5506H5.09951C5.09951 14.5131 5.06201 14.5131 5.06201 14.4756L4.94951 14.2506C4.83701 14.0631 4.68701 13.8381 4.53701 13.6131C4.08701 12.9381 3.48701 12.0381 3.03701 11.1006C2.81201 10.6131 2.66201 10.2006 2.54951 9.82565C2.47451 9.45065 2.43701 9.15065 2.51201 8.96315C2.54951 8.77565 2.66201 8.62565 2.84951 8.51315C3.11201 8.36315 3.56201 8.55065 4.27451 8.92565C4.94951 9.26315 5.69951 9.63815 6.59951 9.63815V7.91315C6.11201 7.91315 5.58701 7.65065 5.02451 7.38815C4.61201 7.16315 4.16201 6.97565 3.71201 6.86315C3.37451 6.78815 3.11201 6.75065 2.84951 6.78815C2.54951 6.82565 2.24951 6.90065 1.98701 7.05065C1.38701 7.38815 0.974506 7.95065 0.824506 8.58815C0.637006 9.45065 0.824506 10.5381 1.49951 11.8881C1.98701 12.9006 2.62451 13.8756 3.11201 14.5881C3.26201 14.8131 3.41201 15.0381 3.48701 15.1881C3.52451 15.2631 3.56201 15.3381 3.63701 15.4131C3.86201 15.7506 4.01201 16.0131 4.08701 16.3131V20.5506C3.97451 20.5506 3.89951 20.6257 3.89951 20.7757C3.89951 20.8882 3.97451 21.0006 4.08701 21.0006H19.9495C20.062 21.0006 20.137 20.9256 20.137 20.7757C20.137 20.6631 20.062 20.5506 19.9495 20.5506V16.3506C20.062 16.0506 20.212 15.7881 20.3995 15.4506C20.437 15.3756 20.4745 15.3006 20.5495 15.2256C20.6245 15.0756 20.7745 14.8506 20.9245 14.6256C21.3745 13.9131 22.012 12.9381 22.537 11.9256C23.1745 10.5756 23.362 9.48815 23.1745 8.58815Z" fill="url(#paint1_linear_0_6418)"/>
<path d="M10.65 13.0887C10.65 13.6512 9.6375 15.0762 9.6375 15.0762C9.6375 15.0762 8.625 13.6512 8.625 13.0887C8.625 12.5262 9.075 12.0762 9.6375 12.0762C10.2 12.0762 10.65 12.5262 10.65 13.0887ZM15.3375 13.0887C15.3375 13.6512 14.325 15.0762 14.325 15.0762C14.325 15.0762 13.3125 13.6512 13.3125 13.0887C13.3125 12.5262 13.7625 12.0762 14.325 12.0762C14.8875 12.0762 15.3375 12.5262 15.3375 13.0887Z" fill="#E69620"/>
<path d="M4.53809 12.3012C5.43809 11.4387 7.23809 10.9887 8.43809 11.3262C7.50059 12.1887 5.73809 12.6387 4.53809 12.3012ZM19.5381 12.3012C18.3381 12.6387 16.5381 12.1887 15.6381 11.3262C16.8381 10.9887 18.6381 11.4387 19.5381 12.3012ZM9.97559 11.2887C11.0631 10.6512 12.9006 10.6512 13.9881 11.2887C12.9006 11.9262 11.1006 11.9262 9.97559 11.2887Z" fill="#F5C864"/>
<path d="M4.04883 16.7256H19.9113V17.1381H4.04883V16.7256Z" fill="#DF9C39"/>
<path d="M4.04883 17.1375C4.15238 17.1375 4.23633 17.0368 4.23633 16.9125C4.23633 16.7882 4.15238 16.6875 4.04883 16.6875C3.94527 16.6875 3.86133 16.7882 3.86133 16.9125C3.86133 17.0368 3.94527 17.1375 4.04883 17.1375Z" fill="#DF9C39"/>
<path d="M19.9482 17.1375C20.0518 17.1375 20.1357 17.0368 20.1357 16.9125C20.1357 16.7882 20.0518 16.6875 19.9482 16.6875C19.8447 16.6875 19.7607 16.7882 19.7607 16.9125C19.7607 17.0368 19.8447 17.1375 19.9482 17.1375Z" fill="#DF9C39"/>
<path d="M19.0118 7.65C18.8993 7.2375 18.7493 6.8625 18.4868 6.525C18.2243 6.1875 17.9243 5.8875 17.5118 5.6625C17.2118 5.5125 16.9118 5.4 16.5743 5.3625C16.3118 5.325 16.0118 5.3625 15.7118 5.4375C15.2243 5.55 14.7368 5.8125 14.2493 6.0375C14.1368 6.1125 13.9868 6.15 13.8368 6.225C14.1368 5.625 14.3243 5.0625 14.3243 4.6875H9.6368C9.6368 5.0625 9.8243 5.625 10.1243 6.225C9.9743 6.15 9.8618 6.1125 9.7118 6.0375C9.2243 5.8125 8.7368 5.55 8.2493 5.4375C7.9493 5.3625 7.6493 5.325 7.3868 5.3625C7.0493 5.4 6.7493 5.475 6.4493 5.6625C6.0743 5.8875 5.7368 6.1875 5.4743 6.525C5.2493 6.8625 5.0618 7.2375 4.9493 7.65C4.6868 8.7375 4.8368 10.125 5.4368 11.7375C5.8868 13.0125 6.4868 14.0625 6.7493 14.5875H8.7368C8.6618 14.4375 8.5493 14.2875 8.4743 14.1375C8.4368 14.0625 8.3618 13.9875 8.3243 13.9125C7.5368 12.6375 6.1868 9.75 6.5993 8.1C6.7118 7.6875 6.8993 7.3875 7.2743 7.2C7.3868 7.125 7.5368 7.0875 7.8743 7.1625C8.2118 7.2375 8.5868 7.425 8.9993 7.65C9.6368 7.9875 10.3493 8.325 11.1368 8.4375V14.625H12.8243V8.4375C13.6118 8.325 14.3243 7.9875 14.9993 7.65C15.4118 7.4625 15.7868 7.2375 16.1243 7.1625C16.4618 7.0875 16.6118 7.125 16.7243 7.2C17.0618 7.3875 17.2868 7.6875 17.3993 8.1C17.8118 9.75 16.4618 12.6 15.6743 13.9125C15.6368 13.9875 15.5618 14.0625 15.5243 14.1375C15.4118 14.2875 15.3368 14.4375 15.2618 14.5875H17.2493C17.5493 14.1 18.1118 13.0125 18.5618 11.7375C19.1243 10.125 19.2743 8.7375 19.0118 7.65Z" fill="#F5C864"/>
<path d="M12.0006 6.41191C11.3631 6.41191 10.8006 6.14941 10.3506 5.77441C10.4631 6.59941 11.1381 7.23691 12.0006 7.23691C12.8256 7.23691 13.5381 6.59941 13.6506 5.77441C13.2006 6.18691 12.6381 6.41191 12.0006 6.41191Z" fill="#F2B200"/>
<path fill-rule="evenodd" clip-rule="evenodd" d="M11.8781 2.04828C11.94 2.01252 12.0163 2.01255 12.0782 2.04837L14.5145 3.45784C14.5763 3.49359 14.6143 3.55957 14.6143 3.63096V6.42831C14.6143 6.50003 14.5759 6.56626 14.5137 6.60189L12.0818 7.99404C12.02 8.02941 11.944 8.02927 11.8824 7.99365L9.44567 6.58616C9.38381 6.55043 9.3457 6.48441 9.3457 6.41297V3.62586C9.3457 3.55441 9.38382 3.48839 9.4457 3.45266L11.8781 2.04828ZM9.7457 3.74133V6.29753L11.9829 7.58976L14.2143 6.31235V3.74631L11.978 2.45248L9.7457 3.74133Z" fill="#F5C864"/>
<path d="M11.9773 5.02571V2.22266L9.5509 3.62418L11.9773 5.02571Z" fill="#A7EEEA"/>
<path d="M14.4067 3.62109L11.9786 5.02262L14.4067 6.42245V3.62109Z" fill="#A7EEEA"/>
<path d="M11.9773 5.02539L9.5509 6.42522L11.9773 7.82674V5.02539Z" fill="#A7EEEA"/>
<path d="M14.4067 3.62418L11.9786 2.22266V5.02571L14.4067 3.62418Z" fill="#71DDD7"/>
<path d="M11.9786 7.82674L14.4067 6.42522L11.9786 5.02539V7.82674Z" fill="#71DDD7"/>
<path d="M9.5509 3.62109V6.42245L11.9773 5.02262L9.5509 3.62109Z" fill="#71DDD7"/>
<path d="M13.3988 5.84677V4.206L11.9769 3.38477L10.5551 4.206V5.84677L11.9769 6.668L13.3988 5.84677Z" fill="#30B5AE"/>
<circle cx="1.48784" cy="7.50542" r="0.731981" fill="url(#paint2_radial_0_6418)"/>
<circle cx="0.731981" cy="0.731981" r="0.731981" transform="matrix(-1 0 0 1 23.2441 6.77344)" fill="url(#paint3_radial_0_6418)"/>
<circle cx="0.731981" cy="0.731981" r="0.731981" transform="matrix(-1 0 0 1 18.1348 5.04102)" fill="url(#paint4_radial_0_6418)"/>
<circle cx="6.55901" cy="5.773" r="0.731981" fill="url(#paint5_radial_0_6418)"/>
<defs>
<linearGradient id="paint0_linear_0_6418" x1="12.0016" y1="9.14844" x2="12.0016" y2="16.0859" gradientUnits="userSpaceOnUse">
<stop stop-color="#8FD2C1"/>
<stop offset="1" stop-color="#188D9E"/>
</linearGradient>
<linearGradient id="paint1_linear_0_6418" x1="0.755859" y1="13.8857" x2="23.2414" y2="13.8857" gradientUnits="userSpaceOnUse">
<stop stop-color="#F3BD5D"/>
<stop offset="0.1" stop-color="#E1AA3F"/>
<stop offset="0.19" stop-color="#F5D46B"/>
<stop offset="0.34" stop-color="#FFEBA4"/>
<stop offset="0.49" stop-color="#FFEBA4"/>
<stop offset="0.63" stop-color="#E5951F"/>
<stop offset="0.796875" stop-color="#E6951F"/>
<stop offset="1" stop-color="#ECB773"/>
</linearGradient>
<radialGradient id="paint2_radial_0_6418" cx="0" cy="0" r="1" gradientUnits="userSpaceOnUse" gradientTransform="translate(1.05336 6.77344) rotate(73.4699) scale(1.52708)">
<stop stop-color="#71DDD7"/>
<stop offset="1" stop-color="#30B5AE"/>
</radialGradient>
<radialGradient id="paint3_radial_0_6418" cx="0" cy="0" r="1" gradientUnits="userSpaceOnUse" gradientTransform="translate(0.2975) rotate(73.4699) scale(1.52708)">
<stop stop-color="#71DDD7"/>
<stop offset="1" stop-color="#30B5AE"/>
</radialGradient>
<radialGradient id="paint4_radial_0_6418" cx="0" cy="0" r="1" gradientUnits="userSpaceOnUse" gradientTransform="translate(0.2975) rotate(73.4699) scale(1.52708)">
<stop stop-color="#71DDD7"/>
<stop offset="1" stop-color="#30B5AE"/>
</radialGradient>
<radialGradient id="paint5_radial_0_6418" cx="0" cy="0" r="1" gradientUnits="userSpaceOnUse" gradientTransform="translate(6.12453 5.04102) rotate(73.4699) scale(1.52708)">
<stop stop-color="#71DDD7"/>
<stop offset="1" stop-color="#30B5AE"/>
</radialGradient>
</defs>
</svg>
