<svg width="24" height="24" viewBox="0 0 24 24" fill="none" xmlns="http://www.w3.org/2000/svg">
<path d="M2.87842 15.0687C2.87842 15.0687 5.55325 12.3334 6.1405 7.2113C6.1405 7.2113 8.92142 12.9147 10.6339 13.1476L8.97636 16.0003L2.87842 15.0687Z" fill="url(#paint0_linear_0_1896)"/>
<path d="M21.146 15.0687C21.146 15.0687 18.4712 12.3334 17.8839 7.2113C17.8839 7.2113 15.103 12.9147 13.3905 13.1476L15.0481 16.0003L21.146 15.0687Z" fill="url(#paint1_linear_0_1896)"/>
<path d="M6.35352 9.25427C7.18194 9.25427 7.85352 8.5827 7.85352 7.75427C7.85352 6.92585 7.18194 6.25427 6.35352 6.25427C5.52509 6.25427 4.85352 6.92585 4.85352 7.75427C4.85352 8.5827 5.52509 9.25427 6.35352 9.25427Z" fill="url(#paint2_linear_0_1896)"/>
<path d="M17.646 9.25427C18.4744 9.25427 19.146 8.5827 19.146 7.75427C19.146 6.92585 18.4744 6.25427 17.646 6.25427C16.8176 6.25427 16.146 6.92585 16.146 7.75427C16.146 8.5827 16.8176 9.25427 17.646 9.25427Z" fill="url(#paint3_linear_0_1896)"/>
<path d="M3.5752 18.446C3.5752 18.446 3.00047 16.2032 2.86688 15.0099C2.7333 13.8167 1.29492 9.68598 1.29492 9.68598C1.29492 9.68598 2.32944 12.7316 5.73121 12.8753C9.13299 13.0189 10.7888 8.43697 11.1911 6.91077C11.5935 5.38288 11.9973 2.85443 11.9973 2.85443C11.9973 2.85443 12.221 11.3018 17.8161 12.828C20.6353 13.5446 22.3362 10.2505 22.8737 8.86626C22.8737 8.86626 22.1793 11.0364 21.777 12.5643C21.3747 14.0922 20.9429 15.4392 20.9429 17.1091C20.9429 18.7789 20.9879 19.3992 20.9879 19.3992C20.9879 19.3992 19.6505 21.0826 11.9973 21.0826C4.34409 21.0826 3.57675 18.4443 3.57675 18.4443L3.5752 18.446Z" fill="url(#paint4_linear_0_1896)"/>
<path d="M2.8296 19.7221C2.8296 19.7221 2.96164 16.3334 2.8296 15.1401C2.69757 13.9469 1.29492 10.0359 1.29492 9.6066C1.29492 9.17731 2.5236 13.3283 5.85548 13.472C9.18736 13.6156 10.8121 9.03365 11.2067 7.50745C11.6012 5.98125 11.9958 3.45111 11.9958 3.45111C11.9958 3.45111 12.2148 11.8984 17.698 13.4246C20.4614 14.1413 22.4341 9.59477 22.6547 9.46294C22.8752 9.33111 22.2166 11.5148 21.8221 13.0427C21.4275 14.5705 21.1635 15.7621 21.1635 17.4336C21.1635 19.1052 21.207 19.7238 21.207 19.7238C21.207 19.7238 19.4968 21.681 11.9973 21.681C4.49787 21.681 2.83116 19.7238 2.83116 19.7238L2.8296 19.7221Z" fill="url(#paint5_linear_0_1896)"/>
<path d="M12 6.53552C13.1046 6.53552 14 5.64009 14 4.53552C14 3.43095 13.1046 2.53552 12 2.53552C10.8954 2.53552 10 3.43095 10 4.53552C10 5.64009 10.8954 6.53552 12 6.53552Z" fill="url(#paint6_linear_0_1896)"/>
<path d="M2.8654 18.4662C2.84832 19.1862 2.82812 19.7237 2.82812 19.7237C2.82812 19.7237 4.49484 21.6809 11.9943 21.6809C19.4937 21.6809 21.2039 19.7237 21.2039 19.7237C21.2039 19.7237 21.1791 19.3654 21.1667 18.4628C19.8603 19.0341 17.1622 19.7828 11.9943 19.7828C6.82638 19.7828 4.16243 19.0375 2.8654 18.4679V18.4662Z" fill="url(#paint7_linear_0_1896)"/>
<path d="M1.63818 10.6664C2.19047 10.6664 2.63818 10.2187 2.63818 9.66638C2.63818 9.1141 2.19047 8.66638 1.63818 8.66638C1.0859 8.66638 0.638184 9.1141 0.638184 9.66638C0.638184 10.2187 1.0859 10.6664 1.63818 10.6664Z" fill="url(#paint8_linear_0_1896)"/>
<path d="M22.3569 10.6664C21.8046 10.6664 21.3569 10.2187 21.3569 9.66638C21.3569 9.1141 21.8046 8.66638 22.3569 8.66638C22.9092 8.66638 23.3569 9.1141 23.3569 9.66638C23.3569 10.2187 22.9092 10.6664 22.3569 10.6664Z" fill="url(#paint9_linear_0_1896)"/>
<path fill-rule="evenodd" clip-rule="evenodd" d="M14.3379 19.39C17.2152 19.2436 19.0591 18.8413 20.1599 18.4921H20.1584C20.5653 18.3637 20.8947 18.2352 21.1618 18.1152C21.1634 18.2454 21.1649 18.3688 21.1665 18.482C20.0405 18.9642 17.9557 19.5487 14.3379 19.7293V20.043C14.3379 20.3191 14.114 20.543 13.8379 20.543H10.1504C9.87425 20.543 9.65039 20.3191 9.65039 20.043V19.7294C6.04219 19.5494 3.98321 18.9674 2.86523 18.4854C2.86688 18.4226 2.86809 18.3584 2.86933 18.2927C2.87043 18.2347 2.87154 18.1755 2.873 18.1152C3.92361 18.5864 5.96468 19.202 9.65039 19.39V18.9629C9.65039 18.6867 9.87425 18.4629 10.1504 18.4629H13.8379C14.114 18.4629 14.3379 18.6867 14.3379 18.9629V19.39Z" fill="#DF9C39"/>
<rect x="9.65039" y="18.4629" width="4.6875" height="2.08008" rx="0.5" fill="url(#paint10_linear_0_1896)"/>
<path fill-rule="evenodd" clip-rule="evenodd" d="M10.1496 18.1621H13.8371C14.2789 18.1621 14.6371 18.5203 14.6371 18.9621V20.0422C14.6371 20.484 14.2789 20.8422 13.8371 20.8422H10.1496C9.70778 20.8422 9.34961 20.484 9.34961 20.0422V18.9621C9.34961 18.5203 9.70778 18.1621 10.1496 18.1621ZM10.1496 18.4621C9.87347 18.4621 9.64961 18.686 9.64961 18.9621V20.0422C9.64961 20.3183 9.87347 20.5422 10.1496 20.5422H13.8371C14.1133 20.5422 14.3371 20.3183 14.3371 20.0422V18.9621C14.3371 18.686 14.1133 18.4621 13.8371 18.4621H10.1496Z" fill="#DF9C39"/>
<defs>
<linearGradient id="paint0_linear_0_1896" x1="3.51151" y1="10.9947" x2="10.6343" y2="14.4333" gradientUnits="userSpaceOnUse">
<stop stop-color="#F3BF39"/>
<stop offset="1" stop-color="#E6AE1F"/>
</linearGradient>
<linearGradient id="paint1_linear_0_1896" x1="20.5129" y1="10.9947" x2="13.3901" y2="14.4333" gradientUnits="userSpaceOnUse">
<stop stop-color="#F3BF39"/>
<stop offset="1" stop-color="#E6AE1F"/>
</linearGradient>
<linearGradient id="paint2_linear_0_1896" x1="4.85517" y1="7.75427" x2="7.24957" y2="9.25427" gradientUnits="userSpaceOnUse">
<stop stop-color="#FADE82"/>
<stop offset="1" stop-color="#E6961F"/>
</linearGradient>
<linearGradient id="paint3_linear_0_1896" x1="16.1477" y1="7.75427" x2="18.5421" y2="9.25427" gradientUnits="userSpaceOnUse">
<stop stop-color="#FADE82"/>
<stop offset="1" stop-color="#E6961F"/>
</linearGradient>
<linearGradient id="paint4_linear_0_1896" x1="9.78697" y1="9.45353" x2="19.4271" y2="13.2425" gradientUnits="userSpaceOnUse">
<stop stop-color="#FFF2C9"/>
<stop offset="1" stop-color="#FFD639"/>
</linearGradient>
<linearGradient id="paint5_linear_0_1896" x1="1.29492" y1="12.5643" x2="22.6966" y2="12.5643" gradientUnits="userSpaceOnUse">
<stop stop-color="#F3BD5D"/>
<stop offset="0.1" stop-color="#E1AA3F"/>
<stop offset="0.19" stop-color="#F5D46B"/>
<stop offset="0.34" stop-color="#FFEBA4"/>
<stop offset="0.49" stop-color="#FFEBA4"/>
<stop offset="0.63" stop-color="#E5951F"/>
<stop offset="0.796875" stop-color="#E6951F"/>
<stop offset="1" stop-color="#ECB773"/>
</linearGradient>
<linearGradient id="paint6_linear_0_1896" x1="10.478" y1="3.82142" x2="13.2952" y2="6.07518" gradientUnits="userSpaceOnUse">
<stop stop-color="#F9D879"/>
<stop offset="1" stop-color="#F2C134"/>
</linearGradient>
<linearGradient id="paint7_linear_0_1896" x1="2.82812" y1="20.0715" x2="21.2021" y2="20.0715" gradientUnits="userSpaceOnUse">
<stop stop-color="#F3BD5D"/>
<stop offset="0.1" stop-color="#E1AA3F"/>
<stop offset="0.19" stop-color="#F5D46B"/>
<stop offset="0.34" stop-color="#FFEBA4"/>
<stop offset="0.49" stop-color="#FFEBA4"/>
<stop offset="0.63" stop-color="#E5951F"/>
<stop offset="0.796875" stop-color="#E6951F"/>
<stop offset="1" stop-color="#ECB773"/>
</linearGradient>
<linearGradient id="paint8_linear_0_1896" x1="2.63818" y1="9.17618" x2="0.638184" y2="10.6664" gradientUnits="userSpaceOnUse">
<stop stop-color="#F6CE6C"/>
<stop offset="1" stop-color="#EBA635"/>
</linearGradient>
<linearGradient id="paint9_linear_0_1896" x1="21.3569" y1="9.17618" x2="23.3569" y2="10.6664" gradientUnits="userSpaceOnUse">
<stop stop-color="#F6CE6C"/>
<stop offset="1" stop-color="#EBA635"/>
</linearGradient>
<linearGradient id="paint10_linear_0_1896" x1="11.9941" y1="17.9878" x2="11.9941" y2="20.8837" gradientUnits="userSpaceOnUse">
<stop stop-color="#DF9C39"/>
<stop offset="0.600177" stop-color="#F7D07A"/>
<stop offset="1" stop-color="#DF9C39"/>
</linearGradient>
</defs>
</svg>
