<svg width="24" height="24" viewBox="0 0 24 24" fill="none" xmlns="http://www.w3.org/2000/svg">
<path d="M2.87842 15.0687C2.87842 15.0687 5.55325 12.3334 6.1405 7.2113C6.1405 7.2113 8.92142 12.9147 10.6339 13.1476L8.97636 16.0003L2.87842 15.0687Z" fill="url(#paint0_linear_0_6374)"/>
<path d="M21.146 15.0687C21.146 15.0687 18.4712 12.3334 17.8839 7.2113C17.8839 7.2113 15.103 12.9147 13.3905 13.1476L15.0481 16.0003L21.146 15.0687Z" fill="url(#paint1_linear_0_6374)"/>
<path d="M6.35352 9.25427C7.18194 9.25427 7.85352 8.5827 7.85352 7.75427C7.85352 6.92585 7.18194 6.25427 6.35352 6.25427C5.52509 6.25427 4.85352 6.92585 4.85352 7.75427C4.85352 8.5827 5.52509 9.25427 6.35352 9.25427Z" fill="url(#paint2_linear_0_6374)"/>
<path d="M17.646 9.25427C18.4744 9.25427 19.146 8.5827 19.146 7.75427C19.146 6.92585 18.4744 6.25427 17.646 6.25427C16.8176 6.25427 16.146 6.92585 16.146 7.75427C16.146 8.5827 16.8176 9.25427 17.646 9.25427Z" fill="url(#paint3_linear_0_6374)"/>
<path d="M3.5752 18.446C3.5752 18.446 3.00047 16.2032 2.86688 15.0099C2.7333 13.8167 1.29492 9.68598 1.29492 9.68598C1.29492 9.68598 2.32944 12.7316 5.73121 12.8753C9.13299 13.0189 10.7888 8.43697 11.1911 6.91077C11.5935 5.38288 11.9973 2.85443 11.9973 2.85443C11.9973 2.85443 12.221 11.3018 17.8161 12.828C20.6353 13.5446 22.3362 10.2505 22.8737 8.86626C22.8737 8.86626 22.1793 11.0364 21.777 12.5643C21.3747 14.0922 20.9429 15.4392 20.9429 17.1091C20.9429 18.7789 20.9879 19.3992 20.9879 19.3992C20.9879 19.3992 19.6505 21.0826 11.9973 21.0826C4.34409 21.0826 3.57675 18.4443 3.57675 18.4443L3.5752 18.446Z" fill="url(#paint4_linear_0_6374)"/>
<path d="M2.8296 19.7221C2.8296 19.7221 2.96164 16.3334 2.8296 15.1401C2.69757 13.9469 1.29492 10.0359 1.29492 9.6066C1.29492 9.17731 2.5236 13.3283 5.85548 13.472C9.18736 13.6156 10.8121 9.03365 11.2067 7.50745C11.6012 5.98125 11.9958 3.45111 11.9958 3.45111C11.9958 3.45111 12.2148 11.8984 17.698 13.4246C20.4614 14.1413 22.4341 9.59477 22.6547 9.46294C22.8752 9.33111 22.2166 11.5148 21.8221 13.0427C21.4275 14.5705 21.1635 15.7621 21.1635 17.4336C21.1635 19.1052 21.207 19.7238 21.207 19.7238C21.207 19.7238 19.4968 21.681 11.9973 21.681C4.49787 21.681 2.83116 19.7238 2.83116 19.7238L2.8296 19.7221Z" fill="url(#paint5_linear_0_6374)"/>
<path d="M2.82912 19.7225C2.82912 19.7225 2.96115 16.3338 2.82912 15.1406C2.69708 13.9473 1.29443 10.0363 1.29443 9.60703C1.29443 9.17773 2.52311 13.3287 5.85499 13.4724C9.18687 13.616 10.8116 9.03407 11.2062 7.50788C11.6007 5.98168 11.9953 3.45154 11.9953 3.45154C11.9953 3.45154 12.2143 11.8989 17.6975 13.4251C20.4609 14.1417 22.4336 9.5952 22.6542 9.46337C22.8747 9.33154 22.2161 11.5152 21.8216 13.0431C21.4271 14.571 21.163 15.7625 21.163 17.4341C21.163 19.1056 21.2065 19.7242 21.2065 19.7242C21.2065 19.7242 19.4963 21.6814 11.9968 21.6814C4.49739 21.6814 2.83067 19.7242 2.83067 19.7242L2.82912 19.7225Z" fill="url(#paint6_linear_0_6374)"/>
<path d="M12 6.53552C13.1046 6.53552 14 5.64009 14 4.53552C14 3.43095 13.1046 2.53552 12 2.53552C10.8954 2.53552 10 3.43095 10 4.53552C10 5.64009 10.8954 6.53552 12 6.53552Z" fill="url(#paint7_linear_0_6374)"/>
<path d="M21.4976 14.3575C21.4978 14.3569 21.4974 14.3564 21.4969 14.3563C21.0571 14.2507 20.602 14.4591 20.3945 14.861L20.2068 15.2247C20.0399 15.5482 19.7623 15.7988 19.4122 15.8987C18.4101 16.1847 15.9847 16.7265 11.9928 16.7265C7.99833 16.7265 5.57241 16.184 4.57151 15.8981C4.22272 15.7985 3.94616 15.5489 3.7798 15.2265L3.5067 14.6974C3.34902 14.3919 3.00245 14.2343 2.66858 14.3163C2.66818 14.3164 2.66793 14.3168 2.66804 14.3172C2.74794 14.627 2.80786 14.9067 2.82785 15.1065C2.93785 16.1365 2.85785 18.7765 2.82785 19.4965L5.53785 20.2465L11.9878 20.1165L18.4378 20.2465L21.1878 19.4865C21.1778 19.1965 21.1578 18.5465 21.1578 17.3965C21.1578 16.2469 21.2878 15.3171 21.4976 14.3575Z" fill="url(#paint8_linear_0_6374)"/>
<path d="M20.1599 18.4921C18.7852 18.9281 16.2518 19.447 11.9941 19.447C6.79669 19.447 4.12809 18.678 2.873 18.1152C2.86989 18.2436 2.86834 18.367 2.86523 18.4853C4.20575 19.0633 6.89921 19.785 11.9941 19.785C17.089 19.785 19.8166 19.06 21.1665 18.4819C21.1649 18.3687 21.1634 18.2453 21.1618 18.1152C20.8947 18.2352 20.5653 18.3636 20.1584 18.4921H20.1599Z" fill="url(#paint9_linear_0_6374)"/>
<path d="M2.8654 18.4662C2.84832 19.1862 2.82812 19.7237 2.82812 19.7237C2.82812 19.7237 4.49484 21.6809 11.9943 21.6809C19.4937 21.6809 21.2039 19.7237 21.2039 19.7237C21.2039 19.7237 21.1791 19.3654 21.1667 18.4628C19.8603 19.0341 17.1622 19.7828 11.9943 19.7828C6.82638 19.7828 4.16243 19.0375 2.8654 18.4679V18.4662Z" fill="#7C0618"/>
<path d="M1.64185 10.6664C2.19413 10.6664 2.64185 10.2187 2.64185 9.66638C2.64185 9.1141 2.19413 8.66638 1.64185 8.66638C1.08956 8.66638 0.641846 9.1141 0.641846 9.66638C0.641846 10.2187 1.08956 10.6664 1.64185 10.6664Z" fill="url(#paint10_linear_0_6374)"/>
<path d="M22.3569 10.6664C21.8046 10.6664 21.3569 10.2187 21.3569 9.66638C21.3569 9.1141 21.8046 8.66638 22.3569 8.66638C22.9092 8.66638 23.3569 9.1141 23.3569 9.66638C23.3569 10.2187 22.9092 10.6664 22.3569 10.6664Z" fill="url(#paint11_linear_0_6374)"/>
<path fill-rule="evenodd" clip-rule="evenodd" d="M11.8969 12.3912C11.9588 12.3555 12.0351 12.3555 12.097 12.3913L14.5333 13.8008C14.5951 13.8365 14.6331 13.9025 14.6331 13.9739V16.7713C14.6331 16.843 14.5947 16.9092 14.5325 16.9448L12.1006 18.337C12.0388 18.3724 11.9628 18.3722 11.9012 18.3366L9.46447 16.9291C9.40261 16.8934 9.3645 16.8274 9.3645 16.7559V13.9688C9.3645 13.8974 9.40262 13.8313 9.4645 13.7956L11.8969 12.3912ZM9.7645 14.0843V16.6405L12.0017 17.9327L14.2331 16.6553V14.0893L11.9968 12.7954L9.7645 14.0843Z" fill="url(#paint12_linear_0_6374)"/>
<path d="M11.9964 15.3695V12.5664L9.57007 13.9679L11.9964 15.3695Z" fill="#D72C45"/>
<path d="M14.4259 13.9648L11.9978 15.3664L14.4259 16.7662V13.9648Z" fill="#D72C45"/>
<path d="M11.9964 15.3691L9.57007 16.769L11.9964 18.1705V15.3691Z" fill="#D72C45"/>
<path d="M14.4259 13.9679L11.9978 12.5664V15.3695L14.4259 13.9679Z" fill="#C90724"/>
<path d="M11.9978 18.1705L14.4259 16.769L11.9978 15.3691V18.1705Z" fill="#C90724"/>
<path d="M9.57007 13.9648V16.7662L11.9964 15.3664L9.57007 13.9648Z" fill="#C90724"/>
<path d="M13.418 16.1905V14.5497L11.9961 13.7285L10.5742 14.5497V16.1905L11.9961 17.0117L13.418 16.1905Z" fill="#9A071D"/>
<circle cx="2.74243" cy="13.5596" r="0.442383" fill="url(#paint13_radial_0_6374)"/>
<circle cx="21.3574" cy="13.5596" r="0.442383" fill="url(#paint14_radial_0_6374)"/>
<circle cx="12.016" cy="11.1625" r="0.731981" fill="url(#paint15_radial_0_6374)"/>
<defs>
<linearGradient id="paint0_linear_0_6374" x1="3.51151" y1="10.9947" x2="10.6343" y2="14.4333" gradientUnits="userSpaceOnUse">
<stop stop-color="#F3BF39"/>
<stop offset="1" stop-color="#E6AE1F"/>
</linearGradient>
<linearGradient id="paint1_linear_0_6374" x1="20.5129" y1="10.9947" x2="13.3901" y2="14.4333" gradientUnits="userSpaceOnUse">
<stop stop-color="#F3BF39"/>
<stop offset="1" stop-color="#E6AE1F"/>
</linearGradient>
<linearGradient id="paint2_linear_0_6374" x1="4.85517" y1="7.75427" x2="7.24957" y2="9.25427" gradientUnits="userSpaceOnUse">
<stop stop-color="#FADE82"/>
<stop offset="1" stop-color="#E6961F"/>
</linearGradient>
<linearGradient id="paint3_linear_0_6374" x1="16.1477" y1="7.75427" x2="18.5421" y2="9.25427" gradientUnits="userSpaceOnUse">
<stop stop-color="#FADE82"/>
<stop offset="1" stop-color="#E6961F"/>
</linearGradient>
<linearGradient id="paint4_linear_0_6374" x1="9.78697" y1="9.45353" x2="19.4271" y2="13.2425" gradientUnits="userSpaceOnUse">
<stop stop-color="#FFF2C9"/>
<stop offset="1" stop-color="#FFD639"/>
</linearGradient>
<linearGradient id="paint5_linear_0_6374" x1="1.29492" y1="12.5643" x2="22.6966" y2="12.5643" gradientUnits="userSpaceOnUse">
<stop stop-color="#F3BD5D"/>
<stop offset="0.1" stop-color="#E1AA3F"/>
<stop offset="0.19" stop-color="#F5D46B"/>
<stop offset="0.34" stop-color="#FFEBA4"/>
<stop offset="0.49" stop-color="#FFEBA4"/>
<stop offset="0.63" stop-color="#E5951F"/>
<stop offset="0.796875" stop-color="#E6951F"/>
<stop offset="1" stop-color="#ECB773"/>
</linearGradient>
<linearGradient id="paint6_linear_0_6374" x1="1.29443" y1="12.5648" x2="22.6961" y2="12.5648" gradientUnits="userSpaceOnUse">
<stop stop-color="#F3BD5D"/>
<stop offset="0.1" stop-color="#E1AA3F"/>
<stop offset="0.19" stop-color="#F5D46B"/>
<stop offset="0.34" stop-color="#FFEBA4"/>
<stop offset="0.49" stop-color="#FFEBA4"/>
<stop offset="0.63" stop-color="#E5951F"/>
<stop offset="0.796875" stop-color="#E6951F"/>
<stop offset="1" stop-color="#ECB773"/>
</linearGradient>
<linearGradient id="paint7_linear_0_6374" x1="10.478" y1="3.82142" x2="13.2952" y2="6.07518" gradientUnits="userSpaceOnUse">
<stop stop-color="#F9D879"/>
<stop offset="1" stop-color="#F2C134"/>
</linearGradient>
<linearGradient id="paint8_linear_0_6374" x1="22.8744" y1="17.2117" x2="-2.34925" y2="17.2117" gradientUnits="userSpaceOnUse">
<stop stop-color="#8E0419"/>
<stop offset="0.196375" stop-color="#A3051D"/>
<stop offset="0.323745" stop-color="#C80724"/>
<stop offset="0.453388" stop-color="#C60724"/>
<stop offset="0.589855" stop-color="#C40724"/>
<stop offset="0.730871" stop-color="#A0051C"/>
<stop offset="0.885417" stop-color="#8E0419"/>
</linearGradient>
<linearGradient id="paint9_linear_0_6374" x1="21.8923" y1="18.9501" x2="1.33658" y2="18.9501" gradientUnits="userSpaceOnUse">
<stop stop-color="#690111"/>
<stop offset="0.432292" stop-color="#A20E25"/>
<stop offset="0.885417" stop-color="#8E0419"/>
</linearGradient>
<linearGradient id="paint10_linear_0_6374" x1="2.64185" y1="9.17618" x2="0.641846" y2="10.6664" gradientUnits="userSpaceOnUse">
<stop stop-color="#F6CE6C"/>
<stop offset="1" stop-color="#EBA635"/>
</linearGradient>
<linearGradient id="paint11_linear_0_6374" x1="21.3569" y1="9.17618" x2="23.3569" y2="10.6664" gradientUnits="userSpaceOnUse">
<stop stop-color="#F6CE6C"/>
<stop offset="1" stop-color="#EBA635"/>
</linearGradient>
<linearGradient id="paint12_linear_0_6374" x1="9.5645" y1="14.9856" x2="15.2499" y2="16.218" gradientUnits="userSpaceOnUse">
<stop stop-color="#FFDEA8"/>
<stop offset="1" stop-color="#C77C0E"/>
</linearGradient>
<radialGradient id="paint13_radial_0_6374" cx="0" cy="0" r="1" gradientUnits="userSpaceOnUse" gradientTransform="translate(2.47985 13.1172) rotate(73.4699) scale(0.922909)">
<stop stop-color="#F06F83"/>
<stop offset="1" stop-color="#B70621"/>
</radialGradient>
<radialGradient id="paint14_radial_0_6374" cx="0" cy="0" r="1" gradientUnits="userSpaceOnUse" gradientTransform="translate(21.0948 13.1172) rotate(73.4699) scale(0.922909)">
<stop stop-color="#F06F83"/>
<stop offset="1" stop-color="#B70621"/>
</radialGradient>
<radialGradient id="paint15_radial_0_6374" cx="0" cy="0" r="1" gradientUnits="userSpaceOnUse" gradientTransform="translate(11.5816 10.4305) rotate(73.4699) scale(1.52708)">
<stop stop-color="#F06F83"/>
<stop offset="1" stop-color="#B70621"/>
</radialGradient>
</defs>
</svg>
