<svg width="24" height="24" viewBox="0 0 24 24" fill="none" xmlns="http://www.w3.org/2000/svg">
<path d="M19.8381 16.0869C19.2756 12.1494 15.9756 9.14941 12.0006 9.14941C8.02559 9.14941 4.72559 12.1494 4.16309 16.0494H19.8381V16.0869Z" fill="url(#paint0_linear_0_6447)"/>
<path d="M23.1745 8.58815C23.0245 7.91315 22.612 7.38815 22.012 7.05065C21.7495 6.90065 21.4495 6.82565 21.1495 6.78815C20.887 6.75065 20.6245 6.78815 20.362 6.86315C19.912 6.97565 19.462 7.20065 19.0495 7.38815C18.487 7.65065 17.962 7.91315 17.4745 7.91315V9.63815C18.337 9.63815 19.1245 9.26315 19.7995 8.92565C20.512 8.58815 20.962 8.36315 21.2245 8.51315C21.412 8.62565 21.5245 8.77565 21.562 8.96315C21.5995 9.18815 21.5995 9.48815 21.5245 9.82565C21.4495 10.2006 21.262 10.6131 21.037 11.1006C20.587 12.0381 19.987 12.9381 19.537 13.6131C19.387 13.8756 19.237 14.1006 19.1245 14.2506L19.012 14.4756C19.012 14.5131 18.9745 14.5131 18.9745 14.5506H5.09951C5.09951 14.5131 5.06201 14.5131 5.06201 14.4756L4.94951 14.2506C4.83701 14.0631 4.68701 13.8381 4.53701 13.6131C4.08701 12.9381 3.48701 12.0381 3.03701 11.1006C2.81201 10.6131 2.66201 10.2006 2.54951 9.82565C2.47451 9.45065 2.43701 9.15065 2.51201 8.96315C2.54951 8.77565 2.66201 8.62565 2.84951 8.51315C3.11201 8.36315 3.56201 8.55065 4.27451 8.92565C4.94951 9.26315 5.69951 9.63815 6.59951 9.63815V7.91315C6.11201 7.91315 5.58701 7.65065 5.02451 7.38815C4.61201 7.16315 4.16201 6.97565 3.71201 6.86315C3.37451 6.78815 3.11201 6.75065 2.84951 6.78815C2.54951 6.82565 2.24951 6.90065 1.98701 7.05065C1.38701 7.38815 0.974506 7.95065 0.824506 8.58815C0.637006 9.45065 0.824506 10.5381 1.49951 11.8881C1.98701 12.9006 2.62451 13.8756 3.11201 14.5881C3.26201 14.8131 3.41201 15.0381 3.48701 15.1881C3.52451 15.2631 3.56201 15.3381 3.63701 15.4131C3.86201 15.7506 4.01201 16.0131 4.08701 16.3131V20.5506C3.97451 20.5506 3.89951 20.6257 3.89951 20.7757C3.89951 20.8882 3.97451 21.0006 4.08701 21.0006H19.9495C20.062 21.0006 20.137 20.9256 20.137 20.7757C20.137 20.6631 20.062 20.5506 19.9495 20.5506V16.3506C20.062 16.0506 20.212 15.7881 20.3995 15.4506C20.437 15.3756 20.4745 15.3006 20.5495 15.2256C20.6245 15.0756 20.7745 14.8506 20.9245 14.6256C21.3745 13.9131 22.012 12.9381 22.537 11.9256C23.1745 10.5756 23.362 9.48815 23.1745 8.58815Z" fill="url(#paint1_linear_0_6447)"/>
<path d="M4.53809 12.3012C5.43809 11.4387 7.23809 10.9887 8.43809 11.3262C7.50059 12.1887 5.73809 12.6387 4.53809 12.3012ZM19.5381 12.3012C18.3381 12.6387 16.5381 12.1887 15.6381 11.3262C16.8381 10.9887 18.6381 11.4387 19.5381 12.3012ZM9.97559 11.2887C11.0631 10.6512 12.9006 10.6512 13.9881 11.2887C12.9006 11.9262 11.1006 11.9262 9.97559 11.2887Z" fill="#F5C864"/>
<path d="M4.04883 16.7256H19.9113V17.1381H4.04883V16.7256Z" fill="#DF9C39"/>
<path d="M4.04883 17.1375C4.15238 17.1375 4.23633 17.0368 4.23633 16.9125C4.23633 16.7882 4.15238 16.6875 4.04883 16.6875C3.94527 16.6875 3.86133 16.7882 3.86133 16.9125C3.86133 17.0368 3.94527 17.1375 4.04883 17.1375Z" fill="#DF9C39"/>
<path d="M19.9482 17.1375C20.0518 17.1375 20.1357 17.0368 20.1357 16.9125C20.1357 16.7882 20.0518 16.6875 19.9482 16.6875C19.8447 16.6875 19.7607 16.7882 19.7607 16.9125C19.7607 17.0368 19.8447 17.1375 19.9482 17.1375Z" fill="#DF9C39"/>
<path d="M19.0118 7.65C18.8993 7.2375 18.7493 6.8625 18.4868 6.525C18.2243 6.1875 17.9243 5.8875 17.5118 5.6625C17.2118 5.5125 16.9118 5.4 16.5743 5.3625C16.3118 5.325 16.0118 5.3625 15.7118 5.4375C15.2243 5.55 14.7368 5.8125 14.2493 6.0375C14.1368 6.1125 13.9868 6.15 13.8368 6.225C14.1368 5.625 14.3243 5.0625 14.3243 4.6875H9.6368C9.6368 5.0625 9.8243 5.625 10.1243 6.225C9.9743 6.15 9.8618 6.1125 9.7118 6.0375C9.2243 5.8125 8.7368 5.55 8.2493 5.4375C7.9493 5.3625 7.6493 5.325 7.3868 5.3625C7.0493 5.4 6.7493 5.475 6.4493 5.6625C6.0743 5.8875 5.7368 6.1875 5.4743 6.525C5.2493 6.8625 5.0618 7.2375 4.9493 7.65C4.6868 8.7375 4.8368 10.125 5.4368 11.7375C5.8868 13.0125 6.4868 14.0625 6.7493 14.5875H8.7368C8.6618 14.4375 8.5493 14.2875 8.4743 14.1375C8.4368 14.0625 8.3618 13.9875 8.3243 13.9125C7.5368 12.6375 6.1868 9.75 6.5993 8.1C6.7118 7.6875 6.8993 7.3875 7.2743 7.2C7.3868 7.125 7.5368 7.0875 7.8743 7.1625C8.2118 7.2375 8.5868 7.425 8.9993 7.65C9.6368 7.9875 10.3493 8.325 11.1368 8.4375V14.625H12.8243V8.4375C13.6118 8.325 14.3243 7.9875 14.9993 7.65C15.4118 7.4625 15.7868 7.2375 16.1243 7.1625C16.4618 7.0875 16.6118 7.125 16.7243 7.2C17.0618 7.3875 17.2868 7.6875 17.3993 8.1C17.8118 9.75 16.4618 12.6 15.6743 13.9125C15.6368 13.9875 15.5618 14.0625 15.5243 14.1375C15.4118 14.2875 15.3368 14.4375 15.2618 14.5875H17.2493C17.5493 14.1 18.1118 13.0125 18.5618 11.7375C19.1243 10.125 19.2743 8.7375 19.0118 7.65Z" fill="#F5C864"/>
<path d="M12.0006 6.41191C11.3631 6.41191 10.8006 6.14941 10.3506 5.77441C10.4631 6.59941 11.1381 7.23691 12.0006 7.23691C12.8256 7.23691 13.5381 6.59941 13.6506 5.77441C13.2006 6.18691 12.6381 6.41191 12.0006 6.41191Z" fill="#F2B200"/>
<path fill-rule="evenodd" clip-rule="evenodd" d="M11.8781 2.04828C11.94 2.01252 12.0163 2.01255 12.0782 2.04837L14.5145 3.45784C14.5763 3.49359 14.6143 3.55957 14.6143 3.63096V6.42831C14.6143 6.50003 14.5759 6.56626 14.5137 6.60189L12.0818 7.99404C12.02 8.02941 11.944 8.02927 11.8824 7.99365L9.44567 6.58616C9.38381 6.55043 9.3457 6.48441 9.3457 6.41297V3.62586C9.3457 3.55441 9.38382 3.48839 9.4457 3.45266L11.8781 2.04828ZM9.7457 3.74133V6.29753L11.9829 7.58976L14.2143 6.31235V3.74631L11.978 2.45248L9.7457 3.74133Z" fill="#F5C864"/>
<path d="M11.9773 5.02571V2.22266L9.5509 3.62418L11.9773 5.02571Z" fill="#A0D6FF"/>
<path d="M14.4067 3.62109L11.9786 5.02262L14.4067 6.42245V3.62109Z" fill="#A0D6FF"/>
<path d="M11.9773 5.02539L9.5509 6.42522L11.9773 7.82674V5.02539Z" fill="#A0D6FF"/>
<path d="M14.4067 3.62418L11.9786 2.22266V5.02571L14.4067 3.62418Z" fill="#77C1EA"/>
<path d="M11.9786 7.82674L14.4067 6.42522L11.9786 5.02539V7.82674Z" fill="#77C1EA"/>
<path d="M9.5509 3.62109V6.42245L11.9773 5.02262L9.5509 3.62109Z" fill="#77C1EA"/>
<path d="M13.3988 5.84677V4.206L11.9769 3.38477L10.5551 4.206V5.84677L11.9769 6.668L13.3988 5.84677Z" fill="#077BE2"/>
<path fill-rule="evenodd" clip-rule="evenodd" d="M18.0513 4.24899C18.0851 4.22949 18.1267 4.2295 18.1605 4.24904L19.4895 5.0179C19.5232 5.0374 19.5439 5.07339 19.5439 5.11234V6.63828C19.5439 6.6774 19.523 6.71353 19.489 6.73297L18.1624 7.49238C18.1287 7.51168 18.0873 7.5116 18.0537 7.49217L16.7245 6.72439C16.6907 6.70489 16.6699 6.66888 16.6699 6.62991V5.10956C16.6699 5.07058 16.6907 5.03456 16.7245 5.01508L18.0513 4.24899ZM16.8881 5.17254V6.56694L18.1085 7.27185L19.3257 6.57503V5.17526L18.1058 4.46948L16.8881 5.17254Z" fill="#F5C864"/>
<path d="M18.1065 5.8739V4.34485L16.783 5.10937L18.1065 5.8739Z" fill="#A0D6FF"/>
<path d="M19.4318 5.10767L18.1073 5.87219L19.4318 6.63579V5.10767Z" fill="#A0D6FF"/>
<path d="M18.1065 5.87372L16.783 6.63732L18.1065 7.40185V5.87372Z" fill="#A0D6FF"/>
<path d="M19.4318 5.10937L18.1073 4.34485V5.8739L19.4318 5.10937Z" fill="#77C1EA"/>
<path d="M18.1073 7.40185L19.4318 6.63732L18.1073 5.87372V7.40185Z" fill="#77C1EA"/>
<path d="M16.783 5.10767V6.63579L18.1065 5.87219L16.783 5.10767Z" fill="#77C1EA"/>
<path d="M18.8807 6.32104V5.42601L18.1051 4.97803L17.3295 5.42601V6.32104L18.1051 6.76902L18.8807 6.32104Z" fill="#077BE2"/>
<path fill-rule="evenodd" clip-rule="evenodd" d="M5.79839 4.24899C5.83217 4.22949 5.8738 4.2295 5.90757 4.24904L7.23654 5.0179C7.27025 5.0374 7.29101 5.07339 7.29101 5.11234V6.63828C7.29101 6.6774 7.27006 6.71353 7.23611 6.73297L5.90951 7.49238C5.8758 7.51168 5.83438 7.5116 5.80074 7.49217L4.47152 6.72439C4.43778 6.70489 4.41699 6.66888 4.41699 6.62991V5.10956C4.41699 5.07058 4.43779 5.03456 4.47154 5.01508L5.79839 4.24899ZM4.63519 5.17254V6.56694L5.85555 7.27185L7.07281 6.57503V5.17526L5.85288 4.46948L4.63519 5.17254Z" fill="#F5C864"/>
<path d="M5.8536 5.8739V4.34485L4.53003 5.10937L5.8536 5.8739Z" fill="#A0D6FF"/>
<path d="M7.17887 5.10767L5.85437 5.87219L7.17887 6.63579V5.10767Z" fill="#A0D6FF"/>
<path d="M5.8536 5.87372L4.53003 6.63732L5.8536 7.40185V5.87372Z" fill="#A0D6FF"/>
<path d="M7.17887 5.10937L5.85437 4.34485V5.8739L7.17887 5.10937Z" fill="#77C1EA"/>
<path d="M5.85437 7.40185L7.17887 6.63732L5.85437 5.87372V7.40185Z" fill="#77C1EA"/>
<path d="M4.53003 5.10767V6.63579L5.8536 5.87219L4.53003 5.10767Z" fill="#77C1EA"/>
<path d="M6.6278 6.32104V5.42601L5.85217 4.97803L5.07654 5.42601V6.32104L5.85217 6.76902L6.6278 6.32104Z" fill="#077BE2"/>
<circle cx="1.55815" cy="7.50542" r="0.731981" fill="url(#paint2_radial_0_6447)"/>
<circle cx="9.82183" cy="14.6246" r="0.731981" fill="url(#paint3_radial_0_6447)"/>
<circle cx="5.07768" cy="14.6246" r="0.731981" fill="url(#paint4_radial_0_6447)"/>
<circle cx="19.1078" cy="14.6246" r="0.731981" fill="url(#paint5_radial_0_6447)"/>
<circle cx="14.1304" cy="14.6246" r="0.731981" fill="url(#paint6_radial_0_6447)"/>
<circle cx="0.731981" cy="0.731981" r="0.731981" transform="matrix(-1 0 0 1 23.2441 6.77344)" fill="url(#paint7_radial_0_6447)"/>
<path fill-rule="evenodd" clip-rule="evenodd" d="M11.9008 15.583C11.9483 15.5556 12.0068 15.5557 12.0543 15.5831L13.9224 16.6639C13.9698 16.6913 13.9989 16.7419 13.9989 16.7966V18.9416C13.9989 18.9966 13.9695 19.0474 13.9218 19.0747L12.057 20.1422C12.0096 20.1693 11.9514 20.1692 11.9041 20.1419L10.0356 19.0627C9.9882 19.0353 9.95898 18.9846 9.95898 18.9299V16.7927C9.95898 16.7379 9.98821 16.6873 10.0357 16.6599L11.9008 15.583ZM10.2657 16.8813V18.8413L11.9811 19.8322L13.6922 18.8527V16.8851L11.9774 15.893L10.2657 16.8813Z" fill="#F5C864"/>
<path d="M11.9767 17.8661V15.7167L10.1162 16.7914L11.9767 17.8661Z" fill="#A0D6FF"/>
<path d="M13.8397 16.7893L11.9779 17.864L13.8397 18.9374V16.7893Z" fill="#A0D6FF"/>
<path d="M11.9769 17.8661L10.1163 18.9395L11.9769 20.0142V17.8661Z" fill="#A0D6FF"/>
<path d="M13.8397 16.7917L11.9779 15.717V17.8663L13.8397 16.7917Z" fill="#77C1EA"/>
<path d="M11.9779 20.0142L13.8397 18.9395L11.9779 17.8661V20.0142Z" fill="#77C1EA"/>
<path d="M10.1163 16.7893V18.9374L11.9769 17.864L10.1163 16.7893Z" fill="#77C1EA"/>
<path d="M13.0666 18.4957V17.2376L11.9763 16.6078L10.886 17.2376V18.4957L11.9763 19.1254L13.0666 18.4957Z" fill="#077BE2"/>
<path fill-rule="evenodd" clip-rule="evenodd" d="M6.8018 16.6186C6.82772 16.6037 6.85965 16.6037 6.88555 16.6187L7.90496 17.2084C7.93081 17.2234 7.94673 17.251 7.94673 17.2809V18.4514C7.94673 18.4814 7.93067 18.5091 7.90462 18.524L6.88704 19.1065C6.86118 19.1213 6.82941 19.1212 6.80361 19.1063L5.78402 18.5174C5.75813 18.5025 5.74219 18.4748 5.74219 18.4449V17.2787C5.74219 17.2488 5.75814 17.2212 5.78403 17.2063L6.8018 16.6186ZM5.90956 17.3271V18.3966L6.84565 18.9373L7.77936 18.4028V17.3291L6.8436 16.7878L5.90956 17.3271Z" fill="#F5C864"/>
<path d="M6.84375 17.8645V16.6916L5.82849 17.278L6.84375 17.8645Z" fill="#A0D6FF"/>
<path d="M7.86033 17.2769L6.84436 17.8634L7.86033 18.4491V17.2769Z" fill="#A0D6FF"/>
<path d="M6.84388 17.8647L5.82861 18.4504L6.84388 19.0369V17.8647Z" fill="#A0D6FF"/>
<path d="M7.86033 17.2782L6.84436 16.6918V17.8646L7.86033 17.2782Z" fill="#77C1EA"/>
<path d="M6.84436 19.0369L7.86033 18.4504L6.84436 17.8647V19.0369Z" fill="#77C1EA"/>
<path d="M5.82861 17.2769V18.4491L6.84388 17.8634L5.82861 17.2769Z" fill="#77C1EA"/>
<path d="M7.43833 18.2078V17.5212L6.84337 17.1776L6.24841 17.5212V18.2078L6.84337 18.5514L7.43833 18.2078Z" fill="#077BE2"/>
<path fill-rule="evenodd" clip-rule="evenodd" d="M17.0694 16.6186C17.0953 16.6037 17.1272 16.6037 17.1531 16.6187L18.1725 17.2084C18.1984 17.2234 18.2143 17.251 18.2143 17.2809V18.4514C18.2143 18.4814 18.1982 18.5091 18.1722 18.524L17.1546 19.1065C17.1288 19.1213 17.097 19.1212 17.0712 19.1063L16.0516 18.5174C16.0257 18.5025 16.0098 18.4748 16.0098 18.4449V17.2787C16.0098 17.2488 16.0257 17.2212 16.0516 17.2063L17.0694 16.6186ZM16.1771 17.3271V18.3966L17.1132 18.9373L18.0469 18.4028V17.3291L17.1112 16.7878L16.1771 17.3271Z" fill="#F5C864"/>
<path d="M17.1113 17.8645V16.6916L16.0961 17.278L17.1113 17.8645Z" fill="#A0D6FF"/>
<path d="M18.1279 17.2769L17.1119 17.8634L18.1279 18.4491V17.2769Z" fill="#A0D6FF"/>
<path d="M17.1115 17.8647L16.0962 18.4504L17.1115 19.0369V17.8647Z" fill="#A0D6FF"/>
<path d="M18.1279 17.2782L17.1119 16.6918V17.8646L18.1279 17.2782Z" fill="#77C1EA"/>
<path d="M17.1119 19.0369L18.1279 18.4504L17.1119 17.8647V19.0369Z" fill="#77C1EA"/>
<path d="M16.0962 17.2769V18.4491L17.1115 17.8634L16.0962 17.2769Z" fill="#77C1EA"/>
<path d="M17.7059 18.2078V17.5212L17.1109 17.1776L16.516 17.5212V18.2078L17.1109 18.5514L17.7059 18.2078Z" fill="#077BE2"/>
<defs>
<linearGradient id="paint0_linear_0_6447" x1="12.0006" y1="9.14941" x2="12.0006" y2="16.0869" gradientUnits="userSpaceOnUse">
<stop stop-color="#6ED4FC"/>
<stop offset="1" stop-color="#005DC1"/>
</linearGradient>
<linearGradient id="paint1_linear_0_6447" x1="0.755859" y1="13.8857" x2="23.2414" y2="13.8857" gradientUnits="userSpaceOnUse">
<stop stop-color="#F3BD5D"/>
<stop offset="0.1" stop-color="#E1AA3F"/>
<stop offset="0.19" stop-color="#F5D46B"/>
<stop offset="0.34" stop-color="#FFEBA4"/>
<stop offset="0.49" stop-color="#FFEBA4"/>
<stop offset="0.63" stop-color="#E5951F"/>
<stop offset="0.796875" stop-color="#E6951F"/>
<stop offset="1" stop-color="#ECB773"/>
</linearGradient>
<radialGradient id="paint2_radial_0_6447" cx="0" cy="0" r="1" gradientUnits="userSpaceOnUse" gradientTransform="translate(1.12367 6.77344) rotate(73.4699) scale(1.52708)">
<stop stop-color="#62C7F6"/>
<stop offset="1" stop-color="#2282D4"/>
</radialGradient>
<radialGradient id="paint3_radial_0_6447" cx="0" cy="0" r="1" gradientUnits="userSpaceOnUse" gradientTransform="translate(9.38734 13.8926) rotate(73.4699) scale(1.52708)">
<stop stop-color="#62C7F6"/>
<stop offset="1" stop-color="#2282D4"/>
</radialGradient>
<radialGradient id="paint4_radial_0_6447" cx="0" cy="0" r="1" gradientUnits="userSpaceOnUse" gradientTransform="translate(4.6432 13.8926) rotate(73.4699) scale(1.52708)">
<stop stop-color="#62C7F6"/>
<stop offset="1" stop-color="#2282D4"/>
</radialGradient>
<radialGradient id="paint5_radial_0_6447" cx="0" cy="0" r="1" gradientUnits="userSpaceOnUse" gradientTransform="translate(18.6734 13.8926) rotate(73.4699) scale(1.52708)">
<stop stop-color="#62C7F6"/>
<stop offset="1" stop-color="#2282D4"/>
</radialGradient>
<radialGradient id="paint6_radial_0_6447" cx="0" cy="0" r="1" gradientUnits="userSpaceOnUse" gradientTransform="translate(13.6959 13.8926) rotate(73.4699) scale(1.52708)">
<stop stop-color="#62C7F6"/>
<stop offset="1" stop-color="#2282D4"/>
</radialGradient>
<radialGradient id="paint7_radial_0_6447" cx="0" cy="0" r="1" gradientUnits="userSpaceOnUse" gradientTransform="translate(0.2975) rotate(73.4699) scale(1.52708)">
<stop stop-color="#62C7F6"/>
<stop offset="1" stop-color="#2282D4"/>
</radialGradient>
</defs>
</svg>
