<svg width="24" height="24" viewBox="0 0 24 24" fill="none" xmlns="http://www.w3.org/2000/svg">
<path d="M2.87891 15.0692C2.87891 15.0692 5.55374 12.334 6.14099 7.21184C6.14099 7.21184 8.92191 12.9152 10.6344 13.1481L8.97684 16.0009L2.87891 15.0692Z" fill="url(#paint0_linear_0_1806)"/>
<path d="M21.168 15.0692C21.168 15.0692 18.4931 12.334 17.9059 7.21184C17.9059 7.21184 15.125 12.9152 13.4125 13.1481L15.07 16.0009L21.168 15.0692Z" fill="url(#paint1_linear_0_1806)"/>
<path d="M6.35547 9.25383C7.1839 9.25383 7.85547 8.58226 7.85547 7.75383C7.85547 6.9254 7.1839 6.25383 6.35547 6.25383C5.52704 6.25383 4.85547 6.9254 4.85547 7.75383C4.85547 8.58226 5.52704 9.25383 6.35547 9.25383Z" fill="url(#paint2_linear_0_1806)"/>
<path d="M17.6445 9.25427C18.473 9.25427 19.1445 8.5827 19.1445 7.75427C19.1445 6.92585 18.473 6.25427 17.6445 6.25427C16.8161 6.25427 16.1445 6.92585 16.1445 7.75427C16.1445 8.5827 16.8161 9.25427 17.6445 9.25427Z" fill="url(#paint3_linear_0_1806)"/>
<path d="M3.57666 18.446C3.57666 18.446 3.00194 16.2031 2.86835 15.0099C2.73476 13.8167 1.29639 9.68597 1.29639 9.68597C1.29639 9.68597 2.3309 12.7316 5.73268 12.8753C9.13445 13.0189 10.7903 8.43695 11.1926 6.91075C11.5949 5.38287 11.9988 2.85442 11.9988 2.85442C11.9988 2.85442 12.2225 11.3017 17.8175 12.8279C20.6368 13.5446 22.3377 10.2505 22.8751 8.86625C22.8751 8.86625 22.1808 11.0364 21.7785 12.5643C21.3762 14.0922 20.9444 15.4392 20.9444 17.1091C20.9444 18.7789 20.9894 19.3992 20.9894 19.3992C20.9894 19.3992 19.652 21.0826 11.9988 21.0826C4.34556 21.0826 3.57822 18.4443 3.57822 18.4443L3.57666 18.446Z" fill="url(#paint4_linear_0_1806)"/>
<path d="M2.83107 19.7221C2.83107 19.7221 2.9631 16.3333 2.83107 15.1401C2.69904 13.9469 1.29639 10.0359 1.29639 9.60659C1.29639 9.17729 2.52507 13.3283 5.85694 13.4719C9.18882 13.6156 10.8136 9.03363 11.2081 7.50743C11.6027 5.98124 11.9972 3.4511 11.9972 3.4511C11.9972 3.4511 12.2162 11.8984 17.6995 13.4246C20.4628 14.1412 22.4356 9.59476 22.6561 9.46293C22.8767 9.3311 22.2181 11.5148 21.8235 13.0426C21.429 14.5705 21.1649 15.7621 21.1649 17.4336C21.1649 19.1052 21.2084 19.7238 21.2084 19.7238C21.2084 19.7238 19.4982 21.681 11.9988 21.681C4.49934 21.681 2.83262 19.7238 2.83262 19.7238L2.83107 19.7221Z" fill="url(#paint5_linear_0_1806)"/>
<path d="M12 6.53552C13.1046 6.53552 14 5.64009 14 4.53552C14 3.43095 13.1046 2.53552 12 2.53552C10.8954 2.53552 10 3.43095 10 4.53552C10 5.64009 10.8954 6.53552 12 6.53552Z" fill="url(#paint6_linear_0_1806)"/>
<path d="M2.86638 18.4662C2.84929 19.1862 2.8291 19.7236 2.8291 19.7236C2.8291 19.7236 4.49582 21.6808 11.9953 21.6808C19.4947 21.6808 21.2049 19.7236 21.2049 19.7236C21.2049 19.7236 21.1801 19.3653 21.1676 18.4628C19.8613 19.0341 17.1632 19.7828 11.9953 19.7828C6.82735 19.7828 4.16341 19.0374 2.86638 18.4679V18.4662Z" fill="url(#paint7_linear_0_1806)"/>
<path d="M1.63916 10.6664C1.08688 10.6664 0.63916 10.2187 0.63916 9.66638C0.63916 9.1141 1.08688 8.66638 1.63916 8.66638C2.19144 8.66638 2.63916 9.1141 2.63916 9.66638C2.63916 10.2187 2.19144 10.6664 1.63916 10.6664Z" fill="url(#paint8_linear_0_1806)"/>
<path d="M22.3579 10.6664C22.9102 10.6664 23.3579 10.2187 23.3579 9.66638C23.3579 9.1141 22.9102 8.66638 22.3579 8.66638C21.8056 8.66638 21.3579 9.1141 21.3579 9.66638C21.3579 10.2187 21.8056 10.6664 22.3579 10.6664Z" fill="url(#paint9_linear_0_1806)"/>
<path fill-rule="evenodd" clip-rule="evenodd" d="M14.3398 19.39C17.2172 19.2436 19.0611 18.8413 20.1619 18.4921H20.1603C20.5673 18.3637 20.8966 18.2352 21.1638 18.1152C21.1653 18.2454 21.1669 18.3688 21.1684 18.482C20.0424 18.9642 17.9577 19.5487 14.3398 19.7293V20.043C14.3398 20.3191 14.116 20.543 13.8398 20.543H10.1523C9.8762 20.543 9.65234 20.3191 9.65234 20.043V19.7294C6.04415 19.5494 3.98516 18.9674 2.86719 18.4854C2.86884 18.4226 2.87005 18.3584 2.87129 18.2927C2.87238 18.2347 2.8735 18.1755 2.87495 18.1152C3.92556 18.5864 5.96664 19.202 9.65234 19.39V18.9629C9.65234 18.6867 9.8762 18.4629 10.1523 18.4629H13.8398C14.116 18.4629 14.3398 18.6867 14.3398 18.9629V19.39Z" fill="#70798D"/>
<rect x="9.65234" y="18.4629" width="4.6875" height="2.08008" rx="0.5" fill="url(#paint10_linear_0_1806)"/>
<path fill-rule="evenodd" clip-rule="evenodd" d="M10.1516 18.1621H13.8391C14.2809 18.1621 14.6391 18.5203 14.6391 18.9621V20.0422C14.6391 20.484 14.2809 20.8422 13.8391 20.8422H10.1516C9.70973 20.8422 9.35156 20.484 9.35156 20.0422V18.9621C9.35156 18.5203 9.70973 18.1621 10.1516 18.1621ZM10.1516 18.4621C9.87542 18.4621 9.65156 18.686 9.65156 18.9621V20.0422C9.65156 20.3183 9.87542 20.5422 10.1516 20.5422H13.8391C14.1152 20.5422 14.3391 20.3183 14.3391 20.0422V18.9621C14.3391 18.686 14.1152 18.4621 13.8391 18.4621H10.1516Z" fill="url(#paint11_linear_0_1806)"/>
<defs>
<linearGradient id="paint0_linear_0_1806" x1="2.87891" y1="11.6063" x2="10.6344" y2="11.6063" gradientUnits="userSpaceOnUse">
<stop stop-color="#C0CCE1"/>
<stop offset="1" stop-color="#757F9B"/>
</linearGradient>
<linearGradient id="paint1_linear_0_1806" x1="21.168" y1="11.6063" x2="13.4125" y2="11.6063" gradientUnits="userSpaceOnUse">
<stop stop-color="#C0CCE1"/>
<stop offset="1" stop-color="#757F9B"/>
</linearGradient>
<linearGradient id="paint2_linear_0_1806" x1="5.22122" y1="6.75204" x2="7.85547" y2="9.00107" gradientUnits="userSpaceOnUse">
<stop stop-color="#ABB3C9"/>
<stop offset="1" stop-color="#7D879E"/>
</linearGradient>
<linearGradient id="paint3_linear_0_1806" x1="16.5103" y1="6.75248" x2="19.1445" y2="9.00151" gradientUnits="userSpaceOnUse">
<stop stop-color="#ABB3C9"/>
<stop offset="1" stop-color="#7D879E"/>
</linearGradient>
<linearGradient id="paint4_linear_0_1806" x1="11.7512" y1="10.3687" x2="19.0848" y2="11.9687" gradientUnits="userSpaceOnUse">
<stop stop-color="#D9E2F4"/>
<stop offset="1" stop-color="#D3DCEF"/>
</linearGradient>
<linearGradient id="paint5_linear_0_1806" x1="1.29639" y1="12.5643" x2="22.6981" y2="12.5643" gradientUnits="userSpaceOnUse">
<stop stop-color="#AEB7D6"/>
<stop offset="0.1" stop-color="#BCCAE4"/>
<stop offset="0.19" stop-color="#BECAE0"/>
<stop offset="0.34" stop-color="#D8DFF2"/>
<stop offset="0.49" stop-color="#D8DFF0"/>
<stop offset="0.63" stop-color="#9DA4C2"/>
<stop offset="0.817708" stop-color="#707996"/>
<stop offset="0.947917" stop-color="#8C98B2"/>
<stop offset="1" stop-color="#DAE3FF"/>
</linearGradient>
<linearGradient id="paint6_linear_0_1806" x1="10" y1="3.94156" x2="14" y2="5.69783" gradientUnits="userSpaceOnUse">
<stop stop-color="#BCC2D6"/>
<stop offset="1" stop-color="#8490AB"/>
</linearGradient>
<linearGradient id="paint7_linear_0_1806" x1="2.8291" y1="20.0715" x2="21.2031" y2="20.0715" gradientUnits="userSpaceOnUse">
<stop stop-color="#AEB7D6"/>
<stop offset="0.1" stop-color="#BCCAE4"/>
<stop offset="0.19" stop-color="#BECAE0"/>
<stop offset="0.34" stop-color="#D8DFF2"/>
<stop offset="0.49" stop-color="#D8DFF0"/>
<stop offset="0.63" stop-color="#9DA4C2"/>
<stop offset="0.817708" stop-color="#707996"/>
<stop offset="0.947917" stop-color="#8C98B2"/>
<stop offset="1" stop-color="#DAE3FF"/>
</linearGradient>
<linearGradient id="paint8_linear_0_1806" x1="2.63805" y1="9.66638" x2="1.01917" y2="10.5201" gradientUnits="userSpaceOnUse">
<stop stop-color="#B8C1D8"/>
<stop offset="1" stop-color="#8C97B1"/>
</linearGradient>
<linearGradient id="paint9_linear_0_1806" x1="21.359" y1="9.66638" x2="22.9779" y2="10.5201" gradientUnits="userSpaceOnUse">
<stop stop-color="#B8C1D8"/>
<stop offset="1" stop-color="#8C97B1"/>
</linearGradient>
<linearGradient id="paint10_linear_0_1806" x1="11.9961" y1="17.9878" x2="11.9961" y2="20.8837" gradientUnits="userSpaceOnUse">
<stop stop-color="#707889"/>
<stop offset="0.600177" stop-color="#A8B1C4"/>
<stop offset="1" stop-color="#8890A5"/>
<stop offset="1" stop-color="#707889"/>
</linearGradient>
<linearGradient id="paint11_linear_0_1806" x1="11.9953" y1="18.1621" x2="11.9953" y2="20.8422" gradientUnits="userSpaceOnUse">
<stop stop-color="#818B9F"/>
<stop offset="1" stop-color="#70798D"/>
</linearGradient>
</defs>
</svg>
