<svg width="20" height="20" viewBox="0 0 20 20" fill="none" xmlns="http://www.w3.org/2000/svg">
<circle cx="10" cy="10" r="10" fill="#D9F9FF"/>
<g clip-path="url(#clip0_0_1808)">
<path fill-rule="evenodd" clip-rule="evenodd" d="M11.3286 4.90942C10.9143 4.90942 10.5786 5.24521 10.5786 5.65942C10.5786 6.07364 10.9143 6.40942 11.3286 6.40942H12.4988L10.7159 8.18663C10.131 7.80945 9.43431 7.59058 8.68652 7.59058C6.61546 7.59058 4.93652 9.26951 4.93652 11.3406C4.93652 13.4116 6.61546 15.0906 8.68652 15.0906C10.7576 15.0906 12.4365 13.4116 12.4365 11.3406C12.4365 10.5598 12.1979 9.83472 11.7896 9.23434L13.5635 7.46605V8.69657C13.5635 9.11078 13.8992 9.44657 14.3135 9.44657C14.7277 9.44657 15.0635 9.11078 15.0635 8.69657V5.65942C15.0635 5.24521 14.7277 4.90942 14.3135 4.90942H11.3286ZM6.43652 11.3406C6.43652 10.0979 7.44388 9.09058 8.68652 9.09058C9.92916 9.09058 10.9365 10.0979 10.9365 11.3406C10.9365 12.5832 9.92916 13.5906 8.68652 13.5906C7.44388 13.5906 6.43652 12.5832 6.43652 11.3406Z" fill="#4EC9E0"/>
</g>
<defs>
<clipPath id="clip0_0_1808">
<rect width="12" height="12" fill="white" transform="translate(4 4)"/>
</clipPath>
</defs>
</svg>
