<svg width="24" height="24" viewBox="0 0 24 24" fill="none" xmlns="http://www.w3.org/2000/svg">
<path d="M3 17.5C2.44772 17.5 2 17.0523 2 16.5L2 15.5C2 14.9477 2.44772 14.5 3 14.5H9C9.55228 14.5 10 14.9477 10 15.5V16.5C10 17.0523 9.55228 17.5 9 17.5H3Z" fill="#737373"/>
<path d="M15.5 17.5V19C15.5 19.5523 15.0523 20 14.5 20H13.5C12.9477 20 12.5 19.5523 12.5 19V13C12.5 12.4477 12.9477 12 13.5 12H14.5C15.0523 12 15.5 12.4477 15.5 13V14.5H21C21.5523 14.5 22 14.9477 22 15.5V16.5C22 17.0523 21.5523 17.5 21 17.5H15.5Z" fill="#737373"/>
<path d="M13 9.5C12.4477 9.5 12 9.05228 12 8.5V7.5C12 6.94771 12.4477 6.5 13 6.5L21 6.5C21.5523 6.5 22 6.94772 22 7.5V8.5C22 9.05229 21.5523 9.5 21 9.5L13 9.5Z" fill="#737373"/>
<path d="M2 8.5C2 9.05228 2.44772 9.5 3 9.5H6.5V11C6.5 11.5523 6.94772 12 7.5 12H8.5C9.05228 12 9.5 11.5523 9.5 11V5C9.5 4.44771 9.05228 4 8.5 4H7.5C6.94772 4 6.5 4.44771 6.5 5V6.5H3C2.44772 6.5 2 6.94771 2 7.5V8.5Z" fill="#737373"/>
</svg>
