<svg width="20" height="20" viewBox="0 0 20 20" fill="none" xmlns="http://www.w3.org/2000/svg">
<g clip-path="url(#clip0_0_7122)">
<path fill-rule="evenodd" clip-rule="evenodd" d="M0.835938 10.0007C0.835938 4.93804 4.93999 0.833984 10.0026 0.833984C15.0652 0.833984 19.1693 4.93804 19.1693 10.0007C19.1693 15.0633 15.0652 19.1673 10.0026 19.1673C4.93999 19.1673 0.835938 15.0633 0.835938 10.0007ZM8.3848 5.04688C8.35826 4.56921 8.73845 4.16732 9.21685 4.16732H10.7884C11.2668 4.16732 11.6469 4.56921 11.6204 5.04688L11.2963 10.8802C11.2718 11.3218 10.9066 11.6673 10.4643 11.6673H9.54093C9.09865 11.6673 8.73341 11.3218 8.70888 10.8802L8.3848 5.04688ZM11.6693 14.1673C11.6693 15.0878 10.9231 15.834 10.0026 15.834C9.08213 15.834 8.33594 15.0878 8.33594 14.1673C8.33594 13.2468 9.08213 12.5007 10.0026 12.5007C10.9231 12.5007 11.6693 13.2468 11.6693 14.1673Z" fill="#262626"/>
</g>
<defs>
<clipPath id="clip0_0_7122">
<rect width="20" height="20" fill="white"/>
</clipPath>
</defs>
</svg>
