<svg width="24" height="24" viewBox="0 0 24 24" fill="none" xmlns="http://www.w3.org/2000/svg">
<circle cx="12" cy="12" r="12" transform="rotate(-90 12 12)" fill="#D9F7F6"/>
<path d="M7.00146 8.94391C7.00146 8.63709 7.25019 8.38835 7.55701 8.38835L13.6681 8.38828L13.6681 6.99945C13.6681 6.77475 13.8035 6.57217 14.0111 6.48618C14.2187 6.40019 14.4576 6.44772 14.6165 6.60661L16.8388 8.82884C17.0557 9.04579 17.0557 9.39755 16.8388 9.61451L14.6165 11.8367C14.4576 11.9956 14.2187 12.0432 14.0111 11.9572C13.8035 11.8712 13.6681 11.6686 13.6681 11.4439L13.6681 10.0549L7.55703 10.055C7.25021 10.055 7.00147 9.80629 7.00147 9.49947L7.00146 8.94391Z" fill="#03C9C3"/>
<path d="M10.3348 16.9995C10.3348 17.2242 10.1994 17.4267 9.99184 17.5127C9.78425 17.5987 9.54529 17.5512 9.38641 17.3923L7.6047 15.6106L7.55702 15.6106L7.55702 15.5629L7.16418 15.1701C6.94723 14.9531 6.94723 14.6013 7.16418 14.3844L7.55702 13.9916L7.55702 13.9439L7.60466 13.9439L9.38641 12.1622C9.54529 12.0033 9.78425 11.9558 9.99184 12.0417C10.1994 12.1277 10.3348 12.3303 10.3348 12.555L10.3348 13.9439L16.4459 13.9439C16.7527 13.9439 17.0015 14.1926 17.0015 14.4995L17.0015 15.055C17.0015 15.3618 16.7527 15.6106 16.4459 15.6106L10.3348 15.6106L10.3348 16.9995Z" fill="#03C9C3"/>
</svg>
