<svg width="42" height="42" viewBox="0 0 42 42" fill="none" xmlns="http://www.w3.org/2000/svg">
<circle cx="21" cy="21" r="19.5" fill="#FAFAFA" stroke="white" stroke-width="3"/>
<path d="M25.5832 13.5C26.0434 13.5 26.4165 13.8731 26.4165 14.3333L26.4166 23.5H28.4999C28.8369 23.5 29.1408 23.7031 29.2698 24.0145C29.3987 24.3258 29.3274 24.6843 29.0891 24.9226L25.7558 28.2559C25.4303 28.5814 24.9027 28.5814 24.5773 28.2559L21.2439 24.9226C21.0056 24.6843 20.9343 24.3258 21.0633 24.0145C21.1923 23.7031 21.4961 23.5 21.8332 23.5H23.9166L23.9165 14.3334C23.9165 13.8731 24.2896 13.5 24.7498 13.5L25.5832 13.5Z" fill="#171717"/>
<path d="M13.4999 18.5C13.1628 18.5 12.8589 18.297 12.73 17.9856C12.601 17.6742 12.6723 17.3157 12.9106 17.0774L15.5832 14.4048V14.3333H15.6547L16.2439 13.7441C16.5694 13.4186 17.097 13.4186 17.4225 13.7441L18.0117 14.3333H18.0832V14.4048L20.7558 17.0774C20.9941 17.3157 21.0654 17.6742 20.9364 17.9856C20.8074 18.297 20.5036 18.5 20.1665 18.5H18.0832L18.0832 27.6667C18.0832 28.1269 17.7101 28.5 17.2498 28.5H16.4165C15.9563 28.5 15.5832 28.1269 15.5832 27.6667L15.5832 18.5H13.4999Z" fill="#171717"/>
</svg>
