<svg width="40" height="40" viewBox="0 0 40 40" fill="none" xmlns="http://www.w3.org/2000/svg">
<g clip-path="url(#clip0_0_6838)">
<path d="M19.9997 37.4995C29.1277 37.4995 36.5275 30.0998 36.5275 20.9717C36.5275 11.8437 29.1277 4.44397 19.9997 4.44397C10.8717 4.44397 3.47192 11.8437 3.47192 20.9717C3.47192 30.0998 10.8717 37.4995 19.9997 37.4995Z" fill="#03B5B0"/>
<path d="M19.9999 35.5556C29.128 35.5556 36.5277 28.1558 36.5277 19.0278C36.5277 9.89974 29.128 2.5 19.9999 2.5C10.8719 2.5 3.47217 9.89974 3.47217 19.0278C3.47217 28.1558 10.8719 35.5556 19.9999 35.5556Z" fill="#B1EEEC"/>
<path d="M20.0005 33.6102C27.5177 33.6102 33.6116 27.5163 33.6116 19.9991C33.6116 12.4818 27.5177 6.38794 20.0005 6.38794C12.4833 6.38794 6.3894 12.4818 6.3894 19.9991C6.3894 27.5163 12.4833 33.6102 20.0005 33.6102Z" fill="#D9F7F6"/>
<path d="M20.0005 32.6389C27.5177 32.6389 33.6116 26.545 33.6116 19.0278C33.6116 11.5106 27.5177 5.41667 20.0005 5.41667C12.4833 5.41667 6.3894 11.5106 6.3894 19.0278C6.3894 26.545 12.4833 32.6389 20.0005 32.6389Z" fill="#03C9C3"/>
<path fill-rule="evenodd" clip-rule="evenodd" d="M16.8842 12.6318C17.8072 11.7087 19.0591 11.1902 20.3645 11.1902C21.6699 11.1902 22.9218 11.7087 23.8448 12.6318C24.7678 13.5548 25.2864 14.8067 25.2864 16.1121C25.2864 17.0182 24.5518 17.7527 23.6458 17.7527C22.7397 17.7527 22.0051 17.0182 22.0051 16.1121C22.0051 15.6769 21.8323 15.2596 21.5246 14.952C21.2169 14.6443 20.7996 14.4714 20.3645 14.4714C19.9294 14.4714 19.5121 14.6443 19.2044 14.952C18.8967 15.2596 18.7239 15.6769 18.7239 16.1121V22.6746C18.7239 23.1097 18.8967 23.527 19.2044 23.8347C19.5121 24.1423 19.9294 24.3152 20.3645 24.3152C20.7996 24.3152 21.2169 24.1423 21.5246 23.8347C21.8323 23.527 22.0051 23.1097 22.0051 22.6746C22.0051 21.7685 22.7397 21.0339 23.6458 21.0339C24.5518 21.0339 25.2864 21.7685 25.2864 22.6746C25.2864 23.9799 24.7678 25.2318 23.8448 26.1549C22.9218 27.0779 21.6699 27.5964 20.3645 27.5964C19.0591 27.5964 17.8072 27.0779 16.8842 26.1549C15.9612 25.2318 15.4426 23.9799 15.4426 22.6746V16.1121C15.4426 14.8067 15.9612 13.5548 16.8842 12.6318Z" fill="#03B5B0"/>
<path fill-rule="evenodd" clip-rule="evenodd" d="M16.8842 11.9026C17.8072 10.9796 19.0591 10.461 20.3645 10.461C21.6699 10.461 22.9218 10.9796 23.8448 11.9026C24.7678 12.8256 25.2864 14.0775 25.2864 15.3829C25.2864 16.289 24.5518 17.0235 23.6458 17.0235C22.7397 17.0235 22.0051 16.289 22.0051 15.3829C22.0051 14.9478 21.8323 14.5305 21.5246 14.2228C21.2169 13.9151 20.7996 13.7423 20.3645 13.7423C19.9294 13.7423 19.5121 13.9151 19.2044 14.2228C18.8967 14.5305 18.7239 14.9478 18.7239 15.3829V21.9454C18.7239 22.3805 18.8967 22.7978 19.2044 23.1055C19.5121 23.4132 19.9294 23.586 20.3645 23.586C20.7996 23.586 21.2169 23.4132 21.5246 23.1055C21.8323 22.7978 22.0051 22.3805 22.0051 21.9454C22.0051 21.0393 22.7397 20.3048 23.6458 20.3048C24.5518 20.3048 25.2864 21.0393 25.2864 21.9454C25.2864 23.2508 24.7678 24.5027 23.8448 25.4257C22.9218 26.3487 21.6699 26.8673 20.3645 26.8673C19.0591 26.8673 17.8072 26.3487 16.8842 25.4257C15.9612 24.5027 15.4426 23.2508 15.4426 21.9454V15.3829C15.4426 14.0775 15.9612 12.8256 16.8842 11.9026Z" fill="#E6FAF9"/>
</g>
<defs>
<clipPath id="clip0_0_6838">
<rect width="35" height="35" fill="white" transform="translate(2.5 2.5)"/>
</clipPath>
</defs>
</svg>
