<svg width="40" height="40" viewBox="0 0 40 40" fill="none" xmlns="http://www.w3.org/2000/svg">
<g clip-path="url(#clip0_0_5512)">
<path d="M19.9997 37.4995C29.1277 37.4995 36.5275 30.0998 36.5275 20.9717C36.5275 11.8437 29.1277 4.44397 19.9997 4.44397C10.8717 4.44397 3.47192 11.8437 3.47192 20.9717C3.47192 30.0998 10.8717 37.4995 19.9997 37.4995Z" fill="#03B5B0"/>
<path d="M19.9999 35.5556C29.128 35.5556 36.5277 28.1558 36.5277 19.0278C36.5277 9.89974 29.128 2.5 19.9999 2.5C10.8719 2.5 3.47217 9.89974 3.47217 19.0278C3.47217 28.1558 10.8719 35.5556 19.9999 35.5556Z" fill="#B1EEEC"/>
<path d="M20.0005 33.6102C27.5177 33.6102 33.6116 27.5163 33.6116 19.9991C33.6116 12.4818 27.5177 6.38794 20.0005 6.38794C12.4833 6.38794 6.3894 12.4818 6.3894 19.9991C6.3894 27.5163 12.4833 33.6102 20.0005 33.6102Z" fill="#D9F7F6"/>
<path d="M20.0005 32.6389C27.5177 32.6389 33.6116 26.545 33.6116 19.0278C33.6116 11.5106 27.5177 5.41669 20.0005 5.41669C12.4833 5.41669 6.3894 11.5106 6.3894 19.0278C6.3894 26.545 12.4833 32.6389 20.0005 32.6389Z" fill="#03C9C3"/>
<path fill-rule="evenodd" clip-rule="evenodd" d="M13.0024 14.2455C13.7989 13.98 14.6598 14.4105 14.9253 15.2069L16.7407 20.6529L18.556 15.2069C18.763 14.5862 19.3439 14.1675 19.9982 14.1675C20.6525 14.1675 21.2334 14.5862 21.4403 15.2069L23.2557 20.6529L25.0711 15.2069C25.3366 14.4105 26.1975 13.98 26.9939 14.2455C27.7904 14.511 28.2208 15.3719 27.9553 16.1684L27.0196 18.9755H28.6881C29.5277 18.9755 30.2083 19.6561 30.2083 20.4956C30.2083 21.3352 29.5277 22.0157 28.6881 22.0157H26.0061L24.6978 25.9405C24.4909 26.5612 23.91 26.9799 23.2557 26.9799C22.6014 26.9799 22.0205 26.5612 21.8136 25.9405L19.9982 20.4946L18.1828 25.9405C17.9759 26.5612 17.395 26.9799 16.7407 26.9799C16.0863 26.9799 15.5054 26.5612 15.2985 25.9405L13.9902 22.0157H11.312C10.4725 22.0157 9.79187 21.3352 9.79187 20.4956C9.79187 19.6561 10.4725 18.9755 11.312 18.9755H12.9767L12.041 16.1684C11.7755 15.3719 12.2059 14.511 13.0024 14.2455Z" fill="#03B5B0"/>
<path fill-rule="evenodd" clip-rule="evenodd" d="M13.0022 13.5168C13.7986 13.2513 14.6595 13.6818 14.925 14.4782L16.7404 19.9242L18.5558 14.4782C18.7627 13.8575 19.3436 13.4388 19.9979 13.4388C20.6522 13.4388 21.2331 13.8575 21.4401 14.4782L23.2555 19.9242L25.0708 14.4782C25.3363 13.6818 26.1972 13.2513 26.9937 13.5168C27.7902 13.7823 28.2206 14.6432 27.9551 15.4397L27.0194 18.2468H28.6879C29.5275 18.2468 30.208 18.9274 30.208 19.7669C30.208 20.6065 29.5275 21.2871 28.6879 21.2871H26.0059L24.6976 25.2118C24.4907 25.8325 23.9098 26.2512 23.2555 26.2512C22.6011 26.2512 22.0202 25.8325 21.8133 25.2118L19.9979 19.7659L18.1825 25.2118C17.9756 25.8325 17.3947 26.2512 16.7404 26.2512C16.0861 26.2512 15.5052 25.8325 15.2983 25.2118L13.99 21.2871H11.3118C10.4722 21.2871 9.79163 20.6065 9.79163 19.7669C9.79163 18.9274 10.4722 18.2468 11.3118 18.2468H12.9765L12.0408 15.4397C11.7753 14.6432 12.2057 13.7823 13.0022 13.5168Z" fill="#E6FAF9"/>
</g>
<defs>
<clipPath id="clip0_0_5512">
<rect width="35" height="35" fill="white" transform="translate(2.5 2.5)"/>
</clipPath>
</defs>
</svg>
