<svg width="51" height="52" viewBox="0 0 51 52" fill="none" xmlns="http://www.w3.org/2000/svg">
<path d="M19.7033 15.9241C19.182 15.9241 18.6924 16.1743 18.3868 16.5966L14.1258 22.4868C13.7612 22.9908 13.7999 23.6815 14.2186 24.1417L24.8021 35.7726C24.9095 35.8907 25.0953 35.8907 25.2027 35.7726L35.7817 24.1416C36.2002 23.6815 36.2389 22.991 35.8743 22.487L31.6132 16.5966C31.3076 16.1743 30.818 15.9241 30.2967 15.9241H19.7033Z" fill="#D4D4D4"/>
<mask id="mask0_0_1990" style="mask-type:alpha" maskUnits="userSpaceOnUse" x="13" y="15" width="24" height="21">
<path d="M19.7033 15.9241C19.182 15.9241 18.6924 16.1743 18.3868 16.5966L14.1258 22.4868C13.7612 22.9908 13.7999 23.6815 14.2186 24.1417L24.8021 35.7726C24.9095 35.8907 25.0953 35.8907 25.2027 35.7726L35.7817 24.1416C36.2002 23.6815 36.2389 22.991 35.8743 22.487L31.6132 16.5966C31.3076 16.1743 30.818 15.9241 30.2967 15.9241H19.7033Z" fill="#03B5B0"/>
</mask>
<g mask="url(#mask0_0_1990)">
<path d="M18.3868 16.5966L13.7262 23.0392C13.6319 23.1696 13.725 23.3519 13.8859 23.3519H36.5L31.6132 16.5966C31.3076 16.1743 30.818 15.9241 30.2967 15.9241H19.7033C19.182 15.9241 18.6924 16.1743 18.3868 16.5966Z" fill="#E5E5E5"/>
</g>
<path d="M24.9562 15.9491L19.6147 23.3515H30.3121L24.9707 15.9491V15.929L24.9634 15.9391L24.9562 15.929V15.9491Z" fill="#F5F5F5"/>
<path d="M19.6147 23.3518H30.3121L25.1267 35.7789C25.0806 35.8896 24.9239 35.89 24.8771 35.7795L19.6147 23.3518Z" fill="#E5E5E5"/>
</svg>
