<svg width="32" height="32" viewBox="0 0 32 32" fill="none" xmlns="http://www.w3.org/2000/svg">
<path d="M30.1178 28.2927C30.1178 28.2927 30.1114 28.2608 30.096 28.2009C30.081 28.1405 30.0585 28.051 30.025 27.9363C29.9935 27.8199 29.949 27.6801 29.896 27.5139C29.8461 27.3447 29.7707 27.1649 29.6878 26.9588L29.5509 26.6362C29.501 26.5243 29.451 26.4042 29.389 26.2882C29.3292 26.1699 29.2666 26.0463 29.1987 25.9197C29.1294 25.7875 29.0582 25.6564 28.985 25.5263C28.8282 25.264 28.6539 24.9884 28.4647 24.6984C28.3669 24.5576 28.2627 24.4167 28.1571 24.2699C28.0488 24.1263 27.9397 23.9756 27.823 23.8276C27.7031 23.684 27.5817 23.5349 27.4542 23.3864C27.3255 23.2395 27.1989 23.0819 27.0574 22.939C26.779 22.6468 26.4902 22.339 26.1712 22.0531C26.0129 21.9083 25.8535 21.7582 25.6864 21.6145C25.6007 21.543 25.5144 21.4708 25.427 21.3986C25.4208 20.9494 25.3079 20.508 25.0979 20.1109C25.0979 20.1109 24.9262 19.7854 24.6029 19.2279C24.5205 19.0894 24.424 18.9389 24.3195 18.7749C24.2141 18.6114 24.1036 18.4325 23.9764 18.247C23.7176 17.8788 23.4299 17.4604 23.0819 17.028L22.8199 16.6945C22.729 16.5824 22.632 16.4717 22.535 16.3579C22.3397 16.1314 22.143 15.8934 21.9219 15.6642C21.7042 15.4324 21.4849 15.1911 21.2441 14.9594L20.883 14.6055C20.761 14.4869 20.6319 14.3729 20.505 14.2551C20.3765 14.1388 20.2472 14.0215 20.115 13.9055L19.7086 13.5632C19.4404 13.3292 19.1478 13.1159 18.8622 12.8925C18.7801 12.8302 18.6975 12.7687 18.6142 12.7079L18.4739 12.205C18.4496 12.1141 18.4204 12.0255 18.3988 11.9334L18.3338 11.6579C18.291 11.4745 18.2469 11.2922 18.2004 11.1111C18.1755 11.0212 18.1591 10.9287 18.1409 10.837C18.1231 10.7456 18.1044 10.6543 18.0848 10.5632L17.9695 10.0216C17.9307 9.84223 17.9045 9.66111 17.8717 9.48367C17.7304 8.77455 17.6331 8.08361 17.5199 7.44067C17.4983 7.27923 17.4744 7.12061 17.451 6.96517C17.4287 6.81272 17.4051 6.66047 17.3802 6.50842L17.3449 6.28754C17.3331 6.21473 17.3187 6.14286 17.3102 6.07173C17.292 5.93318 17.2727 5.79478 17.2522 5.65654C17.2159 5.40352 17.1768 5.1509 17.135 4.89873L17.1065 4.72561C17.0967 4.66905 17.0864 4.61348 17.0791 4.5593L17.0329 4.24886C16.9863 3.94064 16.9338 3.63334 16.8755 3.32711C16.8339 3.11248 16.8074 2.99673 16.8074 2.99673L16.8044 2.9833C16.7855 2.90231 16.7424 2.82897 16.681 2.77299C16.6195 2.71701 16.5424 2.68101 16.46 2.66978C16.3777 2.65855 16.2938 2.6726 16.2196 2.71008C16.1453 2.74756 16.0842 2.8067 16.0444 2.87967C16.0444 2.87967 15.9875 2.98392 15.8887 3.18173C15.7475 3.4673 15.6125 3.75589 15.4837 4.0473C15.3101 4.4218 15.1378 4.88661 14.9432 5.42461C14.893 5.56339 14.844 5.7026 14.7962 5.84223C14.7466 5.98611 14.7042 6.13623 14.658 6.28992C14.6105 6.44771 14.5644 6.60592 14.5197 6.76455C14.4733 6.92705 14.4258 7.09373 14.3801 7.26461C14.2159 7.95286 14.0414 8.70442 13.9316 9.5223C13.908 9.69667 13.8797 9.87273 13.8579 10.0524C13.6239 9.95973 13.3882 9.87548 13.158 9.79073C12.83 9.68117 12.5119 9.57036 12.1899 9.4838C12.0296 9.4393 11.8747 9.39023 11.7159 9.35217L11.2485 9.23936C10.9375 9.17273 10.639 9.10611 10.3414 9.06255C10.1932 9.03955 10.0503 9.01298 9.90624 8.99498L9.48324 8.94561C9.34599 8.9293 9.20774 8.92011 9.07499 8.91005C8.94186 8.90036 8.81242 8.89117 8.68342 8.88817C8.55536 8.88361 8.43111 8.87917 8.31049 8.87723L7.95461 8.88205C7.89724 8.88336 7.84155 8.88311 7.78574 8.8858L7.62011 8.89642L7.30886 8.91805L7.01867 8.95267C6.92711 8.96361 6.83974 8.97448 6.75449 8.99105C6.58436 9.02273 6.44367 9.04517 6.29355 9.08255L6.09805 9.1298C6.0693 9.13717 6.03849 9.14411 6.01574 9.15179L5.95586 9.17436C5.80492 9.23105 5.72467 9.2638 5.72467 9.2638C5.48661 9.36298 5.29655 9.57811 5.24486 9.85042C5.16317 10.2809 5.44592 10.696 5.8763 10.7777L5.87867 10.7781C5.87867 10.7781 5.96392 10.7943 6.12324 10.8199L6.18649 10.8302C6.20699 10.8344 6.22205 10.8414 6.24111 10.8469L6.35886 10.8844L6.67455 10.9835C6.70524 10.9938 6.73592 11.0017 6.76855 11.013L6.86905 11.0486L7.08167 11.1235L7.31342 11.2134L7.43461 11.2605L7.56074 11.3136C7.90061 11.4495 8.28211 11.6349 8.69005 11.8358C8.89399 11.942 9.10474 12.0502 9.32111 12.1707L9.4843 12.2598L9.64867 12.356C9.75924 12.4199 9.87161 12.4817 9.98411 12.549C10.208 12.6882 10.4385 12.8232 10.6694 12.9737C10.7851 13.0474 10.902 13.1207 11.0175 13.2014L11.37 13.4347L11.7215 13.6835C11.8407 13.7635 11.9577 13.8504 12.0754 13.937C12.3126 14.1062 12.5445 14.2906 12.7805 14.4696C13.2035 14.8062 13.6297 15.146 14.0364 15.5102C14.0551 15.6066 14.0739 15.7029 14.0934 15.7995C14.1154 15.926 14.1527 16.0524 14.1841 16.1792C14.2164 16.3064 14.25 16.4333 14.2847 16.5599L14.3574 16.8235C14.1615 16.8001 13.9643 16.7859 13.7702 16.7673L13.415 16.7359C13.2977 16.7234 13.1779 16.7235 13.0604 16.717C12.8244 16.7078 12.5913 16.6964 12.3604 16.6902C12.1282 16.689 11.8976 16.6927 11.6708 16.6944L11.3324 16.7016L10.9964 16.7206C10.7739 16.7342 10.5547 16.7514 10.3393 16.7668C10.1226 16.7885 9.90917 16.818 9.70005 16.8432C9.59542 16.8566 9.49186 16.8685 9.38924 16.8832C9.28649 16.8985 9.18411 16.9188 9.08317 16.9362C8.88514 16.971 8.68748 17.0079 8.49024 17.047C8.29699 17.0842 8.10711 17.1355 7.92286 17.1809C7.7383 17.2287 7.5588 17.2688 7.38405 17.3237C7.20924 17.3783 7.0393 17.431 6.87492 17.4859C6.71055 17.5404 6.55105 17.5894 6.39767 17.6541C6.24417 17.715 6.0958 17.7728 5.95355 17.8324L5.74399 17.919C5.67536 17.9464 5.60905 17.982 5.54374 18.0127C5.4133 18.0763 5.28817 18.1364 5.1693 18.197L4.99505 18.2852C4.93805 18.3142 4.88417 18.3408 4.82792 18.3742C4.71717 18.4377 4.61249 18.4977 4.51467 18.5567C4.42229 18.6112 4.33068 18.667 4.23986 18.724C4.15505 18.7775 4.07274 18.8265 4.0118 18.8755C3.88155 18.9705 3.77349 19.0589 3.68449 19.1267C3.5078 19.2659 3.41524 19.3449 3.41524 19.3449C3.27674 19.4642 3.18517 19.6265 3.17992 19.8237C3.17017 20.195 3.46292 20.4991 3.8338 20.4991H3.83417C3.83417 20.4991 3.95586 20.5167 4.18086 20.5138C4.29267 20.5105 4.43236 20.5184 4.59336 20.5104C4.67674 20.5039 4.75511 20.5143 4.84036 20.5182C4.92561 20.5232 5.01455 20.5279 5.10767 20.5313C5.19955 20.5341 5.29642 20.5379 5.39792 20.541C5.49874 20.5445 5.61386 20.554 5.72724 20.56C5.95755 20.5761 6.1983 20.5772 6.46124 20.6066C6.72292 20.6322 6.99361 20.644 7.28342 20.6841C7.42755 20.702 7.57405 20.717 7.72317 20.7329C7.7973 20.7387 7.87405 20.754 7.95049 20.7642L8.18205 20.7973L8.41705 20.8306C8.49599 20.8413 8.57486 20.849 8.65592 20.8651C8.8173 20.8941 8.98074 20.9225 9.14605 20.9485C9.2288 20.9626 9.31161 20.9739 9.39567 20.9904C9.47986 21.0085 9.56455 21.0239 9.64961 21.0407C9.81986 21.0732 9.99167 21.1084 10.1654 21.1391C10.3399 21.1778 10.5159 21.2186 10.6935 21.2561L10.9612 21.3122L11.2315 21.3802C11.4127 21.4238 11.5951 21.4646 11.7787 21.5104C11.9624 21.5615 12.1479 21.608 12.334 21.6572C12.5201 21.7036 12.7076 21.7584 12.8959 21.8125L13.1789 21.8933C13.2735 21.92 13.3688 21.9439 13.4635 21.9752C13.6534 22.0334 13.8435 22.0945 14.0354 22.1503C14.1314 22.1769 14.227 22.2085 14.3227 22.2409L14.6102 22.3363C14.9966 22.4513 15.3783 22.6012 15.7665 22.726C15.9587 22.7969 16.1498 22.8719 16.3434 22.9393C16.4397 22.9747 16.537 23.0062 16.6325 23.0445L16.9191 23.158C17.11 23.2342 17.3045 23.2997 17.4935 23.3802L17.7776 23.4986L18.063 23.6124C18.1586 23.6489 18.2523 23.6898 18.3457 23.7312L18.6261 23.8537C18.8135 23.9334 19.002 24.0095 19.1855 24.0947C19.3696 24.1768 19.5546 24.2571 19.7403 24.3355C19.9233 24.4177 20.1041 24.5022 20.2865 24.5815C20.3772 24.622 20.4682 24.6614 20.5598 24.6997L20.8276 24.824C21.0047 24.9082 21.185 24.9847 21.3624 25.0636C21.5357 25.149 21.7114 25.2279 21.885 25.3077C21.9721 25.347 22.0578 25.3881 22.1454 25.4253L22.4 25.547C22.5683 25.629 22.7385 25.7051 22.9068 25.7815C23.07 25.8618 23.2339 25.9406 23.3985 26.018C23.7284 26.1677 24.0384 26.3285 24.3506 26.4736C24.5071 26.546 24.6565 26.622 24.805 26.6962C24.9535 26.7704 25.103 26.8397 25.2484 26.91L25.6709 27.1229L26.083 27.323C26.3459 27.4594 26.6004 27.588 26.8467 27.7059C27.0718 27.8252 27.2988 27.9411 27.5275 28.0534C27.636 28.106 27.7376 28.1588 27.8342 28.2107L28.1165 28.3557C28.4845 28.5338 28.7674 28.688 28.9737 28.7857C29.0752 28.8359 29.1561 28.8727 29.2109 28.8975C29.2652 28.9227 29.2947 28.9348 29.2947 28.9348L29.326 28.9476C29.4322 28.9911 29.5489 29.0022 29.6614 28.9793C29.7365 28.9642 29.8078 28.9344 29.8714 28.8918C29.9349 28.8491 29.9894 28.7943 30.0318 28.7305C30.0742 28.6668 30.1036 28.5953 30.1183 28.5202C30.1331 28.4451 30.1329 28.3678 30.1178 28.2927Z" fill="#00B89C"/>
<path d="M31.2156 28.8771C31.2156 28.8771 31.1522 28.7545 31.0264 28.5304C30.8443 28.2086 30.656 27.8903 30.4616 27.5757C30.3215 27.3537 30.1788 27.1332 30.0337 26.9143C29.876 26.675 29.7038 26.4175 29.5109 26.1493C29.4126 26.01 29.3132 25.8714 29.2127 25.7336C29.1098 25.5912 29.0041 25.4446 28.8918 25.2971C28.777 25.1455 28.661 24.9949 28.5437 24.8452C28.4218 24.6876 28.2986 24.531 28.1743 24.3752C27.9185 24.0581 27.6441 23.7339 27.3592 23.3985C27.071 23.0657 26.7632 22.7294 26.4477 22.382C26.3169 22.2463 26.1848 22.1082 26.0512 21.9694L25.9626 21.7974C25.9171 21.7081 25.8695 21.6199 25.8223 21.5311C25.7764 21.4417 25.7237 21.3553 25.6844 21.2622C25.601 21.0781 25.5132 20.8957 25.4254 20.7124C25.3326 20.5312 25.2617 20.3397 25.1802 20.1527L25.0601 19.8706L24.9997 19.7294L24.9467 19.5852L24.7312 19.0087C24.463 18.2321 24.2374 17.4374 24.0636 16.6302C24.0272 16.4264 23.9873 16.2237 23.9482 16.0211C23.926 15.9204 23.9133 15.8174 23.8996 15.7147L23.8532 15.408C23.8388 15.3056 23.819 15.2046 23.8085 15.1014L23.7775 14.7922C23.7542 14.5867 23.7247 14.3828 23.7157 14.1752C23.7021 13.9684 23.6766 13.764 23.6665 13.5575C23.6591 13.3506 23.6441 13.1446 23.6325 12.9394C23.6216 12.5264 23.6002 12.1172 23.6017 11.7074C23.5905 11.2996 23.6039 10.8919 23.601 10.4907C23.6089 10.2896 23.611 10.0894 23.6141 9.89112L23.6164 9.74275L23.622 9.5945L23.6317 9.29981C23.6387 8.90918 23.6624 8.524 23.6715 8.14875L23.697 7.59231C23.7017 7.50106 23.7037 7.40987 23.7065 7.31968C23.7093 7.22943 23.7157 7.13993 23.72 7.05125L23.7632 6.02237L23.7954 5.07768L23.8057 4.64193C23.8105 4.50131 23.8125 4.36475 23.8145 4.23337L23.8192 3.50562C23.8179 3.284 23.8152 3.08537 23.8094 2.91056C23.8046 2.73606 23.8012 2.5875 23.7937 2.46537C23.7885 2.344 23.7815 2.24981 23.7767 2.18631C23.7746 2.15405 23.7719 2.12184 23.7686 2.08968L23.768 2.08406C23.7564 1.98393 23.7164 1.88921 23.6526 1.81113C23.5889 1.73304 23.5041 1.67485 23.4083 1.64344C23.3125 1.61204 23.2098 1.60873 23.1122 1.63392C23.0146 1.65911 22.9262 1.71173 22.8576 1.78556C22.8576 1.78556 22.8347 1.81018 22.7934 1.85893C22.7517 1.90756 22.6897 1.97975 22.613 2.07543C22.457 2.26593 22.2365 2.54837 21.976 2.91881L21.7725 3.21218C21.7044 3.31631 21.631 3.42487 21.5585 3.5395C21.4112 3.768 21.2548 4.01668 21.0991 4.28918C21.0191 4.42456 20.9406 4.56575 20.8583 4.71106C20.7767 4.85687 20.6997 5.00993 20.6168 5.166C20.5364 5.32306 20.453 5.48337 20.3722 5.65087L20.1319 6.16806C20.0493 6.3489 19.9707 6.53155 19.8962 6.71587C19.8211 6.90437 19.739 7.09512 19.6657 7.293C19.5225 7.69118 19.3707 8.10231 19.2455 8.53925C19.1093 8.97162 18.9979 9.42843 18.8879 9.897C18.8368 10.1362 18.7895 10.3761 18.746 10.6168C18.6979 10.8591 18.662 11.1085 18.6297 11.3602C18.597 11.6119 18.5575 11.8651 18.542 12.1251L18.5108 12.5152C18.5013 12.6461 18.4876 12.7764 18.486 12.9092C18.48 13.1744 18.4707 13.4416 18.4689 13.7102L18.468 13.8111L18.4711 13.9125L18.4777 14.1158C18.4827 14.2515 18.4858 14.3877 18.4928 14.5239C18.5011 14.7962 18.5314 15.0707 18.557 15.3459L18.6015 15.7586C18.6171 15.8962 18.6424 16.0339 18.6627 16.1717C18.6667 16.196 18.6704 16.2203 18.6743 16.2447C18.5324 16.1654 18.3896 16.0879 18.2459 16.012L17.4754 15.6232C17.3475 15.5583 17.2153 15.5001 17.084 15.4406L16.6906 15.2631C16.559 15.2049 16.43 15.1433 16.2969 15.0885L15.897 14.9279C14.8317 14.5044 13.7422 14.1662 12.6615 13.9461C12.3934 13.8856 12.1235 13.8381 11.8562 13.7955C11.5889 13.7527 11.326 13.7048 11.061 13.6809L10.668 13.6377C10.5378 13.6239 10.4091 13.6077 10.2796 13.6009C10.0208 13.5862 9.76635 13.569 9.51485 13.5599C8.50841 13.5322 7.56041 13.5737 6.69904 13.6944C5.83716 13.8024 5.06279 13.9774 4.38998 14.1644C4.22135 14.2089 4.06016 14.2609 3.90491 14.3118C3.75551 14.3599 3.60665 14.4097 3.45835 14.4611L3.24954 14.5336L3.04754 14.6114C2.91598 14.6617 2.79166 14.7142 2.6741 14.7615C2.19498 14.9518 1.87204 15.1359 1.6371 15.2619C1.54833 15.3099 1.46045 15.3596 1.37348 15.4108C1.31391 15.4451 1.28335 15.4646 1.28335 15.4646C1.12226 15.5678 1.00105 15.7227 0.9396 15.9039C0.789663 16.3454 1.02604 16.8249 1.4676 16.9749C1.4676 16.9749 1.50191 16.9866 1.56804 17.0054C1.63423 17.0251 1.73229 17.0536 1.85973 17.0866C2.11148 17.1556 2.50048 17.2384 2.93354 17.3575C3.04373 17.3844 3.15941 17.4152 3.27954 17.443L3.46379 17.4874L3.65935 17.5372C3.92485 17.6076 4.20966 17.6664 4.50991 17.744C5.11041 17.8966 5.77479 18.0539 6.47898 18.2467C7.18498 18.4266 7.92854 18.6504 8.69948 18.8816C8.89116 18.9459 9.08591 19.0032 9.28191 19.0637L9.87204 19.2603L10.021 19.3095C10.0711 19.3247 10.1211 19.3404 10.1707 19.359L10.47 19.4657C10.6697 19.5395 10.8743 19.5988 11.0753 19.6807C11.8872 19.9717 12.7137 20.3033 13.5528 20.6587C13.7629 20.7464 13.9746 20.8327 14.1847 20.9296L14.5013 21.0707C14.607 21.1178 14.7132 21.1636 14.8177 21.2164L15.4524 21.5154C15.5582 21.5662 15.6623 21.6227 15.768 21.6749L16.0855 21.8321C16.2987 21.9327 16.5059 22.0516 16.7174 22.1601L17.0342 22.3241C17.1402 22.3777 17.2435 22.4392 17.3482 22.4963C17.5564 22.6138 17.7687 22.7227 17.9771 22.8396C18.1837 22.9601 18.3915 23.0784 18.6005 23.1946C19.427 23.6756 20.248 24.1571 21.0399 24.6509C21.2378 24.7739 21.4368 24.8917 21.6313 25.0158C21.8267 25.1381 22.0187 25.2615 22.2127 25.3791L23.3427 26.0911L23.8878 26.4395C24.0669 26.5544 24.2474 26.6624 24.4209 26.7754C24.7691 27.0001 25.1095 27.2137 25.4382 27.4192C25.6006 27.5245 25.7618 27.6256 25.9195 27.7245C26.0303 27.7945 26.1415 27.8638 26.2532 27.9324L26.3935 28.0302C26.4692 28.0814 26.5475 28.1271 26.6229 28.1747C26.9416 28.3731 27.2628 28.5673 27.5865 28.7572L27.6266 28.7789L28.0148 29.0146C28.2343 29.147 28.4553 29.277 28.6776 29.4047C29.08 29.6397 29.4013 29.8214 29.6241 29.9418C29.8469 30.0622 29.9694 30.1233 29.9694 30.1233L29.9862 30.1317C30.116 30.1957 30.259 30.2282 30.4036 30.2268C30.5483 30.2253 30.6906 30.1898 30.8191 30.1232C31.2729 29.8885 31.4502 29.3306 31.2156 28.8771Z" fill="#009E83"/>
<path d="M25.865 18.7131C25.6084 18.788 25.3416 18.8219 25.0744 18.8137C24.9374 18.8094 24.8728 18.9799 24.9761 19.0698C25.1574 19.2277 25.3154 19.4104 25.4454 19.6126C25.46 19.6344 25.4741 19.6564 25.4874 19.6785C26.2143 20.8854 25.2585 21.5123 24.0516 22.2393C22.8446 22.9662 21.8436 23.5179 21.1166 22.3109C21.1019 22.2865 21.0877 22.2618 21.0738 22.2369C21.021 22.1418 20.8862 22.1399 20.8252 22.2301L20.8237 22.2323C20.8093 22.2543 20.7946 22.2758 20.7795 22.2967C19.9538 23.4384 19.0026 22.8046 17.8609 21.979C16.7193 21.1533 15.8194 20.4484 16.6451 19.3068C16.7372 19.1795 16.8408 19.0609 16.9547 18.9527C17.0438 18.868 16.9945 18.7179 16.8725 18.7028C16.7424 18.6867 16.6137 18.6607 16.4876 18.6249C16.4624 18.6183 16.4374 18.611 16.4126 18.6032C15.0692 18.1783 15.3718 17.0761 15.7966 15.7327C16.2215 14.3893 16.6077 13.3135 17.9511 13.7384C18.1231 13.7927 18.2888 13.8651 18.4454 13.9544C18.5547 14.0167 18.6848 13.9188 18.6586 13.7957C18.6267 13.6456 18.6084 13.493 18.6039 13.3397C18.6026 13.3134 18.6019 13.2874 18.6019 13.2616C18.6019 11.8526 19.7441 11.8088 21.153 11.8088C22.5619 11.8088 23.7041 11.8526 23.7041 13.2616C23.7041 13.4872 23.6748 13.7059 23.6197 13.9142C23.586 14.0417 23.7219 14.1464 23.8349 14.0785C24.002 13.9782 24.1799 13.8974 24.3653 13.8374C24.3901 13.8289 24.4149 13.8209 24.4398 13.8137C25.7926 13.4201 26.1538 14.5046 26.5473 15.8575C26.941 17.2106 27.2179 18.3195 25.865 18.7131ZM18.9854 6.50181C18.6511 5.35263 18.3444 4.43137 17.1951 4.76569C17.1741 4.77181 17.153 4.77856 17.1319 4.78581C16.9744 4.83671 16.8233 4.9054 16.6814 4.99056C16.5853 5.04831 16.4699 4.95931 16.4985 4.851C16.5462 4.67008 16.5703 4.48374 16.5702 4.29663C16.5702 3.09975 15.5999 3.0625 14.4031 3.0625C13.2063 3.0625 12.2361 3.09975 12.2361 4.29663C12.2361 4.31856 12.2366 4.34069 12.2378 4.363C12.2416 4.49324 12.2572 4.62286 12.2843 4.75031C12.3065 4.85481 12.1959 4.93806 12.1031 4.88513C11.97 4.80927 11.8293 4.74776 11.6832 4.70162C10.5421 4.34075 10.2139 5.25456 9.85307 6.39569C9.4922 7.53681 9.23513 8.47313 10.3763 8.83406C10.3971 8.84069 10.4184 8.84675 10.44 8.85244C10.5488 8.88325 10.6579 8.90519 10.7669 8.91862C10.8706 8.93144 10.9124 9.059 10.8368 9.13087C10.74 9.22281 10.652 9.32351 10.5738 9.43169C9.87238 10.4015 10.6368 11.0002 11.6066 11.7016C12.5764 12.403 13.3844 12.9414 14.0858 11.9716C14.0992 11.953 14.1121 11.9341 14.1246 11.9149C14.1764 11.8383 14.2909 11.8398 14.3358 11.9207C14.3474 11.9418 14.3596 11.9628 14.3721 11.9836C14.9896 13.0089 15.84 12.5403 16.8653 11.9228C17.8905 11.3053 18.7024 10.7728 18.0849 9.7475C18.0736 9.72875 18.0617 9.71006 18.0493 9.6915C17.9388 9.51974 17.8046 9.36449 17.6506 9.23038C17.5628 9.15394 17.6178 9.00919 17.7341 9.01281C17.9554 9.01969 18.1816 8.9925 18.4057 8.92731C19.5549 8.59306 19.3197 7.651 18.9854 6.50181Z" fill="#FF929D"/>
<path d="M24.0248 16.8378L24.0208 16.8511C24.0183 16.8602 24.0143 16.8728 24.0086 16.888L23.9879 16.9455C23.9792 16.9663 23.9696 16.9914 23.9577 17.0167C23.9459 17.0422 23.933 17.0707 23.9179 17.0988C23.9033 17.1283 23.8864 17.1574 23.8683 17.1882C23.83 17.2538 23.787 17.3165 23.7398 17.376C23.6409 17.5009 23.5157 17.6198 23.3696 17.7143C23.2966 17.7618 23.218 17.8022 23.1362 17.8378C23.0538 17.8743 22.9701 17.9077 22.8852 17.938C22.8156 17.9625 22.7452 17.9847 22.6742 18.0046C22.7136 18.0666 22.7519 18.1297 22.7874 18.1947C22.8307 18.2737 22.871 18.3543 22.9083 18.4363C22.9457 18.5174 22.9775 18.5998 23.0004 18.6838C23.0468 18.8516 23.0611 19.0237 23.0519 19.1827C23.0477 19.2585 23.038 19.3339 23.0231 19.4084C23.0161 19.4434 23.0093 19.4763 23.0006 19.5082C22.9933 19.5392 22.9839 19.569 22.9758 19.5959C22.9678 19.6227 22.9583 19.6478 22.951 19.6692L22.9282 19.7258C22.9236 19.7379 22.9185 19.7499 22.9128 19.7615L22.9069 19.7742C22.7677 20.0711 22.4522 20.2292 22.1437 20.1837L22.1299 20.1816C22.1171 20.1798 22.1043 20.1775 22.0916 20.1747L22.0319 20.1624C22.01 20.1567 21.9838 20.1507 21.9571 20.1425C21.9303 20.1345 21.9002 20.1257 21.8703 20.1147C21.8389 20.1044 21.8078 20.0918 21.7748 20.0783C21.7045 20.0495 21.6363 20.0159 21.5707 19.9775C21.4331 19.8973 21.2977 19.7902 21.1836 19.6588C21.1262 19.5933 21.0751 19.5212 21.0283 19.4452C21.015 19.424 21.0024 19.4022 20.9896 19.3806C20.9733 19.3997 20.9573 19.4191 20.9406 19.4377C20.8816 19.5046 20.8191 19.567 20.7514 19.622C20.6168 19.7322 20.4652 19.8148 20.3161 19.8707C20.245 19.8975 20.1721 19.9191 20.0979 19.9355C20.0631 19.9433 20.0303 19.9505 19.9976 19.9553C19.9663 19.9611 19.9352 19.9647 19.9073 19.968C19.8796 19.9715 19.8528 19.973 19.8303 19.975L19.7693 19.977C19.753 19.9778 19.7398 19.9778 19.7303 19.9773L19.7164 19.977C19.3886 19.9698 19.1163 19.7451 19.0333 19.4445L19.0296 19.431C19.026 19.4186 19.023 19.406 19.0205 19.3932L19.0076 19.3336C19.004 19.3113 18.9989 19.2849 18.9955 19.2572C18.992 19.2293 18.9879 19.1983 18.9859 19.1665C18.9829 19.1325 18.9811 19.0985 18.9806 19.0644C18.9784 18.9885 18.9817 18.9125 18.9903 18.837C19.0081 18.6788 19.0513 18.5116 19.1253 18.3541C19.1621 18.2752 19.2074 18.1993 19.2579 18.1257C19.2719 18.105 19.2868 18.0847 19.3013 18.0643C19.2773 18.0571 19.253 18.0503 19.2293 18.0425C19.1442 18.0156 19.0618 17.9837 18.9843 17.944C18.8291 17.8654 18.6922 17.7602 18.5808 17.6463C18.5276 17.5921 18.4784 17.5342 18.4333 17.473C18.4121 17.4443 18.3923 17.4172 18.3747 17.3893C18.3567 17.363 18.3409 17.336 18.3265 17.3118C18.3121 17.2879 18.2999 17.264 18.289 17.2442L18.2625 17.1892C18.2566 17.1777 18.2513 17.1658 18.2464 17.1538L18.2411 17.1409C18.1153 16.8381 18.2107 16.4983 18.4521 16.3009L18.4629 16.2921C18.4701 16.2859 18.4805 16.2778 18.4938 16.2684L18.5431 16.2325C18.5621 16.2202 18.5841 16.2048 18.6082 16.1905C18.6323 16.1761 18.6589 16.1597 18.6873 16.145C18.7159 16.1288 18.7462 16.1142 18.7785 16.0989C18.8471 16.0663 18.9179 16.0385 18.9904 16.0158C19.1424 15.9682 19.3127 15.9401 19.4867 15.9442C19.5738 15.9458 19.6614 15.9567 19.7492 15.9732C19.8331 15.9882 19.9173 16.0073 20.001 16.0285L20.0003 16.0178C19.9961 15.9278 19.9953 15.8377 19.9978 15.7476C19.9998 15.6583 20.0074 15.5703 20.0238 15.4848C20.0558 15.3137 20.1184 15.1528 20.1965 15.014C20.2337 14.9478 20.2754 14.8842 20.3216 14.8239C20.3432 14.7955 20.3638 14.7689 20.3856 14.7442C20.4058 14.7195 20.4273 14.6968 20.4464 14.6762C20.4653 14.6557 20.4849 14.6373 20.5008 14.6213L20.5461 14.5805C20.5556 14.5716 20.5655 14.5631 20.5757 14.5551L20.5865 14.5463C20.8419 14.3407 21.1949 14.3372 21.452 14.5136L21.4634 14.5215C21.4714 14.5267 21.4821 14.5344 21.4948 14.5445L21.5431 14.5818C21.5603 14.5965 21.5811 14.6134 21.6016 14.6325C21.6222 14.6515 21.6454 14.6726 21.6674 14.6956C21.691 14.7186 21.7135 14.7436 21.7372 14.7703C21.7849 14.8237 21.8322 14.8842 21.8763 14.9504C21.9646 15.0829 22.0393 15.2387 22.0841 15.4068C22.1068 15.4908 22.121 15.578 22.1298 15.6669C22.1384 15.7509 22.1442 15.8351 22.1469 15.9195C22.2312 15.8879 22.3166 15.8594 22.4029 15.834C22.4884 15.8085 22.5746 15.7886 22.6609 15.7778C22.8336 15.7556 23.0059 15.7657 23.162 15.7972C23.2401 15.8129 23.3139 15.8337 23.3814 15.8577C23.4151 15.8695 23.4467 15.8808 23.4769 15.894C23.5066 15.9056 23.5349 15.9191 23.5603 15.9309C23.5857 15.9426 23.6093 15.9555 23.6294 15.9658L23.6822 15.9963C23.6964 16.0043 23.7076 16.0113 23.7154 16.0167L23.727 16.0243C24.0014 16.2042 24.1135 16.5388 24.0248 16.8378ZM16.5901 6.64341L16.5802 6.63691C16.571 6.63074 16.5616 6.62498 16.5519 6.61966L16.5071 6.59372C16.49 6.58503 16.47 6.57403 16.4484 6.56409C16.4268 6.55403 16.4028 6.54259 16.3776 6.53272C16.351 6.52145 16.3239 6.51115 16.2964 6.50185C16.2356 6.48034 16.1733 6.46317 16.1101 6.45047C15.97 6.42191 15.8263 6.41634 15.6844 6.43397C15.6102 6.44381 15.5369 6.45979 15.4653 6.48172C15.3919 6.50322 15.3193 6.52742 15.2478 6.55428C15.2454 6.48261 15.2406 6.41105 15.2332 6.33972C15.2264 6.26513 15.2134 6.19123 15.1944 6.11878C15.1563 5.97597 15.0929 5.84372 15.0179 5.7311C14.9822 5.67735 14.9427 5.62622 14.8998 5.57809C14.8808 5.55624 14.861 5.53508 14.8404 5.51466C14.8218 5.49509 14.8021 5.47716 14.7846 5.46103C14.7672 5.44485 14.7494 5.43053 14.7349 5.41797L14.6939 5.38628C14.6853 5.37936 14.6764 5.37283 14.6673 5.36672C14.664 5.36448 14.6608 5.36225 14.6575 5.36003C14.4391 5.21016 14.1393 5.21316 13.9223 5.38784L13.9131 5.39528C13.9068 5.40016 13.8981 5.40741 13.888 5.41685L13.8495 5.45153C13.8359 5.4651 13.8193 5.48078 13.8033 5.49822C13.787 5.51566 13.7688 5.53497 13.7516 5.55591C13.7331 5.57691 13.7156 5.59947 13.6972 5.62366C13.658 5.67493 13.6225 5.72889 13.5909 5.78516C13.5246 5.90309 13.4714 6.03972 13.4442 6.18503C13.4307 6.25871 13.4233 6.33338 13.4221 6.40828C13.42 6.4848 13.4207 6.56137 13.4242 6.63784C13.4243 6.64091 13.4247 6.64391 13.4248 6.64691C13.3541 6.62868 13.2828 6.61298 13.2109 6.59984C13.1374 6.58547 13.0628 6.57724 12.9879 6.57522C12.8451 6.57252 12.7027 6.59308 12.5664 6.63609C12.5048 6.65532 12.4446 6.6789 12.3864 6.70666C12.3589 6.71966 12.3333 6.73203 12.3089 6.74585C12.2848 6.75835 12.2621 6.77222 12.2418 6.78447C12.2214 6.79659 12.2026 6.80966 12.1865 6.82009L12.1446 6.85059C12.1356 6.85689 12.1268 6.8636 12.1184 6.87072L12.1093 6.87822C11.9042 7.04591 11.8231 7.33459 11.93 7.59178L11.9346 7.60272C11.9375 7.61022 11.942 7.62047 11.9482 7.63285L11.9707 7.67953C11.9799 7.69634 11.9903 7.71672 12.0026 7.73703C12.0148 7.75753 12.0282 7.78047 12.0435 7.80278C12.0584 7.82641 12.0753 7.84953 12.0933 7.87391C12.1316 7.9259 12.1734 7.9751 12.2186 8.02116C12.3184 8.12346 12.4342 8.20886 12.5614 8.27403C12.6273 8.30772 12.6973 8.33484 12.7695 8.35772C12.7896 8.36428 12.8103 8.37009 12.8307 8.37622C12.8183 8.39359 12.8057 8.41084 12.7938 8.42841C12.7509 8.49091 12.7124 8.55534 12.6812 8.62241C12.621 8.75201 12.5822 8.89055 12.5664 9.03259C12.5591 9.09669 12.5564 9.16123 12.5582 9.22572C12.559 9.25603 12.5599 9.28459 12.5627 9.31247C12.5644 9.33947 12.5679 9.36584 12.5709 9.38953C12.5738 9.41309 12.5781 9.43553 12.5811 9.45447L12.5921 9.50509C12.5948 9.51866 12.5976 9.52953 12.5999 9.53722L12.603 9.54859C12.6735 9.80397 12.9048 9.99478 13.1832 10.001L13.195 10.0012C13.2031 10.0016 13.2143 10.0016 13.2281 10.0009L13.2799 9.99922C13.299 9.99753 13.3218 9.99628 13.3453 9.99334C13.369 9.99047 13.3954 9.98747 13.422 9.98253C13.4497 9.97841 13.4776 9.97234 13.5072 9.96572C13.5702 9.95177 13.6321 9.93337 13.6925 9.91066C13.8264 9.86074 13.9514 9.78937 14.0624 9.69934C14.1198 9.65272 14.1729 9.59966 14.2231 9.54278C14.2372 9.52703 14.2509 9.51053 14.2647 9.49428C14.2756 9.51259 14.2863 9.53116 14.2975 9.5491C14.3373 9.6136 14.3807 9.67491 14.4294 9.73053C14.5264 9.84216 14.6414 9.93309 14.7583 10.0013C14.8139 10.0339 14.8719 10.0625 14.9316 10.0869C14.9596 10.0985 14.9861 10.1091 15.0127 10.1178C15.0381 10.1272 15.0636 10.1347 15.0864 10.1415C15.1091 10.1484 15.1314 10.1535 15.1499 10.1583L15.2007 10.1688C15.2142 10.1718 15.2253 10.1737 15.2333 10.1747L15.2449 10.1764C15.507 10.2152 15.7751 10.0808 15.8933 9.8286L15.8983 9.81791C15.9018 9.81072 15.9064 9.80041 15.9113 9.78753L15.9307 9.73947C15.9369 9.72134 15.9449 9.69997 15.9518 9.67722C15.9587 9.65441 15.9666 9.62903 15.9728 9.60266C15.9803 9.57566 15.986 9.54772 15.9919 9.51797C16.0039 9.45835 16.0126 9.39372 16.0164 9.32622C16.0242 9.19116 16.012 9.04497 15.9726 8.90253C15.9524 8.83041 15.9262 8.76008 15.8944 8.69228C15.8627 8.6226 15.8284 8.55412 15.7917 8.48697C15.7614 8.43213 15.7293 8.37829 15.6955 8.32553C15.7559 8.30864 15.8156 8.28977 15.8748 8.26897C15.9469 8.24324 16.018 8.21487 16.088 8.18391C16.1569 8.15445 16.2232 8.11933 16.2863 8.07891C16.4104 7.99872 16.5168 7.89766 16.6008 7.79159C16.6409 7.74108 16.6774 7.68778 16.7099 7.6321C16.7253 7.60597 16.7396 7.58122 16.752 7.55616C16.7649 7.53234 16.7758 7.50809 16.7858 7.48647C16.7959 7.46497 16.8041 7.44366 16.8115 7.42597L16.829 7.37722C16.833 7.36692 16.8364 7.35645 16.8394 7.34584L16.8428 7.33453C16.9183 7.08035 16.8231 6.79603 16.5901 6.64341Z" fill="#FF473E"/>
<path d="M22.1784 17.3953C22.1784 17.9599 21.7207 18.4176 21.1561 18.4176C20.5914 18.4176 20.1338 17.9599 20.1338 17.3953C20.1338 16.8306 20.5914 16.373 21.1561 16.373C21.7207 16.373 22.1784 16.8307 22.1784 17.3953ZM14.4059 6.93945C13.9263 6.93945 13.5376 7.32827 13.5376 7.80783C13.5376 8.28739 13.9264 8.6762 14.4059 8.6762C14.8856 8.6762 15.2743 8.28739 15.2743 7.80783C15.2743 7.32827 14.8855 6.93945 14.4059 6.93945ZM14.5526 17.8387C14.1591 16.4858 13.7979 15.4013 12.4451 15.7949C12.4203 15.8021 12.3954 15.81 12.3706 15.8186C12.1852 15.8785 12.0073 15.9594 11.8403 16.0597C11.7272 16.1276 11.5913 16.023 11.6249 15.8954C11.6812 15.6824 11.7095 15.463 11.7094 15.2428C11.7094 13.8338 10.5672 13.79 9.15825 13.79C7.74932 13.79 6.60713 13.8338 6.60713 15.2428C6.60713 15.2686 6.60782 15.2946 6.60913 15.3209C6.61382 15.4768 6.63244 15.6292 6.66388 15.7769C6.69007 15.8999 6.55994 15.998 6.45069 15.9356C6.29399 15.8464 6.12828 15.7739 5.95632 15.7196C4.61294 15.2947 4.22669 16.3705 3.80188 17.7139C3.377 19.0573 3.07444 20.1595 4.41782 20.5844C4.44238 20.5921 4.46744 20.5994 4.49288 20.6061C4.62088 20.6423 4.7495 20.6682 4.87775 20.684C4.99975 20.6991 5.04907 20.8492 4.95994 20.9339C4.84604 21.0421 4.74241 21.1607 4.65038 21.288C3.82469 22.4297 4.7245 23.1346 5.86619 23.9602C7.00788 24.7858 7.95913 25.4196 8.78475 24.278C8.79988 24.257 8.81457 24.2355 8.82894 24.2135L8.83044 24.2113C8.89144 24.1211 9.02625 24.123 9.07907 24.2181C9.09288 24.2429 9.10713 24.2676 9.12188 24.2921C9.84882 25.4991 10.8499 24.9474 12.0568 24.2205C13.2638 23.4935 14.2196 22.8666 13.4926 21.6597C13.4792 21.6374 13.4652 21.6154 13.4506 21.5938C13.3206 21.3916 13.1626 21.2089 12.9814 21.051C12.878 20.961 12.9426 20.7906 13.0796 20.7949C13.3402 20.803 13.6064 20.771 13.8703 20.6943C15.2231 20.3005 14.9461 19.1916 14.5526 17.8387Z" fill="#FFB636"/>
<path d="M9.15844 20.7778C9.91472 20.7778 10.5278 20.1647 10.5278 19.4084C10.5278 18.6522 9.91472 18.0391 9.15844 18.0391C8.40215 18.0391 7.78906 18.6522 7.78906 19.4084C7.78906 20.1647 8.40215 20.7778 9.15844 20.7778Z" fill="#F8BBC6"/>
<path d="M11.7291 18.0071L11.7174 17.9994C11.7067 17.9922 11.6956 17.9854 11.6842 17.9791L11.6314 17.9486C11.6113 17.9383 11.5877 17.9254 11.5623 17.9137C11.5369 17.9018 11.5086 17.8884 11.4789 17.8768C11.4487 17.8636 11.4171 17.8523 11.3834 17.8404C11.3118 17.8151 11.2385 17.7949 11.164 17.78C11.0079 17.7484 10.8355 17.7384 10.6629 17.7606C10.5765 17.7714 10.4904 17.7913 10.4049 17.8168C10.3185 17.8421 10.2331 17.8706 10.1488 17.9023C10.1461 17.8179 10.1404 17.7337 10.1317 17.6497C10.1229 17.5609 10.1088 17.4736 10.086 17.3896C10.0412 17.2214 9.96657 17.0658 9.87819 16.9332C9.83615 16.8699 9.78968 16.8098 9.73913 16.7531C9.71677 16.7273 9.69348 16.7024 9.66932 16.6784C9.64732 16.6553 9.62413 16.6343 9.6035 16.6153C9.58307 16.5962 9.56213 16.5793 9.54507 16.5646L9.49675 16.5273C9.48665 16.5192 9.47618 16.5115 9.46538 16.5043C9.46156 16.5016 9.45775 16.499 9.45394 16.4964C9.19682 16.3199 8.84388 16.3234 8.58844 16.5291L8.57763 16.5379C8.57013 16.5436 8.56 16.5522 8.54807 16.5633L8.50275 16.6041C8.48682 16.6201 8.46725 16.6385 8.44832 16.659C8.42919 16.6796 8.40769 16.7023 8.3875 16.7269C8.36569 16.7516 8.34513 16.7783 8.3235 16.8067C8.27738 16.867 8.23559 16.9306 8.19844 16.9968C8.12038 17.1356 8.05769 17.2965 8.02569 17.4676C8.00938 17.5531 8.00175 17.6411 7.99975 17.7304C7.99723 17.8205 7.99804 17.9106 8.00219 18.0006L8.00294 18.0113C7.91969 17.9899 7.8357 17.9714 7.75113 17.9559C7.66338 17.9394 7.57569 17.9287 7.48863 17.9269C7.31463 17.9229 7.14432 17.9509 6.99232 17.9986C6.91638 18.0224 6.84507 18.0508 6.78044 18.0817C6.74819 18.097 6.71788 18.1116 6.68919 18.1278C6.66088 18.1425 6.63419 18.1588 6.61013 18.1733C6.58613 18.1876 6.56407 18.2029 6.54507 18.2153L6.49575 18.2512C6.48244 18.2606 6.47207 18.2687 6.46482 18.2749L6.45407 18.2837C6.21263 18.4811 6.11719 18.8209 6.24307 19.1237L6.24838 19.1366C6.25182 19.1454 6.25713 19.1575 6.26444 19.172L6.29094 19.2269C6.30182 19.2468 6.31407 19.2707 6.32844 19.2946C6.34282 19.3188 6.35863 19.3458 6.37663 19.3721C6.39425 19.3999 6.414 19.4271 6.43525 19.4558C6.48025 19.517 6.52954 19.5749 6.58275 19.6291C6.69413 19.743 6.83107 19.8482 6.98625 19.9268C7.06382 19.9664 7.14619 19.9984 7.23125 20.0253C7.25494 20.0331 7.27919 20.0399 7.30325 20.0471C7.28869 20.0675 7.27382 20.0878 7.25988 20.1085C7.20932 20.1821 7.164 20.2579 7.12725 20.3369C7.05319 20.4944 7.01 20.6615 6.99219 20.8198C6.9836 20.8953 6.98036 20.9713 6.9825 21.0472C6.98344 21.0829 6.98457 21.1165 6.98782 21.1493C6.98982 21.1811 6.99394 21.2121 6.99744 21.2399C7.00082 21.2677 7.00588 21.2941 7.0095 21.3164L7.02244 21.376C7.02563 21.3919 7.02888 21.4048 7.03157 21.4139L7.03525 21.4273C7.11825 21.7279 7.39044 21.9526 7.71832 21.9599L7.73225 21.9602C7.74169 21.9606 7.75494 21.9606 7.77119 21.9598L7.83219 21.9578C7.85469 21.9559 7.88157 21.9544 7.90925 21.9509C7.93713 21.9475 7.96819 21.9439 7.99957 21.9381C8.03323 21.9327 8.06669 21.9262 8.09988 21.9184C8.17403 21.902 8.24692 21.8803 8.318 21.8536C8.46719 21.7977 8.61875 21.715 8.75338 21.6048C8.821 21.5499 8.8835 21.4875 8.9425 21.4205C8.95919 21.4019 8.97519 21.3825 8.9915 21.3634C9.00432 21.385 9.01688 21.4069 9.03013 21.428C9.077 21.5039 9.12807 21.5761 9.18544 21.6416C9.29957 21.773 9.43494 21.8801 9.57257 21.9604C9.64132 22.0006 9.71025 22.0341 9.77663 22.0611C9.80969 22.0747 9.84082 22.0873 9.87213 22.0976C9.902 22.1086 9.93207 22.1174 9.95894 22.1254C9.98563 22.1335 10.0119 22.1395 10.0337 22.1453L10.0934 22.1575C10.1093 22.161 10.1224 22.1633 10.1318 22.1644L10.1455 22.1665C10.454 22.2121 10.7696 22.0539 10.9087 21.757L10.9146 21.7444C10.9188 21.7359 10.9241 21.7238 10.93 21.7086L10.9528 21.6521C10.9601 21.6307 10.9696 21.6055 10.9776 21.5788C10.9858 21.5519 10.9951 21.522 11.0024 21.491C11.0112 21.4593 11.0179 21.4263 11.0249 21.3913C11.0391 21.3211 11.0492 21.245 11.0538 21.1655C11.0629 21.0065 11.0486 20.8344 11.0023 20.6667C10.9794 20.5827 10.9475 20.5003 10.9101 20.4192C10.8728 20.3372 10.8325 20.2566 10.7893 20.1775C10.7536 20.1129 10.7158 20.0495 10.676 19.9874C10.747 19.9675 10.8174 19.9453 10.887 19.9208C10.9719 19.8906 11.0556 19.8572 11.138 19.8207C11.2198 19.785 11.2984 19.7446 11.3714 19.6971C11.5176 19.6027 11.6427 19.4838 11.7416 19.3589C11.7888 19.2994 11.8318 19.2367 11.8701 19.1711C11.8883 19.1403 11.9051 19.1112 11.9197 19.0816C11.9348 19.0536 11.9478 19.0251 11.9595 18.9996C11.9713 18.9743 11.9809 18.9492 11.9898 18.9283L12.0104 18.8709C12.0161 18.8557 12.0201 18.8431 12.0226 18.8339L12.0266 18.8206C12.1154 18.5215 12.0033 18.1868 11.7291 18.0071Z" fill="#FFD469"/>
<path d="M9.15906 20.3997C9.72367 20.3997 10.1814 19.942 10.1814 19.3774C10.1814 18.8128 9.72367 18.3551 9.15906 18.3551C8.59445 18.3551 8.13675 18.8128 8.13675 19.3774C8.13675 19.942 8.59445 20.3997 9.15906 20.3997Z" fill="#FFB636"/>
</svg>
