<svg width="32" height="32" viewBox="0 0 32 32" fill="none" xmlns="http://www.w3.org/2000/svg">
<g clip-path="url(#clip0_0_8055)">
<path d="M16 32C24.8366 32 32 28.0203 32 23.1111C32 18.2019 24.8366 14.2222 16 14.2222C7.16344 14.2222 0 18.2019 0 23.1111C0 28.0203 7.16344 32 16 32Z" fill="#8899A6"/>
<path d="M16 30.4438C24.8366 30.4438 32 26.4641 32 21.5549C32 16.6457 24.8366 12.666 16 12.666C7.16344 12.666 0 16.6457 0 21.5549C0 26.4641 7.16344 30.4438 16 30.4438Z" fill="#CCD6DD"/>
<path d="M29.042 21.0534C29.042 24.8401 23.202 27.9086 15.9976 27.9086C8.79313 27.9086 2.95312 24.8401 2.95312 21.0534C2.95312 17.2686 8.79313 14.1992 15.9976 14.1992C23.2011 14.1992 29.042 17.2686 29.042 21.0534Z" fill="#DD2E44"/>
<path d="M28.6547 20.0377C28.6547 28.7968 3.35156 28.7968 3.35156 20.0377V12.252H28.6547V20.0377Z" fill="#F4ABBA"/>
<path d="M15.9884 16.1475C8.0026 16.1475 3.35016 12.4746 3.35016 12.4746C3.35016 12.4746 3.33594 13.2959 3.33594 13.9724C3.33594 13.9724 3.36438 18.3262 5.62216 18.3262C7.80794 18.3262 7.64883 20.4133 9.03016 20.6293C10.3999 20.8435 10.5519 19.7955 12.2524 19.7955C13.9528 19.7955 14.2524 21.6675 15.9884 21.6675C18.023 21.6675 18.1902 19.7955 19.8897 19.7955C21.5893 19.7955 21.7848 20.8835 22.8995 20.5822C24.239 20.2195 23.623 18.3271 26.3546 18.3271C28.6124 18.3271 28.6684 14.1955 28.6684 14.1955C28.6684 13.5199 28.6533 12.4755 28.6533 12.4755C28.6533 12.4755 23.975 16.1475 15.9884 16.1475Z" fill="#DD2E44"/>
<path d="M29.042 11.3219C29.042 15.1077 23.202 18.177 15.9976 18.177C8.79313 18.177 2.95312 15.1077 2.95312 11.3219C2.95312 7.53613 8.79313 4.4668 15.9976 4.4668C23.2011 4.4668 29.042 7.53613 29.042 11.3219Z" fill="#EA596E"/>
<path d="M22.8093 12.2533C22.2715 12.2533 21.8359 11.8177 21.8359 11.2799V4.46747C21.8359 4.20933 21.9385 3.96176 22.121 3.77922C22.3036 3.59669 22.5511 3.49414 22.8093 3.49414C23.0674 3.49414 23.315 3.59669 23.4975 3.77922C23.6801 3.96176 23.7826 4.20933 23.7826 4.46747V11.2799C23.7826 11.8177 23.347 12.2533 22.8093 12.2533Z" fill="#FFF8E8"/>
<path d="M22.8142 5.92543C21.7814 5.92543 20.9689 5.45254 20.6409 4.66054C20.3565 3.97343 20.2151 2.48276 22.4702 0.228538C22.5154 0.183331 22.569 0.147469 22.6281 0.123C22.6871 0.0985317 22.7503 0.0859375 22.8142 0.0859375C22.8781 0.0859375 22.9414 0.0985317 23.0004 0.123C23.0595 0.147469 23.1131 0.183331 23.1582 0.228538C25.4134 2.48365 25.272 3.97343 24.9876 4.66054C24.6596 5.45254 23.8471 5.92543 22.8142 5.92543Z" fill="#FAAA35"/>
<path d="M15.9968 15.1723C15.459 15.1723 15.0234 14.7367 15.0234 14.199V7.3874C15.0234 7.25958 15.0486 7.13301 15.0975 7.01492C15.1464 6.89683 15.2181 6.78953 15.3085 6.69915C15.3989 6.60876 15.5062 6.53707 15.6243 6.48815C15.7424 6.43924 15.869 6.41406 15.9968 6.41406C16.1246 6.41406 16.2512 6.43924 16.3692 6.48815C16.4873 6.53707 16.5946 6.60876 16.685 6.69915C16.7754 6.78953 16.8471 6.89683 16.896 7.01492C16.9449 7.13301 16.9701 7.25958 16.9701 7.3874V14.1998C16.9701 14.7367 16.5345 15.1723 15.9968 15.1723Z" fill="#FFF8E8"/>
<path d="M16.0021 8.84535C14.9692 8.84535 14.1568 8.37246 13.8288 7.58046C13.5435 6.89335 13.403 5.40268 15.6581 3.14846C15.7033 3.10325 15.7569 3.06739 15.8159 3.04292C15.875 3.01845 15.9382 3.00586 16.0021 3.00586C16.066 3.00586 16.1293 3.01845 16.1883 3.04292C16.2474 3.06739 16.301 3.10325 16.3461 3.14846C18.6012 5.40357 18.4599 6.89335 18.1755 7.58046C17.8475 8.37246 17.035 8.84535 16.0021 8.84535Z" fill="#FAAA35"/>
<path d="M9.18427 12.2533C8.64649 12.2533 8.21094 11.8177 8.21094 11.2799V4.46747C8.21094 4.33965 8.23611 4.21309 8.28503 4.095C8.33394 3.97691 8.40564 3.86961 8.49602 3.77922C8.5864 3.68884 8.6937 3.61715 8.81179 3.56823C8.92988 3.51932 9.05645 3.49414 9.18427 3.49414C9.31209 3.49414 9.43866 3.51932 9.55675 3.56823C9.67484 3.61715 9.78214 3.68884 9.87252 3.77922C9.9629 3.86961 10.0346 3.97691 10.0835 4.095C10.1324 4.21309 10.1576 4.33965 10.1576 4.46747V11.2799C10.1576 11.8177 9.72205 12.2533 9.18427 12.2533Z" fill="#FFF8E8"/>
<path d="M9.18964 5.92543C8.15675 5.92543 7.3443 5.45254 7.0163 4.66054C6.73097 3.97343 6.59053 2.48276 8.84564 0.228538C8.89079 0.183331 8.94442 0.147469 9.00344 0.123C9.06247 0.0985317 9.12574 0.0859375 9.18964 0.0859375C9.25353 0.0859375 9.3168 0.0985317 9.37583 0.123C9.43485 0.147469 9.48848 0.183331 9.53364 0.228538C11.7887 2.48365 11.6474 3.97343 11.363 4.66054C11.035 5.45254 10.2225 5.92543 9.18964 5.92543Z" fill="#FAAA35"/>
</g>
<defs>
<clipPath id="clip0_0_8055">
<rect width="32" height="32" fill="white"/>
</clipPath>
</defs>
</svg>
