<svg width="32" height="32" viewBox="0 0 32 32" fill="none" xmlns="http://www.w3.org/2000/svg">
<path d="M29.7143 14.2857C30.2857 15.4286 30.8571 17.7406 30.8571 17.7406L30.2857 17.1691L25.312 21.3554L3.90857 21.8286C3.90857 21.8286 4 21.1429 0 19.4286C0.571429 13.7143 5.05143 12.3314 5.05143 12.3314C7.74857 10.9829 10.7086 10.2857 13.7143 10.2857H16L17.1429 11.4286H20.5714V8C21.8598 7.99967 23.1305 8.30022 24.2823 8.87771C24.7314 9.10286 24.9086 9.552 25.312 9.85714C25.6137 10.0857 26.2206 10.4743 26.4914 10.7451L27.4286 11.4286C27.4286 11.4286 29.1429 13.1429 29.7143 14.2857Z" fill="#F8312F"/>
<path d="M29.713 12.5714H4.45856C4.45856 12.5714 3.62473 12.8282 2.75 13.7143C5.14286 13.7143 29.713 13.7143 29.713 13.7143V12.5714Z" fill="#F4F4F4"/>
<path d="M27.4286 19.4286H0V21.7143H27.4286V19.4286Z" fill="#CA0B4A"/>
<path d="M18.2857 17.1429H21.1428C22.0914 17.1429 22.8571 16.3772 22.8571 15.4286C22.8571 14.48 22.0914 13.7143 21.1428 13.7143H18.2857V17.1429Z" fill="#F9C23C"/>
<path d="M19.4286 11.4286H20.5714V8C19.9429 8 19.4286 8.51429 19.4286 9.14286V11.4286ZM17.1429 13.7143H18.2857V17.1429H17.1429V13.7143Z" fill="#636363"/>
<path d="M24.2743 8.87277L21.7143 11.4282H27.4286L26.4229 10.4225C25.7946 9.7938 25.0691 9.27051 24.2743 8.87277Z" fill="#E6E6E6"/>
<path d="M11.4286 20C11.4286 21.0609 11.0071 22.0783 10.257 22.8284C9.50684 23.5786 8.48942 24 7.42856 24C6.36769 24 5.35028 23.5786 4.60013 22.8284C3.84999 22.0783 3.42856 21.0609 3.42856 20C3.42856 18.9391 3.84999 17.9217 4.60013 17.1716C5.35028 16.4214 6.36769 16 7.42856 16C8.48942 16 9.50684 16.4214 10.257 17.1716C11.0071 17.9217 11.4286 18.9391 11.4286 20ZM32 20C32 21.0609 31.5786 22.0783 30.8284 22.8284C30.0783 23.5786 29.0609 24 28 24C26.9391 24 25.9217 23.5786 25.1716 22.8284C24.4214 22.0783 24 21.0609 24 20C24 18.9391 24.4214 17.9217 25.1716 17.1716C25.9217 16.4214 26.9391 16 28 16C29.0609 16 30.0783 16.4214 30.8284 17.1716C31.5786 17.9217 32 18.9391 32 20Z" fill="#321B41"/>
<path d="M9.14287 20C9.14287 20.4546 8.96225 20.8907 8.64076 21.2122C8.31927 21.5337 7.88324 21.7143 7.42858 21.7143C6.97392 21.7143 6.53789 21.5337 6.2164 21.2122C5.89491 20.8907 5.71429 20.4546 5.71429 20C5.71429 19.5453 5.89491 19.1093 6.2164 18.7878C6.53789 18.4663 6.97392 18.2857 7.42858 18.2857C7.88324 18.2857 8.31927 18.4663 8.64076 18.7878C8.96225 19.1093 9.14287 19.5453 9.14287 20ZM29.7143 20C29.7143 20.4546 29.5337 20.8907 29.2122 21.2122C28.8907 21.5337 28.4547 21.7143 28 21.7143C27.5454 21.7143 27.1093 21.5337 26.7878 21.2122C26.4663 20.8907 26.2857 20.4546 26.2857 20C26.2857 19.5453 26.4663 19.1093 26.7878 18.7878C27.1093 18.4663 27.5454 18.2857 28 18.2857C28.4547 18.2857 28.8907 18.4663 29.2122 18.7878C29.5337 19.1093 29.7143 19.5453 29.7143 20Z" fill="#F4F4F4"/>
</svg>
