<svg width="64" height="64" viewBox="0 0 64 64" fill="none" xmlns="http://www.w3.org/2000/svg">
<circle cx="32" cy="32" r="32" fill="#E6FAF9"/>
<path d="M44.5846 42.3264C44.5846 44.0986 43.1346 45.5487 41.3624 45.5487H23.6402C21.868 45.5487 20.418 44.0986 20.418 42.3264V28.6317C20.418 26.8594 21.868 25.4094 23.6402 25.4094H41.3624C43.1346 25.4094 44.5846 26.8594 44.5846 28.6317V42.3264Z" fill="#03C9C3"/>
<path fill-rule="evenodd" clip-rule="evenodd" d="M41.3624 45.549C43.1346 45.549 44.5846 44.0989 44.5846 42.3267V35.3124C42.4533 38.6073 38.6226 41.8382 31.9999 42.5005C27.3051 42.97 23.4776 43.0721 20.4875 42.9925C20.7965 44.4481 22.096 45.549 23.6401 45.549H41.3624Z" fill="#03B5B0"/>
<path d="M47 26.2163C47 27.9886 45.55 29.4386 43.7778 29.4386H21.2222C19.45 29.4386 18 27.9886 18 26.2163C18 24.444 19.45 22.994 21.2222 22.994H43.7778C45.55 22.994 47 24.444 47 26.2163Z" fill="#03C9C3"/>
<path d="M20.418 29.438H44.5846V31.0491H20.418V29.438Z" fill="#03B5B0"/>
<path d="M33.3071 19.7705H31.696C31.055 19.7705 30.4403 20.0251 29.9871 20.4783C29.5339 20.9316 29.2793 21.5463 29.2793 22.1872V45.5488H35.7237V22.1872C35.7237 21.5463 35.4691 20.9316 35.0159 20.4783C34.5627 20.0251 33.948 19.7705 33.3071 19.7705Z" fill="#B1EEEC"/>
<path d="M30.8879 22.9925C31.774 22.9925 31.9053 22.5769 31.1787 22.0686L25.7638 18.2775C25.5976 18.1566 25.4076 18.0724 25.2064 18.0306C25.0051 17.9889 24.7973 17.9905 24.5968 18.0354C24.3962 18.0803 24.2075 18.1675 24.0433 18.291C23.8791 18.4146 23.7431 18.5717 23.6444 18.752L22.0204 21.5941C21.5805 22.3634 21.9463 22.9925 22.8324 22.9925H30.8879ZM34.1101 22.9925C33.224 22.9925 33.0927 22.5769 33.8193 22.0686L39.2351 18.2775C39.4013 18.1567 39.5913 18.0726 39.7925 18.0309C39.9937 17.9893 40.2015 17.9909 40.402 18.0358C40.6025 18.0807 40.7912 18.1678 40.9554 18.2913C41.1197 18.4148 41.2557 18.5718 41.3545 18.752L42.9785 21.5933C43.4175 22.3634 43.0518 22.9925 42.1657 22.9925H34.1101Z" fill="#B1EEEC"/>
</svg>
