<svg width="64" height="64" viewBox="0 0 64 64" fill="none" xmlns="http://www.w3.org/2000/svg">
<rect width="64" height="64" fill="white"/>
<circle cx="32" cy="32" r="32" fill="#E6FAF9"/>
<path d="M37.8413 37.9047C38.4889 37.9047 39.0286 38.1206 39.4604 38.5523C39.6353 38.7856 39.7787 39.0504 39.8736 39.3296C40.0184 39.7556 39.7209 40.1681 39.2997 40.3261L31.6984 43.1766C31.4819 43.2577 31.2452 43.2673 31.0229 43.2038L24.5924 41.3665C24.129 41.2341 23.8096 40.8106 23.8096 40.3287V32.5079C23.8096 31.9118 24.2928 31.4285 24.8889 31.4285H25.0875C25.5987 31.4285 26.1058 31.5193 26.5852 31.6966L33.7397 34.3428C34.2794 34.5587 34.6032 34.9904 34.6032 35.5301C34.6032 35.8539 34.4953 36.1777 34.2794 36.3936C34.0635 36.6095 33.6318 36.8254 33.308 36.8254H30.8932C30.4917 36.8254 30.0938 36.7507 29.7196 36.6052L28.8419 36.2638C28.5703 36.1583 28.2657 36.3013 28.1736 36.5777V36.5777C28.0872 36.8368 28.2205 37.1179 28.4757 37.2152L30.2858 37.9047H37.8413ZM17.3334 32.5079C17.3334 31.9118 17.8166 31.4285 18.4127 31.4285H20.5715C21.1676 31.4285 21.6508 31.9118 21.6508 32.5079V42.2222C21.6508 42.8183 21.1676 43.3016 20.5715 43.3016H18.4127C17.8166 43.3016 17.3334 42.8183 17.3334 42.2222V32.5079Z" fill="#03C9C3"/>
<path d="M33.2137 20.1632C32.8083 20.1632 32.4274 20.3577 32.1898 20.6863L28.8757 25.2675C28.5921 25.6595 28.6222 26.1967 28.9478 26.5546L37.1794 35.6009C37.263 35.6927 37.4075 35.6927 37.491 35.6009L45.7191 26.5546C46.0447 26.1967 46.0747 25.6596 45.7911 25.2676L42.4769 20.6863C42.2393 20.3577 41.8585 20.1632 41.453 20.1632H33.2137Z" fill="#03B5B0"/>
<mask id="mask0_0_4556" style="mask-type:alpha" maskUnits="userSpaceOnUse" x="28" y="20" width="18" height="16">
<path d="M33.2137 20.1632C32.8083 20.1632 32.4274 20.3577 32.1898 20.6863L28.8757 25.2675C28.5921 25.6595 28.6222 26.1967 28.9478 26.5546L37.1794 35.6009C37.263 35.6927 37.4075 35.6927 37.491 35.6009L45.7191 26.5546C46.0447 26.1967 46.0747 25.6596 45.7911 25.2676L42.4769 20.6863C42.2393 20.3577 41.8585 20.1632 41.453 20.1632H33.2137Z" fill="#03B5B0"/>
</mask>
<g mask="url(#mask0_0_4556)">
<path d="M32.1898 20.6863L28.5649 25.6972C28.4915 25.7986 28.5639 25.9404 28.6891 25.9404H46.2778L42.4769 20.6863C42.2393 20.3577 41.8585 20.1632 41.453 20.1632H33.2137C32.8083 20.1632 32.4274 20.3577 32.1898 20.6863Z" fill="#03C9C3"/>
</g>
<path d="M37.2992 20.1827L33.1448 25.9401H41.4649L37.3105 20.1827V20.167L37.3049 20.1748L37.2992 20.167V20.1827Z" fill="#B1EEEC"/>
<path d="M33.1448 25.9403H41.4649L37.4319 35.6058C37.396 35.6919 37.2741 35.6922 37.2377 35.6063L33.1448 25.9403Z" fill="#03C9C3"/>
</svg>
