<svg width="64" height="64" viewBox="0 0 64 64" fill="none" xmlns="http://www.w3.org/2000/svg">
<circle cx="32" cy="32" r="32" fill="#E6FAF9"/>
<g clip-path="url(#clip0_0_4559)">
<path d="M32.5004 47.7499C40.7156 47.7499 47.3754 41.0901 47.3754 32.8749C47.3754 24.6596 40.7156 17.9999 32.5004 17.9999C24.2851 17.9999 17.6254 24.6596 17.6254 32.8749C17.6254 41.0901 24.2851 47.7499 32.5004 47.7499Z" fill="#03B5B0"/>
<path d="M32.5004 46C40.7156 46 47.3754 39.3402 47.3754 31.125C47.3754 22.9098 40.7156 16.25 32.5004 16.25C24.2851 16.25 17.6254 22.9098 17.6254 31.125C17.6254 39.3402 24.2851 46 32.5004 46Z" fill="#B1EEEC"/>
<path d="M32.4998 44.2489C39.2652 44.2489 44.7498 38.7644 44.7498 31.9989C44.7498 25.2334 39.2652 19.7489 32.4998 19.7489C25.7343 19.7489 20.2498 25.2334 20.2498 31.9989C20.2498 38.7644 25.7343 44.2489 32.4998 44.2489Z" fill="#D9F7F6"/>
<path d="M32.4998 43.3753C39.2652 43.3753 44.7498 37.8908 44.7498 31.1253C44.7498 24.3598 39.2652 18.8753 32.4998 18.8753C25.7343 18.8753 20.2498 24.3598 20.2498 31.1253C20.2498 37.8908 25.7343 43.3753 32.4998 43.3753Z" fill="#03C9C3"/>
<path fill-rule="evenodd" clip-rule="evenodd" d="M29.6965 25.3688C30.5272 24.5381 31.6539 24.0714 32.8287 24.0714C34.0036 24.0714 35.1303 24.5381 35.961 25.3688C36.7917 26.1996 37.2584 27.3263 37.2584 28.5011C37.2584 29.3166 36.5973 29.9777 35.7819 29.9777C34.9664 29.9777 34.3053 29.3166 34.3053 28.5011C34.3053 28.1095 34.1497 27.7339 33.8728 27.457C33.5959 27.1801 33.2203 27.0245 32.8287 27.0245C32.4371 27.0245 32.0616 27.1801 31.7846 27.457C31.5077 27.7339 31.3522 28.1095 31.3522 28.5011V34.4073C31.3522 34.799 31.5077 35.1745 31.7846 35.4514C32.0616 35.7283 32.4371 35.8839 32.8287 35.8839C33.2203 35.8839 33.5959 35.7283 33.8728 35.4514C34.1497 35.1745 34.3053 34.799 34.3053 34.4073C34.3053 33.5919 34.9664 32.9308 35.7819 32.9308C36.5973 32.9308 37.2584 33.5919 37.2584 34.4073C37.2584 35.5822 36.7917 36.7089 35.961 37.5396C35.1303 38.3703 34.0036 38.837 32.8287 38.837C31.6539 38.837 30.5272 38.3703 29.6965 37.5396C28.8657 36.7089 28.399 35.5822 28.399 34.4073V28.5011C28.399 27.3263 28.8657 26.1996 29.6965 25.3688Z" fill="#03B5B0"/>
<path fill-rule="evenodd" clip-rule="evenodd" d="M29.6965 24.7123C30.5272 23.8816 31.6539 23.4149 32.8287 23.4149C34.0036 23.4149 35.1303 23.8816 35.961 24.7123C36.7917 25.543 37.2584 26.6697 37.2584 27.8445C37.2584 28.66 36.5973 29.3211 35.7819 29.3211C34.9664 29.3211 34.3053 28.66 34.3053 27.8445C34.3053 27.4529 34.1497 27.0774 33.8728 26.8005C33.5959 26.5235 33.2203 26.368 32.8287 26.368C32.4371 26.368 32.0616 26.5235 31.7846 26.8005C31.5077 27.0774 31.3522 27.4529 31.3522 27.8445V33.7508C31.3522 34.1424 31.5077 34.518 31.7846 34.7949C32.0616 35.0718 32.4371 35.2274 32.8287 35.2274C33.2203 35.2274 33.5959 35.0718 33.8728 34.7949C34.1497 34.518 34.3053 34.1424 34.3053 33.7508C34.3053 32.9353 34.9664 32.2742 35.7819 32.2742C36.5973 32.2742 37.2584 32.9353 37.2584 33.7508C37.2584 34.9256 36.7917 36.0523 35.961 36.8831C35.1303 37.7138 34.0036 38.1805 32.8287 38.1805C31.6539 38.1805 30.5272 37.7138 29.6965 36.8831C28.8657 36.0523 28.399 34.9256 28.399 33.7508V27.8445C28.399 26.6697 28.8657 25.543 29.6965 24.7123Z" fill="#E6FAF9"/>
</g>
<defs>
<clipPath id="clip0_0_4559">
<rect width="31.5" height="31.5" fill="white" transform="translate(16.75 16.25)"/>
</clipPath>
</defs>
</svg>
