<svg width="33" height="32" viewBox="0 0 33 32" fill="none" xmlns="http://www.w3.org/2000/svg">
<path d="M16.4991 28.4436C21.1629 28.4436 24.9436 22.872 24.9436 15.9991C24.9436 9.12626 21.1629 3.55469 16.4991 3.55469C11.8354 3.55469 8.05469 9.12626 8.05469 15.9991C8.05469 22.872 11.8354 28.4436 16.4991 28.4436Z" fill="#A57939"/>
<path fill-rule="evenodd" clip-rule="evenodd" d="M16.5008 28.4455C16.4941 28.4455 16.4924 28.4358 16.499 28.434C20.2612 27.1744 23.075 22.0962 23.075 16.0238C23.075 9.94775 20.2577 4.86731 16.4928 3.61131C16.4617 3.60153 16.4684 3.55664 16.5008 3.55664C21.1644 3.55664 24.9452 9.1282 24.9452 16.0011C24.9452 22.874 21.1644 28.4455 16.5008 28.4455Z" fill="#6A462F"/>
<path d="M22.6288 16.0224C22.6288 18.9927 21.9399 21.7069 20.8044 23.8224C19.6666 25.942 18.0986 27.4278 16.3559 28.0109L16.6382 28.8544C18.6577 28.178 20.3782 26.4949 21.5875 24.2424C22.7995 21.9855 23.5177 19.1247 23.5177 16.0224H22.6288ZM16.3502 4.03133C18.0942 4.61355 19.663 6.09888 20.8026 8.21888C21.9395 10.3344 22.6288 13.05 22.6288 16.0224H23.5177C23.5177 12.9184 22.7986 10.0558 21.5857 7.79844C20.3751 5.54511 18.6528 3.86288 16.6315 3.18866L16.3502 4.03177V4.03133ZM16.4991 4.00022C18.6399 4.00022 20.6288 5.27888 22.1026 7.44999C23.5742 9.61933 24.499 12.6411 24.499 16.0002H25.3879C25.3879 12.4869 24.4222 9.286 22.8382 6.95133C21.2546 4.61844 19.0222 3.11133 16.4991 3.11133V4.00022ZM24.499 16.0002C24.499 19.3598 23.5746 22.3811 22.1026 24.55C20.6288 26.7216 18.6399 28.0002 16.4991 28.0002V28.8891C19.0222 28.8891 21.2551 27.3816 22.8382 25.0491C24.4222 22.7149 25.3879 19.5144 25.3879 16.0002H24.499ZM16.6315 3.18911C16.7245 3.2211 16.8033 3.28496 16.8537 3.36941C16.9042 3.45385 16.9232 3.55342 16.9074 3.65052C16.8915 3.74762 16.8418 3.83598 16.7671 3.89998C16.6924 3.96398 16.5974 3.99948 16.4991 4.00022V3.11133C16.3859 3.11118 16.2765 3.15174 16.1909 3.22559C16.1052 3.29944 16.0489 3.40165 16.0324 3.51355C16.0031 3.70733 16.1008 3.94866 16.3502 4.03177L16.6315 3.18911ZM16.3559 28.0113C15.8559 28.1789 16.0048 28.8891 16.4991 28.8891V28.0002C16.9791 28.0002 17.1253 28.6913 16.6382 28.8544L16.3559 28.0113Z" fill="#6A462F"/>
<path fill-rule="evenodd" clip-rule="evenodd" d="M16.5026 27.1109C16.5026 27.1109 13.8359 22.1362 13.8359 15.9998C13.8359 9.88423 16.4848 4.92245 16.5026 4.88867C16.4897 4.91267 15.1693 7.39089 15.1693 10.4442C15.1693 13.5122 16.5026 15.9998 16.5026 15.9998C16.5026 15.9998 17.8359 18.4869 17.8359 21.5553C17.8359 24.6233 16.5026 27.1109 16.5026 27.1109Z" fill="#6A462F"/>
<path d="M16.5017 27.1103L16.1102 27.3201C16.1482 27.3909 16.2047 27.45 16.2736 27.4912C16.3426 27.5325 16.4214 27.5542 16.5017 27.5542C16.5821 27.5542 16.6609 27.5325 16.7299 27.4912C16.7988 27.45 16.8553 27.3909 16.8933 27.3201L16.5017 27.1103ZM16.5017 4.88808L16.8937 5.09741C16.9493 4.99345 16.9613 4.87166 16.9271 4.75885C16.8929 4.64604 16.8153 4.55143 16.7113 4.49586C16.6073 4.44028 16.4855 4.42828 16.3727 4.46249C16.2599 4.49671 16.1653 4.57434 16.1097 4.6783L16.5017 4.88808ZM13.3906 15.9992C13.3906 19.129 14.0702 21.9556 14.7462 23.9956C15.0176 24.8177 15.329 25.6261 15.6791 26.4179C15.8047 26.7005 15.9374 26.98 16.0768 27.2561L16.1008 27.3023L16.1071 27.3147L16.1093 27.3183V27.3196L16.5017 27.1103C16.8933 26.9001 16.8937 26.9001 16.8937 26.9005L16.8924 26.8983L16.8875 26.889L16.8671 26.849C16.8394 26.7956 16.8123 26.742 16.7857 26.6881C16.6834 26.4795 16.5852 26.2689 16.4911 26.0565C16.153 25.2914 15.8523 24.5104 15.5902 23.7161C14.9333 21.7343 14.2795 19.0054 14.2795 15.9992H13.3906ZM16.1097 4.6783C16.0813 4.73163 13.3906 9.77163 13.3906 15.9992H14.2795C14.2795 9.99475 16.8857 5.11252 16.8937 5.09786L16.1097 4.6783ZM15.6128 10.4436C15.6128 8.9783 15.9302 7.64408 16.2524 6.66897C16.5737 5.69563 16.8955 5.09386 16.8937 5.09741L16.1097 4.67875C16.0866 4.72141 14.724 7.27875 14.724 10.4432L15.6128 10.4436ZM16.5017 15.9992C16.8933 15.789 16.8937 15.789 16.8937 15.7894L16.8915 15.785C16.8748 15.7535 16.8587 15.7218 16.8431 15.6899C16.8088 15.6205 16.7595 15.5165 16.6995 15.3819C16.5334 15.006 16.3857 14.6223 16.2568 14.2321C15.9333 13.2556 15.6128 11.9156 15.6128 10.4436L14.724 10.4432C14.724 12.0387 15.0702 13.477 15.4128 14.5116C15.551 14.9295 15.7094 15.3403 15.8875 15.7427C15.9521 15.8881 16.0203 16.0319 16.092 16.1739L16.1044 16.1987C16.1062 16.2014 16.1071 16.2041 16.1084 16.2054L16.1093 16.2076L16.1097 16.2085L16.5017 15.9992ZM16.5017 15.9992L16.1097 16.2085L16.112 16.2134C16.1286 16.2449 16.1448 16.2766 16.1604 16.3085C16.1946 16.3774 16.244 16.4814 16.304 16.6161C16.424 16.8863 16.5853 17.2792 16.7466 17.7659C17.0702 18.7423 17.3906 20.0827 17.3906 21.5547H18.2795C18.2795 19.9587 17.9333 18.521 17.5906 17.4863C17.4525 17.0685 17.2941 16.6576 17.116 16.2552C17.0477 16.1015 16.9753 15.9496 16.8991 15.7996L16.8951 15.7925L16.8942 15.7903L16.8937 15.7894L16.5017 15.9992ZM17.3906 21.5547C17.3906 23.0267 17.0702 24.3667 16.7462 25.3432C16.6175 25.7334 16.4699 26.1171 16.304 26.493C16.2434 26.629 16.1794 26.7634 16.112 26.8961L16.1102 26.9001L16.5017 27.1103L16.8933 27.3201L16.8937 27.3187C16.8946 27.3183 16.8946 27.3174 16.8951 27.3165C16.8964 27.3152 16.8973 27.3125 16.8991 27.3099L16.912 27.285C16.9226 27.2636 16.9386 27.233 16.9577 27.1939C16.9964 27.1147 17.0511 27.0005 17.116 26.8543C17.2939 26.4519 17.4522 26.041 17.5902 25.6232C17.9333 24.5876 18.2795 23.1503 18.2795 21.5547H17.3906Z" fill="#6A462F"/>
<path d="M16.4991 28.4436C21.1629 28.4436 24.9436 22.872 24.9436 15.9991C24.9436 9.12626 21.1629 3.55469 16.4991 3.55469C11.8354 3.55469 8.05469 9.12626 8.05469 15.9991C8.05469 22.872 11.8354 28.4436 16.4991 28.4436Z" stroke="#6A462F" stroke-width="0.888889"/>
<path d="M16.4974 4.88867C16.4974 4.88867 15.1641 7.37578 15.1641 10.4442C15.1641 13.5127 16.4974 15.9998 16.4974 15.9998C16.4974 15.9998 17.8307 18.4869 17.8307 21.5553C17.8307 24.6238 16.4974 27.1109 16.4974 27.1109" stroke="#6A462F" stroke-width="0.888889" stroke-linecap="round" stroke-linejoin="round"/>
</svg>
