<svg width="140" height="140" viewBox="0 0 140 140" fill="none" xmlns="http://www.w3.org/2000/svg">
<g clip-path="url(#clip0_0_7972)">
<path d="M70.75 130.75C102.783 130.75 128.75 104.783 128.75 72.75C128.75 40.7175 102.783 14.75 70.75 14.75C38.7175 14.75 12.75 40.7175 12.75 72.75C12.75 104.783 38.7175 130.75 70.75 130.75Z" fill="#03B5B0"/>
<path d="M70.75 124.75C102.783 124.75 128.75 98.7825 128.75 66.75C128.75 34.7175 102.783 8.75 70.75 8.75C38.7175 8.75 12.75 34.7175 12.75 66.75C12.75 98.7825 38.7175 124.75 70.75 124.75Z" fill="#B1EEEC"/>
<path d="M69.75 117.75C96.2597 117.75 117.75 96.2597 117.75 69.75C117.75 43.2403 96.2597 21.75 69.75 21.75C43.2403 21.75 21.75 43.2403 21.75 69.75C21.75 96.2597 43.2403 117.75 69.75 117.75Z" fill="#D9F7F6"/>
<path d="M70 114.75C96.5097 114.75 118 93.2597 118 66.75C118 40.2403 96.5097 18.75 70 18.75C43.4903 18.75 22 40.2403 22 66.75C22 93.2597 43.4903 114.75 70 114.75Z" fill="#03C9C3"/>
</g>
<g filter="url(#filter0_d_0_7972)">
<path d="M43.9492 67V63.6367L51.168 57.293C52.8496 55.7617 53.8066 54.75 53.8203 53.2461C53.8066 51.5918 52.5898 50.5801 50.9219 50.5664C49.2266 50.5801 48.0918 51.6465 48.1055 53.4375H43.6758C43.6621 49.4453 46.5879 46.9297 50.9492 46.9297C55.4062 46.9297 58.3184 49.3496 58.332 52.8906C58.3184 55.1602 57.1973 57.0605 52.918 60.793L50.4297 63.0898V63.2266H58.5781V67H43.9492ZM69.3516 67.2734C64.2109 67.2734 61.0664 63.5957 61.0664 57.1016C61.0664 50.6074 64.2109 46.9297 69.3516 46.9297C74.4922 46.9297 77.6504 50.6348 77.6367 57.1016C77.6504 63.6094 74.4922 67.2734 69.3516 67.2734ZM65.8516 57.1016C65.8379 61.4902 67.2461 63.4727 69.3516 63.4727C71.457 63.4727 72.8652 61.4902 72.8516 57.1016C72.8516 52.7812 71.457 50.7168 69.3516 50.7031C67.2598 50.7168 65.8652 52.7812 65.8516 57.1016ZM88.4375 67.2734C83.2969 67.2734 80.1523 63.5957 80.1523 57.1016C80.1523 50.6074 83.2969 46.9297 88.4375 46.9297C93.5781 46.9297 96.7363 50.6348 96.7227 57.1016C96.7363 63.6094 93.5781 67.2734 88.4375 67.2734ZM84.9375 57.1016C84.9238 61.4902 86.332 63.4727 88.4375 63.4727C90.543 63.4727 91.9512 61.4902 91.9375 57.1016C91.9375 52.7812 90.543 50.7168 88.4375 50.7031C86.3457 50.7168 84.9512 52.7812 84.9375 57.1016Z" fill="white"/>
</g>
<g filter="url(#filter1_d_0_7972)">
<path d="M62.1719 81.5C61.9297 80.1406 60.8438 79.3594 59.4688 79.3594C57.6172 79.3594 56.3047 80.7812 56.3125 83.3438C56.3047 85.9453 57.625 87.3281 59.4688 87.3281C60.8125 87.3281 61.8984 86.5781 62.1719 85.25H64.2188C63.9062 87.4219 62.1172 89.1562 59.4375 89.1562C56.4531 89.1562 54.2578 86.9922 54.2656 83.3438C54.2578 79.6875 56.4766 77.5312 59.4375 77.5312C61.9375 77.5312 63.8672 78.9844 64.2188 81.5H62.1719ZM69.5781 89.1719C67.1016 89.1719 65.5156 87.4141 65.5156 84.7969C65.5156 82.1562 67.1016 80.4062 69.5781 80.4062C72.0625 80.4062 73.6484 82.1562 73.6406 84.7969C73.6484 87.4141 72.0625 89.1719 69.5781 89.1719ZM67.5312 84.7812C67.5312 86.3359 68.2109 87.5781 69.5938 87.5781C70.9531 87.5781 71.6328 86.3359 71.625 84.7812C71.6328 83.2266 70.9531 81.9766 69.5938 81.9844C68.2109 81.9766 67.5312 83.2266 67.5312 84.7812ZM75.1875 89V80.5156H77.1875V89H75.1875ZM75.0469 78.2188C75.0469 77.625 75.5703 77.1406 76.2031 77.1406C76.8359 77.1406 77.3594 77.625 77.3594 78.2188C77.3594 78.8203 76.8359 79.3047 76.2031 79.3125C75.5703 79.3047 75.0469 78.8203 75.0469 78.2188ZM81.0938 84.0312V89H79.0938V80.5156H81V81.9531H81.1094C81.4922 81.0078 82.3594 80.4062 83.625 80.4062C85.3828 80.4062 86.5391 81.5625 86.5312 83.5938V89H84.5469V83.9062C84.5469 82.7656 83.9297 82.0859 82.8906 82.0938C81.8359 82.0859 81.0938 82.7969 81.0938 84.0312Z" fill="white"/>
</g>
<defs>
<filter id="filter0_d_0_7972" x="43.6621" y="46.9297" width="53.0742" height="22.3438" filterUnits="userSpaceOnUse" color-interpolation-filters="sRGB">
<feFlood flood-opacity="0" result="BackgroundImageFix"/>
<feColorMatrix in="SourceAlpha" type="matrix" values="0 0 0 0 0 0 0 0 0 0 0 0 0 0 0 0 0 0 127 0" result="hardAlpha"/>
<feOffset dy="2"/>
<feComposite in2="hardAlpha" operator="out"/>
<feColorMatrix type="matrix" values="0 0 0 0 0 0 0 0 0 0 0 0 0 0 0 0 0 0 0.12 0"/>
<feBlend mode="normal" in2="BackgroundImageFix" result="effect1_dropShadow_0_7972"/>
<feBlend mode="normal" in="SourceGraphic" in2="effect1_dropShadow_0_7972" result="shape"/>
</filter>
<filter id="filter1_d_0_7972" x="54.2578" y="77.1406" width="32.2812" height="13.0312" filterUnits="userSpaceOnUse" color-interpolation-filters="sRGB">
<feFlood flood-opacity="0" result="BackgroundImageFix"/>
<feColorMatrix in="SourceAlpha" type="matrix" values="0 0 0 0 0 0 0 0 0 0 0 0 0 0 0 0 0 0 127 0" result="hardAlpha"/>
<feOffset dy="1"/>
<feComposite in2="hardAlpha" operator="out"/>
<feColorMatrix type="matrix" values="0 0 0 0 0 0 0 0 0 0 0 0 0 0 0 0 0 0 0.12 0"/>
<feBlend mode="normal" in2="BackgroundImageFix" result="effect1_dropShadow_0_7972"/>
<feBlend mode="normal" in="SourceGraphic" in2="effect1_dropShadow_0_7972" result="shape"/>
</filter>
<clipPath id="clip0_0_7972">
<rect width="117" height="123" fill="white" transform="translate(12 8)"/>
</clipPath>
</defs>
</svg>
