<svg width="40" height="40" viewBox="0 0 40 40" fill="none" xmlns="http://www.w3.org/2000/svg">
<g clip-path="url(#clip0_0_5529)">
<path d="M17.4999 36.9999C26.628 36.9999 34.0277 29.6002 34.0277 20.4721C34.0277 11.3441 26.628 3.94434 17.4999 3.94434C8.37191 3.94434 0.972168 11.3441 0.972168 20.4721C0.972168 29.6002 8.37191 36.9999 17.4999 36.9999Z" fill="#03B5B0"/>
<path d="M17.4999 35.0556C26.628 35.0556 34.0277 27.6558 34.0277 18.5278C34.0277 9.39974 26.628 2 17.4999 2C8.37191 2 0.972168 9.39974 0.972168 18.5278C0.972168 27.6558 8.37191 35.0556 17.4999 35.0556Z" fill="#B1EEEC"/>
<path d="M17.5003 33.1099C25.0175 33.1099 31.1114 27.016 31.1114 19.4988C31.1114 11.9816 25.0175 5.8877 17.5003 5.8877C9.98306 5.8877 3.88916 11.9816 3.88916 19.4988C3.88916 27.016 9.98306 33.1099 17.5003 33.1099Z" fill="#D9F7F6"/>
<path d="M17.5003 32.1392C25.0175 32.1392 31.1114 26.0453 31.1114 18.5281C31.1114 11.0109 25.0175 4.91699 17.5003 4.91699C9.98306 4.91699 3.88916 11.0109 3.88916 18.5281C3.88916 26.0453 9.98306 32.1392 17.5003 32.1392Z" fill="#03C9C3"/>
<path fill-rule="evenodd" clip-rule="evenodd" d="M14.3845 12.132C15.3075 11.209 16.5594 10.6904 17.8647 10.6904C19.1701 10.6904 20.422 11.209 21.345 12.132C22.2681 13.055 22.7866 14.3069 22.7866 15.6123C22.7866 16.5184 22.0521 17.2529 21.146 17.2529C20.2399 17.2529 19.5054 16.5184 19.5054 15.6123C19.5054 15.1772 19.3325 14.7599 19.0248 14.4522C18.7172 14.1445 18.2999 13.9717 17.8647 13.9717C17.4296 13.9717 17.0123 14.1445 16.7046 14.4522C16.397 14.7599 16.2241 15.1772 16.2241 15.6123V22.1748C16.2241 22.6099 16.397 23.0272 16.7046 23.3349C17.0123 23.6426 17.4296 23.8154 17.8647 23.8154C18.2999 23.8154 18.7172 23.6426 19.0248 23.3349C19.3325 23.0272 19.5054 22.6099 19.5054 22.1748C19.5054 21.2687 20.2399 20.5342 21.146 20.5342C22.0521 20.5342 22.7866 21.2687 22.7866 22.1748C22.7866 23.4802 22.2681 24.7321 21.345 25.6551C20.422 26.5781 19.1701 27.0967 17.8647 27.0967C16.5594 27.0967 15.3075 26.5781 14.3845 25.6551C13.4614 24.7321 12.9429 23.4802 12.9429 22.1748V15.6123C12.9429 14.3069 13.4614 13.055 14.3845 12.132Z" fill="#03B5B0"/>
<path fill-rule="evenodd" clip-rule="evenodd" d="M14.3845 11.4025C15.3075 10.4795 16.5594 9.96094 17.8647 9.96094C19.1701 9.96094 20.422 10.4795 21.345 11.4025C22.2681 12.3256 22.7866 13.5774 22.7866 14.8828C22.7866 15.7889 22.0521 16.5234 21.146 16.5234C20.2399 16.5234 19.5054 15.7889 19.5054 14.8828C19.5054 14.4477 19.3325 14.0304 19.0248 13.7227C18.7172 13.415 18.2999 13.2422 17.8647 13.2422C17.4296 13.2422 17.0123 13.415 16.7046 13.7227C16.397 14.0304 16.2241 14.4477 16.2241 14.8828V21.4453C16.2241 21.8804 16.397 22.2977 16.7046 22.6054C17.0123 22.9131 17.4296 23.0859 17.8647 23.0859C18.2999 23.0859 18.7172 22.9131 19.0248 22.6054C19.3325 22.2977 19.5054 21.8804 19.5054 21.4453C19.5054 20.5392 20.2399 19.8047 21.146 19.8047C22.0521 19.8047 22.7866 20.5392 22.7866 21.4453C22.7866 22.7507 22.2681 24.0026 21.345 24.9256C20.422 25.8486 19.1701 26.3672 17.8647 26.3672C16.5594 26.3672 15.3075 25.8486 14.3845 24.9256C13.4614 24.0026 12.9429 22.7507 12.9429 21.4453V14.8828C12.9429 13.5774 13.4614 12.3256 14.3845 11.4025Z" fill="#E6FAF9"/>
<circle cx="31.5" cy="29.5" r="9" fill="#E6FAF9"/>
<path fill-rule="evenodd" clip-rule="evenodd" d="M31.9513 22.8564C32.549 22.8564 33.0625 23.268 33.175 23.8372L33.225 24.0903C33.4215 25.0851 34.4829 25.6792 35.4698 25.3468L35.721 25.2622C36.2856 25.0721 36.91 25.2975 37.2089 25.7993L37.6603 26.5574C37.9592 27.0593 37.8483 27.6962 37.3961 28.0752L37.195 28.2438C36.4046 28.9062 36.4046 30.0944 37.195 30.7568L37.3961 30.9254C37.8483 31.3044 37.9592 31.9413 37.6603 32.4432L37.2089 33.2012C36.91 33.7031 36.2856 33.9285 35.721 33.7383L35.4699 33.6537C34.4829 33.3213 33.4215 33.9154 33.225 34.9103L33.175 35.1634C33.0625 35.7326 32.549 36.1441 31.9512 36.1441H31.0484C30.4507 36.1441 29.9371 35.7326 29.8247 35.1634L29.7746 34.9102C29.5781 33.9154 28.5167 33.3213 27.5298 33.6537L27.2787 33.7383C26.7141 33.9285 26.0896 33.7031 25.7908 33.2012L25.3393 32.4432C25.0405 31.9413 25.1513 31.3044 25.6035 30.9254L25.8047 30.7568C26.595 30.0944 26.595 28.9062 25.8047 28.2438L25.6035 28.0752C25.1513 27.6962 25.0405 27.0593 25.3393 26.5574L25.7908 25.7993C26.0897 25.2975 26.714 25.0721 27.2787 25.2623L27.5298 25.3468C28.5167 25.6792 29.5781 25.0852 29.7746 24.0903L29.8247 23.8371C29.9371 23.268 30.4507 22.8564 31.0484 22.8564H31.9513ZM31.4998 31.3985C32.5482 31.3985 33.3981 30.5487 33.3981 29.5003C33.3981 28.4519 32.5482 27.602 31.4998 27.602C30.4515 27.602 29.6016 28.4519 29.6016 29.5003C29.6016 30.5487 30.4515 31.3985 31.4998 31.3985Z" fill="#03B5B0"/>
</g>
<defs>
<clipPath id="clip0_0_5529">
<rect width="40" height="37" fill="white" transform="translate(0 1.5)"/>
</clipPath>
</defs>
</svg>
