<svg width="32" height="32" viewBox="0 0 32 32" fill="none" xmlns="http://www.w3.org/2000/svg">
<g clip-path="url(#clip0_0_2320)">
<path d="M16.0015 30.0001C23.304 30.0001 29.2237 24.0803 29.2237 16.7779C29.2237 9.47546 23.304 3.55566 16.0015 3.55566C8.69909 3.55566 2.7793 9.47546 2.7793 16.7779C2.7793 24.0803 8.69909 30.0001 16.0015 30.0001Z" fill="#03B5B0"/>
<path d="M16.0015 28.4444C23.304 28.4444 29.2237 22.5247 29.2237 15.2222C29.2237 7.91979 23.304 2 16.0015 2C8.69909 2 2.7793 7.91979 2.7793 15.2222C2.7793 22.5247 8.69909 28.4444 16.0015 28.4444Z" fill="#B1EEEC"/>
<path d="M16.0002 26.8879C22.014 26.8879 26.8891 22.0128 26.8891 15.9991C26.8891 9.98529 22.014 5.11017 16.0002 5.11017C9.98645 5.11017 5.11133 9.98529 5.11133 15.9991C5.11133 22.0128 9.98645 26.8879 16.0002 26.8879Z" fill="#D9F7F6"/>
<path d="M16.0002 26.1118C22.014 26.1118 26.8891 21.2366 26.8891 15.2229C26.8891 9.20911 22.014 4.33398 16.0002 4.33398C9.98645 4.33398 5.11133 9.20911 5.11133 15.2229C5.11133 21.2366 9.98645 26.1118 16.0002 26.1118Z" fill="#03C9C3"/>
<path fill-rule="evenodd" clip-rule="evenodd" d="M13.5087 10.1054C14.2472 9.36699 15.2487 8.95215 16.293 8.95215C17.3373 8.95215 18.3388 9.36699 19.0772 10.1054C19.8156 10.8438 20.2305 11.8454 20.2305 12.8896C20.2305 13.6145 19.6428 14.2021 18.918 14.2021C18.1931 14.2021 17.6055 13.6145 17.6055 12.8896C17.6055 12.5416 17.4672 12.2077 17.221 11.9616C16.9749 11.7154 16.6411 11.5771 16.293 11.5771C15.9449 11.5771 15.611 11.7154 15.3649 11.9616C15.1187 12.2077 14.9805 12.5416 14.9805 12.8896V18.1396C14.9805 18.4877 15.1187 18.8216 15.3649 19.0677C15.611 19.3139 15.9449 19.4521 16.293 19.4521C16.6411 19.4521 16.9749 19.3139 17.221 19.0677C17.4672 18.8216 17.6055 18.4877 17.6055 18.1396C17.6055 17.4148 18.1931 16.8271 18.918 16.8271C19.6428 16.8271 20.2305 17.4148 20.2305 18.1396C20.2305 19.1839 19.8156 20.1855 19.0772 20.9239C18.3388 21.6623 17.3373 22.0771 16.293 22.0771C15.2487 22.0771 14.2472 21.6623 13.5087 20.9239C12.7703 20.1855 12.3555 19.1839 12.3555 18.1396V12.8896C12.3555 11.8454 12.7703 10.8438 13.5087 10.1054Z" fill="#03B5B0"/>
<path fill-rule="evenodd" clip-rule="evenodd" d="M13.5087 9.52241C14.2472 8.78398 15.2487 8.36914 16.293 8.36914C17.3373 8.36914 18.3388 8.78398 19.0772 9.52241C19.8156 10.2608 20.2305 11.2623 20.2305 12.3066C20.2305 13.0315 19.6428 13.6191 18.918 13.6191C18.1931 13.6191 17.6055 13.0315 17.6055 12.3066C17.6055 11.9585 17.4672 11.6247 17.221 11.3786C16.9749 11.1324 16.6411 10.9941 16.293 10.9941C15.9449 10.9941 15.611 11.1324 15.3649 11.3786C15.1187 11.6247 14.9805 11.9585 14.9805 12.3066V17.5566C14.9805 17.9047 15.1187 18.2386 15.3649 18.4847C15.611 18.7309 15.9449 18.8691 16.293 18.8691C16.6411 18.8691 16.9749 18.7309 17.221 18.4847C17.4672 18.2386 17.6055 17.9047 17.6055 17.5566C17.6055 16.8318 18.1931 16.2441 18.918 16.2441C19.6428 16.2441 20.2305 16.8318 20.2305 17.5566C20.2305 18.6009 19.8156 19.6024 19.0772 20.3409C18.3388 21.0793 17.3373 21.4941 16.293 21.4941C15.2487 21.4941 14.2472 21.0793 13.5087 20.3409C12.7703 19.6024 12.3555 18.6009 12.3555 17.5566V12.3066C12.3555 11.2623 12.7703 10.2608 13.5087 9.52241Z" fill="#E6FAF9"/>
</g>
<defs>
<clipPath id="clip0_0_2320">
<rect width="28" height="28" fill="white" transform="translate(2 2)"/>
</clipPath>
</defs>
</svg>
