<svg width="40" height="40" viewBox="0 0 40 40" fill="none" xmlns="http://www.w3.org/2000/svg">
<circle cx="20" cy="20" r="20" fill="#E6FAF9"/>
<path d="M24.381 24.4286C24.8667 24.4286 25.2714 24.5905 25.5952 24.9143C25.7264 25.0892 25.834 25.2878 25.9052 25.4972C26.0138 25.8167 25.7907 26.1261 25.4747 26.2446L19.7738 28.3825C19.6114 28.4433 19.4338 28.4505 19.2671 28.4028L14.4443 27.0249C14.0967 26.9256 13.8571 26.6079 13.8571 26.2465V20.3809C13.8571 19.9338 14.2196 19.5714 14.6667 19.5714H14.8156C15.199 19.5714 15.5793 19.6395 15.9389 19.7725L21.3048 21.7571C21.7095 21.919 21.9524 22.2428 21.9524 22.6476C21.9524 22.8905 21.8714 23.1333 21.7095 23.2952C21.5476 23.4571 21.2238 23.619 20.981 23.619H19.1699C18.8688 23.619 18.5703 23.563 18.2897 23.4539L17.6314 23.1979C17.4277 23.1187 17.1993 23.226 17.1302 23.4333C17.0654 23.6276 17.1653 23.8385 17.3567 23.9114L18.7143 24.4286H24.381ZM9 20.3809C9 19.9338 9.36244 19.5714 9.80952 19.5714H11.4286C11.8757 19.5714 12.2381 19.9338 12.2381 20.3809V27.6667C12.2381 28.1137 11.8757 28.4762 11.4286 28.4762H9.80952C9.36244 28.4762 9 28.1137 9 27.6667V20.3809Z" fill="#03C9C3"/>
<path d="M20.9103 11.1224C20.6063 11.1224 20.3206 11.2683 20.1424 11.5147L17.6568 14.9506C17.4441 15.2447 17.4667 15.6475 17.7109 15.916L23.8846 22.7007C23.9473 22.7696 24.0557 22.7695 24.1183 22.7006L30.2894 15.916C30.5336 15.6475 30.5561 15.2447 30.3434 14.9507L27.8578 11.5147C27.6795 11.2683 27.3939 11.1224 27.0898 11.1224H20.9103Z" fill="#03B5B0"/>
<mask id="mask0_0_4027" style="mask-type:alpha" maskUnits="userSpaceOnUse" x="17" y="11" width="14" height="12">
<path d="M20.9103 11.1224C20.6063 11.1224 20.3206 11.2683 20.1424 11.5147L17.6568 14.9506C17.4441 15.2447 17.4667 15.6475 17.7109 15.916L23.8846 22.7007C23.9473 22.7696 24.0557 22.7695 24.1183 22.7006L30.2894 15.916C30.5336 15.6475 30.5561 15.2447 30.3434 14.9507L27.8578 11.5147C27.6795 11.2683 27.3939 11.1224 27.0898 11.1224H20.9103Z" fill="#03B5B0"/>
</mask>
<g mask="url(#mask0_0_4027)">
<path d="M20.1424 11.5147L17.4237 15.2729C17.3687 15.3489 17.423 15.4553 17.5169 15.4553H30.7084L27.8578 11.5147C27.6795 11.2683 27.3939 11.1224 27.0898 11.1224H20.9103C20.6063 11.1224 20.3206 11.2683 20.1424 11.5147Z" fill="#03C9C3"/>
</g>
<path d="M23.9745 11.137L20.8586 15.455H27.0987L23.9829 11.137V11.1252L23.9787 11.1311L23.9745 11.1252V11.137Z" fill="#B1EEEC"/>
<path d="M20.8586 15.4552H27.0987L24.074 22.7044C24.047 22.7689 23.9556 22.7692 23.9284 22.7047L20.8586 15.4552Z" fill="#03C9C3"/>
</svg>
