<svg width="16" height="16" viewBox="0 0 16 16" fill="none" xmlns="http://www.w3.org/2000/svg">
<path fill-rule="evenodd" clip-rule="evenodd" d="M7.95898 2.67905C7.97285 2.70426 7.98647 2.72945 7.99984 2.75461C8.01321 2.72945 8.02683 2.70426 8.0407 2.67905C8.53806 1.77476 9.46244 0.666992 10.9998 0.666992C11.6187 0.666992 12.2122 0.912825 12.6498 1.35041C13.0873 1.78799 13.3332 2.38149 13.3332 3.00033C13.3332 3.34955 13.2549 3.69071 13.108 4.00033H14.6665C15.0347 4.00033 15.3332 4.2988 15.3332 4.66699V8.00033H8.6665V5.33366H7.33317V8.00033H0.666504V4.66699C0.666504 4.2988 0.964981 4.00033 1.33317 4.00033H2.89165C2.74479 3.69071 2.6665 3.34955 2.6665 3.00033C2.6665 2.38149 2.91234 1.78799 3.34992 1.35041C3.78751 0.912825 4.381 0.666992 4.99984 0.666992C6.53724 0.666992 7.46163 1.77476 7.95898 2.67905ZM4.99984 4.00033H7.10252C7.02113 3.7874 6.91811 3.55327 6.79069 3.3216C6.37138 2.55922 5.79577 2.00033 4.99984 2.00033C4.73462 2.00033 4.48027 2.10568 4.29273 2.29322C4.10519 2.48076 3.99984 2.73511 3.99984 3.00033C3.99984 3.26554 4.10519 3.5199 4.29273 3.70743C4.48027 3.89497 4.73462 4.00033 4.99984 4.00033ZM8.89716 4.00033H10.9998C11.2651 4.00033 11.5194 3.89497 11.707 3.70743C11.8945 3.5199 11.9998 3.26554 11.9998 3.00033C11.9998 2.73511 11.8945 2.48076 11.707 2.29322C11.5194 2.10568 11.2651 2.00033 10.9998 2.00033C10.2039 2.00033 9.6283 2.55922 9.20899 3.3216C9.08157 3.55327 8.97855 3.7874 8.89716 4.00033Z" fill="white"/>
<path d="M1.99984 9.33366L7.33317 9.33366L7.33317 14.667H2.6665C2.29831 14.667 1.99984 14.3685 1.99984 14.0003V9.33366Z" fill="white"/>
<path d="M8.6665 14.667L8.6665 9.33366L13.9998 9.33366V14.0003C13.9998 14.3685 13.7014 14.667 13.3332 14.667H8.6665Z" fill="white"/>
</svg>
