<svg width="12" height="12" viewBox="0 0 12 12" fill="none" xmlns="http://www.w3.org/2000/svg">
<g clip-path="url(#clip0_0_1794)">
<path fill-rule="evenodd" clip-rule="evenodd" d="M6 0.5C2.96243 0.5 0.5 2.96243 0.5 6C0.5 9.03757 2.96243 11.5 6 11.5C9.03757 11.5 11.5 9.03757 11.5 6C11.5 2.96243 9.03757 0.5 6 0.5ZM4.86285 1.64492C3.0844 2.10799 1.734 3.63162 1.52746 5.5H3.52504C3.63715 4.11841 4.09955 2.79221 4.86285 1.64492ZM7.13715 1.64492C7.90045 2.79221 8.36285 4.11841 8.47496 5.5H10.4725C10.266 3.63162 8.9156 2.10799 7.13715 1.64492ZM7.4712 5.5C7.34561 4.14341 6.83484 2.85096 6 1.77539C5.16516 2.85096 4.65439 4.14341 4.5288 5.5H7.4712ZM4.5288 6.5H7.4712C7.3456 7.85658 6.83484 9.14903 6 10.2246C5.16516 9.14903 4.6544 7.85658 4.5288 6.5ZM3.52505 6.5H1.52746C1.734 8.36838 3.08441 9.89202 4.86286 10.3551C4.09956 9.20779 3.63715 7.88159 3.52505 6.5ZM7.13714 10.3551C7.90044 9.20779 8.36285 7.88159 8.47495 6.5H10.4725C10.266 8.36838 8.91559 9.89202 7.13714 10.3551Z" fill="#525252"/>
</g>
<defs>
<clipPath id="clip0_0_1794">
<rect width="12" height="12" fill="white"/>
</clipPath>
</defs>
</svg>
