<svg width="32" height="32" viewBox="0 0 32 32" fill="none" xmlns="http://www.w3.org/2000/svg">
<path d="M4.91031 16.8453L4.63281 18.1278L7.88281 24.2178L18.6128 26.9478L27.6753 21.7153L27.2978 17.7853L26.9853 16.5078L4.91031 16.8453Z" fill="#2F2F2F"/>
<path d="M29.0408 28.9416C28.9633 26.5791 27.7558 20.1516 27.3008 17.7816L16.2733 22.9141C16.1883 22.9541 16.0958 22.9741 16.0033 22.9741C15.9158 22.9741 15.8283 22.9566 15.7458 22.9216L4.63585 18.1266C4.14085 20.7241 3.03835 26.6841 2.96085 28.9416C2.89335 31.0391 2.84835 31.8516 4.69835 31.8516H27.3083C29.1558 31.8516 29.1108 31.0416 29.0408 28.9416Z" fill="#ED6C30"/>
<path d="M4.91406 16.8441L15.9941 21.6241L26.9891 16.5091C26.9391 16.3991 26.8766 16.2966 26.7966 16.2141C26.7791 16.1966 26.7591 16.1841 26.7441 16.1691C25.9491 15.2341 24.3766 15.1766 24.3766 15.1766H23.5216C23.5116 14.7741 23.5016 14.3716 23.4816 13.9691C23.4166 12.7841 23.3091 11.6016 23.1591 10.4266C22.9891 9.11156 22.7466 7.80656 22.3991 6.53906C22.0641 5.34156 21.6291 4.16156 21.0141 3.11656C20.4666 2.18656 19.7566 1.35906 18.8666 0.866562C17.1391 -0.0909375 14.8641 -0.0909375 13.1391 0.866562C12.2491 1.35906 11.5366 2.18656 10.9916 3.11656C10.3741 4.16156 9.94156 5.34156 9.60906 6.53906C9.25906 7.80656 9.01656 9.11156 8.84656 10.4266C8.69656 11.6016 8.59156 12.7841 8.52406 13.9691C8.50156 14.3741 8.49156 14.7766 8.48656 15.1766H7.62656C7.62656 15.1766 6.39156 15.2166 5.55656 15.8741V15.8766C5.55656 15.8766 5.55406 15.8791 5.55156 15.8791C5.43406 15.9741 5.32406 16.0791 5.22656 16.1991C5.23156 16.1991 5.23656 16.2016 5.24156 16.2041C5.09656 16.3966 4.99406 16.6191 4.91406 16.8441ZM11.0991 10.6566C11.3166 8.75656 11.7141 6.84906 12.5041 5.15156C12.9541 4.19156 13.5391 3.23656 14.4641 2.83906C16.5841 1.92906 18.4716 2.96156 19.4941 5.15156C20.2916 6.85156 20.6841 8.75656 20.9016 10.6566C21.0741 12.1441 21.1566 13.6616 21.2016 15.1741H10.8016C10.8466 13.6616 10.9291 12.1466 11.0991 10.6566Z" fill="#ED6C30"/>
<path d="M13.7756 20.6106C13.6106 20.8756 13.5456 21.2356 13.5181 21.4931C13.4531 22.1006 13.4256 22.8206 13.9856 23.2606C14.2056 23.4331 14.5681 23.6056 14.8506 23.6456C15.4981 23.7381 16.1106 23.7631 16.7281 23.7106C17.3806 23.6556 18.2406 23.6481 18.4181 22.9181C18.5806 22.2431 18.5681 21.4031 18.2756 20.7531C18.0181 20.1881 17.1881 20.2106 16.6606 20.1681C16.1031 20.1231 15.5256 20.1281 14.9406 20.1731C14.5256 20.2056 14.0081 20.2456 13.7756 20.6106Z" fill="#FCC21B"/>
</svg>
