<svg width="33" height="32" viewBox="0 0 33 32" fill="none" xmlns="http://www.w3.org/2000/svg">
<path d="M5.06813 1.45117H5.14313C5.57438 1.47055 5.94313 1.74742 6.21813 2.0693C6.55563 2.46617 6.80626 2.99555 6.95001 3.60617C7.10001 4.2168 7.11876 4.8018 7.00001 5.30742C6.96876 5.44305 6.92501 5.5793 6.86876 5.70867C7.19376 5.72367 7.51251 5.87055 7.78126 6.05867C8.20001 6.36305 8.57501 6.81305 8.86876 7.3693C9.16251 7.92555 9.32501 8.48805 9.34376 9.0068C9.35001 9.3693 9.28126 9.75055 9.06251 10.0443C9.47501 9.93805 9.90626 10.0693 10.2563 10.2818C10.7063 10.5443 11.1125 10.963 11.4563 11.4943C11.7938 12.0193 12.0063 12.5693 12.0625 13.0818C12.0813 13.2693 12.0813 13.463 12.05 13.6505C12.3625 13.6005 12.6938 13.6693 12.9875 13.7818C13.4625 13.9755 13.9313 14.3255 14.35 14.8005C14.7625 15.2693 15.0563 15.7755 15.1875 16.2818C15.2563 16.5318 15.2875 16.8068 15.2438 17.0693C15.5938 16.8693 16.025 16.7693 16.5 16.7693C16.9813 16.7693 17.4063 16.8693 17.7625 17.0693C17.7188 16.813 17.7438 16.538 17.8125 16.2818C17.95 15.7755 18.2375 15.2693 18.6563 14.7943C19.0688 14.3193 19.5375 13.9755 20.025 13.7755C20.3125 13.6568 20.6438 13.5943 20.9563 13.6443C20.925 13.4568 20.925 13.263 20.9438 13.0818C21 12.563 21.2063 12.0193 21.55 11.488C21.8938 10.9568 22.3 10.5443 22.75 10.2755C23.1 10.0693 23.525 9.9318 23.925 10.038C23.7188 9.7443 23.65 9.36305 23.6563 9.00055C23.6688 8.4818 23.8313 7.9193 24.125 7.3693C24.4188 6.8068 24.7938 6.36305 25.2188 6.06055C25.4813 5.86742 25.8 5.7193 26.1313 5.7043C26.075 5.5768 26.0313 5.44305 26 5.3093C25.8875 4.80492 25.9 4.21992 26.05 3.6093C26.1938 2.9993 26.4438 2.47055 26.7813 2.07367C27.1125 1.67617 27.6063 1.3493 28.1688 1.48492C28.7313 1.62055 29.0188 2.1343 29.1313 2.63992C29.25 3.14555 29.2313 3.73117 29.0875 4.3418C28.9375 4.95242 28.6875 5.4818 28.3563 5.8768C28.075 6.20742 27.7 6.48805 27.2563 6.50055C27.3313 6.7193 27.3625 6.96305 27.35 7.1943C27.3438 7.71305 27.1813 8.2693 26.8875 8.8318C26.5938 9.3818 26.2188 9.8318 25.8 10.1318C25.4375 10.3943 24.9875 10.5693 24.5438 10.4568C24.775 10.7755 24.825 11.1943 24.7875 11.588C24.725 12.1068 24.5188 12.6505 24.175 13.1818C23.8375 13.713 23.425 14.1255 22.9813 14.3943C22.6563 14.5818 22.2688 14.713 21.9 14.6505C21.9313 14.8943 21.9 15.1443 21.8375 15.3818C21.7 15.8818 21.4125 16.388 20.9938 16.863C20.5813 17.338 20.1125 17.6818 19.625 17.8818C19.3125 18.0068 18.95 18.0755 18.6125 18.0005C18.6813 18.1318 18.7375 18.2693 18.7813 18.4068C18.825 18.538 18.8625 18.6693 18.8938 18.8005C18.4938 18.8443 18.1313 18.9318 17.8 19.063C17.775 18.9568 17.75 18.8505 17.7188 18.7568C17.6125 18.4568 17.4813 18.2505 17.3125 18.1193C17.1375 17.988 16.9063 17.8943 16.5 17.8943C16.0938 17.8943 15.8625 17.988 15.6875 18.1193C15.5188 18.2505 15.3875 18.4568 15.2813 18.7568C15.25 18.8505 15.225 18.9568 15.2 19.063C14.8688 18.9318 14.5063 18.8443 14.1063 18.8005C14.1375 18.6693 14.175 18.538 14.2188 18.4068C14.2625 18.2693 14.3188 18.1318 14.3813 18.0068C14.05 18.0755 13.6875 18.0068 13.375 17.8818C12.8938 17.688 12.425 17.338 12.0063 16.8693C11.5938 16.3943 11.3 15.888 11.1688 15.388C11.1063 15.1505 11.075 14.8943 11.1063 14.6568C10.7313 14.7193 10.3438 14.588 10.025 14.3943C9.57501 14.1318 9.16876 13.713 8.82501 13.1818C8.48751 12.6568 8.27501 12.1068 8.21876 11.5943C8.17501 11.2005 8.22501 10.7818 8.45626 10.4568C8.01251 10.5755 7.56251 10.3943 7.20001 10.1443C6.77501 9.83805 6.40563 9.38805 6.10563 8.8318C5.81188 8.27555 5.64938 7.7193 5.63688 7.1943C5.63688 6.96305 5.66188 6.7193 5.74313 6.4943C5.29938 6.4818 4.91813 6.20305 4.64313 5.87742C4.31188 5.47992 4.06188 4.95055 3.91188 4.33992C3.76813 3.7293 3.74938 3.1443 3.86188 2.63867C3.98688 2.1318 4.26813 1.61867 4.83063 1.48305C4.91188 1.46367 4.98688 1.45367 5.06813 1.45117ZM4.95563 2.8943C4.89938 3.17555 4.89313 3.61555 5.00563 4.07867C5.11813 4.54117 5.31813 4.9318 5.50563 5.1543C5.65563 5.33242 5.74938 5.36117 5.76188 5.35742C5.78063 5.35117 5.84938 5.2843 5.90563 5.05805C5.96188 4.77617 5.96813 4.3368 5.85563 3.87367C5.74313 3.41055 5.54313 3.02055 5.36188 2.79742C5.20563 2.61992 5.11188 2.59055 5.09313 2.5943C5.08063 2.60055 5.01188 2.66742 4.95563 2.8943ZM27.6438 2.79742C27.4563 3.0193 27.2563 3.40992 27.1438 3.87305C27.0313 4.33617 27.0313 4.77555 27.1 5.05805C27.15 5.2793 27.2188 5.35055 27.2375 5.35492C27.2563 5.36117 27.35 5.3268 27.4938 5.15305C27.6813 4.9318 27.8813 4.54055 27.9938 4.07805C28.1063 3.61492 28.1063 3.17555 28.0375 2.89305C27.9875 2.67117 27.9188 2.59992 27.9 2.59555C27.8813 2.5893 27.7875 2.62367 27.6438 2.79742ZM25.8688 6.9693C25.6313 7.13805 25.3438 7.4693 25.1188 7.88805C24.9 8.3068 24.7875 8.7318 24.7813 9.02555C24.775 9.25055 24.825 9.33805 24.8438 9.3443C24.8563 9.3568 24.9563 9.3443 25.1438 9.21305C25.3813 9.0443 25.6688 8.7193 25.8938 8.2943C26.1125 7.87555 26.225 7.45055 26.2313 7.16305C26.2375 6.9443 26.1875 6.85055 26.175 6.83805C26.1563 6.8318 26.0563 6.83805 25.8688 6.9693ZM6.76251 7.16305C6.77501 7.45055 6.88126 7.8818 7.10001 8.30055C7.32501 8.7193 7.61876 9.05055 7.85001 9.2193C8.03751 9.3568 8.13751 9.36305 8.16251 9.36305C8.16876 9.35055 8.21876 9.2693 8.21876 9.02555C8.20626 8.73805 8.10001 8.31305 7.87501 7.88805C7.65626 7.4693 7.36251 7.1443 7.12501 6.9693C6.93126 6.8318 6.83751 6.8318 6.81876 6.83805C6.80626 6.8443 6.75626 6.9318 6.76251 7.16305ZM23.325 11.238C23.0688 11.388 22.7563 11.688 22.4938 12.088C22.2375 12.488 22.0938 12.9068 22.0625 13.1943C22.0375 13.4193 22.0813 13.5068 22.1 13.5193C22.1125 13.5318 22.2125 13.5318 22.4063 13.413C22.6563 13.2693 22.975 12.963 23.2313 12.563C23.4875 12.163 23.6313 11.7505 23.6625 11.4568C23.6938 11.2318 23.65 11.1443 23.6375 11.1318C23.6188 11.1193 23.5188 11.1255 23.325 11.238ZM9.36251 11.1255C9.35001 11.1505 9.31251 11.238 9.33751 11.463C9.37501 11.7505 9.51251 12.1693 9.77501 12.5693C10.0313 12.9693 10.35 13.2693 10.5938 13.4193C10.8063 13.5443 10.9063 13.5318 10.9188 13.5255C10.925 13.5193 10.9688 13.4255 10.9438 13.2005C10.9063 12.913 10.7688 12.4943 10.5063 12.0943C10.25 11.6943 9.93126 11.3943 9.68126 11.2443C9.46876 11.1193 9.37501 11.1318 9.36251 11.1255ZM20.4438 14.8193C20.1688 14.9255 19.8125 15.1755 19.5 15.5318C19.1813 15.888 18.9813 16.2755 18.9 16.5568C18.8438 16.7818 18.8688 16.8755 18.8875 16.888C18.9 16.9005 19 16.913 19.2063 16.8318C19.4813 16.7193 19.8375 16.4693 20.15 16.113C20.4688 15.7568 20.6688 15.3693 20.75 15.088C20.8063 14.8693 20.7813 14.7693 20.7688 14.7568C20.75 14.7443 20.65 14.7318 20.4438 14.8193ZM12.2563 15.0943C12.3313 15.3693 12.5375 15.7568 12.85 16.1193C13.1688 16.4755 13.525 16.7255 13.7938 16.838C14.0125 16.9255 14.1063 16.9068 14.1188 16.8943C14.1313 16.8818 14.1625 16.7943 14.1 16.563C14.025 16.2818 13.8188 15.8943 13.5063 15.538C13.1938 15.1818 12.8313 14.9318 12.5625 14.8193C12.3438 14.7318 12.25 14.7505 12.2375 14.763C12.225 14.7755 12.2 14.8755 12.2563 15.0943Z" fill="black"/>
<path d="M21.9062 20.8945C21.4875 20.2633 20.3125 19.8945 19.5 19.8945C18.5938 19.8945 18.15 20.0695 17.65 20.482C17.0375 20.982 16.5625 22.5508 16.5 22.5508C16.4375 22.5508 15.9625 20.982 15.35 20.482C14.85 20.0695 14.4062 19.8945 13.5 19.8945C12.6875 19.8945 11.5125 20.2633 11.0938 20.8945C10.675 21.5258 10.4375 22.4258 10.4375 23.332C10.4375 24.582 11.95 25.9945 13.1687 27.3258C14.2375 28.507 15.5062 29.6008 16.5 30.5508C17.4938 29.6008 18.7625 28.507 19.8312 27.3258C21.05 25.9945 22.5625 24.582 22.5625 23.332C22.5625 22.4258 22.325 21.5258 21.9062 20.8945Z" fill="#FF7E7E"/>
</svg>
