<svg width="33" height="32" viewBox="0 0 33 32" fill="none" xmlns="http://www.w3.org/2000/svg">
<path d="M4.96469 12.2348V7.14477L4.55469 7.16977V4.03477L8.50969 4.00977V7.09727H8.09969V10.0873L4.96469 12.2348Z" fill="#AB5832"/>
<path d="M16.1959 5.83203L4.83594 17.247L4.92344 27.7995L27.3609 27.587L27.3934 16.337L16.1959 5.83203Z" fill="#FFF3E1"/>
<path d="M4.41406 25.9466L5.19906 25.5141V16.9941L4.46906 17.4816C4.46656 17.4816 4.54906 25.9466 4.41406 25.9466ZM26.9716 17.4541V25.4616L27.7566 25.8941V17.7516L26.9716 17.4541Z" fill="#5F4E47"/>
<path d="M16.2787 7.05164L4.46875 18.1041V15.3166L16.2913 4.11914L27.7587 15.9941V18.3466L16.2787 7.05164Z" fill="#BCAA93"/>
<path d="M3.30969 14.8406L2.61719 16.1181L4.47469 16.0906C4.47469 16.0906 16.0622 4.82062 16.3122 4.81062C16.6147 4.79812 27.7522 16.2881 27.7522 16.2881L29.3997 16.2631L17.0397 2.94812L15.2247 2.82812L3.30969 14.8406Z" fill="#AB5832"/>
<path d="M1.16822 15.7981C0.973221 16.0356 1.16572 16.1606 1.32322 16.1606C1.48072 16.1606 3.29572 16.1081 3.29572 16.1081L15.8057 3.93563C15.8057 3.93563 16.0932 3.64063 16.2982 3.65063C16.5207 3.66063 16.8082 3.94313 16.8082 3.94313L29.3782 16.2656C29.3782 16.2656 30.8107 16.2706 31.0382 16.2131C31.2857 16.1531 31.1607 15.9181 30.8557 15.5906C30.6307 15.3481 17.9232 2.77813 17.7132 2.56063C17.0882 1.91563 16.7832 1.54063 16.1932 1.56563C15.6007 1.59063 15.2507 2.02813 14.6582 2.57313C14.4832 2.73813 1.25072 15.6981 1.16822 15.7981Z" fill="#ED6C31"/>
<path d="M23.5447 20.2074H26.1072V18.0749C26.1072 17.9807 26.0886 17.8874 26.0526 17.8003C26.0165 17.7133 25.9637 17.6342 25.897 17.5676C25.8304 17.5009 25.7513 17.4481 25.6643 17.412C25.5772 17.376 25.4839 17.3574 25.3897 17.3574H23.5447V20.2074ZM22.7747 20.2074V17.3574H20.7747C20.6805 17.3574 20.5872 17.376 20.5001 17.412C20.4131 17.4481 20.334 17.5009 20.2673 17.5676C20.2007 17.6342 20.1479 17.7133 20.1118 17.8003C20.0757 17.8874 20.0572 17.9807 20.0572 18.0749V20.2099H22.7747V20.2074ZM22.7747 21.0174H20.0572V23.0174C20.0572 23.2077 20.1328 23.3902 20.2673 23.5248C20.4019 23.6593 20.5844 23.7349 20.7747 23.7349H22.7747V21.0174ZM23.5447 21.0174V23.7349H25.3897C25.58 23.7349 25.7625 23.6593 25.897 23.5248C26.0316 23.3902 26.1072 23.2077 26.1072 23.0174V21.0174H23.5447ZM9.35719 20.2074H11.9197V18.0749C11.9197 17.9807 11.9011 17.8874 11.8651 17.8003C11.829 17.7133 11.7762 17.6342 11.7095 17.5676C11.6429 17.5009 11.5638 17.4481 11.4768 17.412C11.3897 17.376 11.2964 17.3574 11.2022 17.3574H9.35719V20.2074ZM8.58469 20.2074V17.3574H6.58469C6.49046 17.3574 6.39716 17.376 6.31011 17.412C6.22306 17.4481 6.14396 17.5009 6.07734 17.5676C6.01071 17.6342 5.95786 17.7133 5.9218 17.8003C5.88575 17.8874 5.86719 17.9807 5.86719 18.0749V20.2099H8.58469V20.2074ZM8.58469 21.0174H5.86969V23.0174C5.86969 23.2077 5.94528 23.3902 6.07984 23.5248C6.2144 23.6593 6.39689 23.7349 6.58719 23.7349H8.58719V21.0174H8.58469ZM9.35719 21.0174V23.7349H11.2022C11.3925 23.7349 11.575 23.6593 11.7095 23.5248C11.8441 23.3902 11.9197 23.2077 11.9197 23.0174V21.0174H9.35719Z" fill="#A6CFD5"/>
<path d="M12.7589 26.6819C12.7589 26.6819 12.7214 20.4968 12.7589 18.9343C12.7964 17.3743 14.2614 16.0244 15.9589 16.0819C18.0589 16.1544 19.1389 17.3343 19.2164 18.8568C19.2939 20.3793 19.2939 26.7768 19.2939 26.7768L12.7589 26.6819Z" fill="#D27857"/>
<path d="M13.5368 27.0181C13.5368 27.0181 13.5068 20.4281 13.5368 19.2081C13.5743 17.6956 14.7143 16.9006 16.0393 16.9756C17.5818 17.0631 18.3443 17.8831 18.4043 19.0756C18.4643 20.2656 18.4643 27.0231 18.4643 27.0231L13.5368 27.0181Z" fill="#AB5932"/>
<path d="M17.6704 21.6445C17.6654 20.5595 17.6554 19.602 17.6404 19.3095C17.6004 18.522 17.0404 17.9095 15.9529 17.872C15.0754 17.842 14.3529 18.527 14.3329 19.3345C14.3254 19.632 14.3279 20.567 14.3329 21.632L17.6704 21.6445ZM14.3404 22.862C14.3504 24.3145 14.3629 25.652 14.3629 25.652L17.6804 25.662C17.6804 25.662 17.6804 24.3295 17.6754 22.877L14.3404 22.862Z" fill="#D27857"/>
<path d="M17.6804 22.2033C17.6679 22.5558 17.8104 22.8408 18.2279 22.8408C18.6454 22.8408 18.7979 22.6458 18.8279 22.2683C18.8529 21.9308 18.6204 21.6308 18.2279 21.6558C17.8379 21.6833 17.6904 21.9558 17.6804 22.2033Z" fill="#FFBA02"/>
<path d="M20.078 29.0773C20.078 29.0773 22.798 29.1048 24.763 29.0473C26.728 28.9898 28.1505 29.0773 28.443 28.7823C28.7355 28.4898 28.7305 25.9973 27.368 25.3223C26.1155 24.7023 25.3055 25.3323 24.8755 25.3748C24.308 25.4323 23.6055 25.0798 23.0905 25.0698C20.963 25.0248 20.218 26.6973 20.218 26.6973L20.078 29.0773ZM3.80804 28.8723C4.03554 29.0848 5.77304 29.0923 7.87054 29.0773C9.96804 29.0623 11.6555 29.0823 11.6555 29.0823L12.0055 26.9648L11.5805 26.6123C11.5805 26.6123 11.628 25.5523 10.2905 25.1898C9.36554 24.9398 8.56054 25.3523 7.78304 25.3648C7.00554 25.3798 6.28804 25.0273 5.42304 25.2323C4.61804 25.4223 3.99054 25.9473 3.73554 27.0073C3.55804 27.7423 3.60304 28.6798 3.80804 28.8723Z" fill="#728037"/>
<path d="M11.3984 31.2927L11.4159 29.0802H11.5784L11.5759 26.6152H20.2584L20.2284 29.0802H20.4184V31.2352C20.4159 31.2327 11.3984 31.3052 11.3984 31.2927Z" fill="#B0B0B0"/>
<path d="M20.4184 30.3241V31.2316L11.3984 31.2916L11.4059 30.3166L20.4184 30.3241ZM11.5759 28.1191L20.2384 28.1216V29.0766H11.5759V28.1191Z" fill="#9B9B9B"/>
</svg>
