<svg width="318" height="98" viewBox="0 0 318 98" fill="none" xmlns="http://www.w3.org/2000/svg">
<g clip-path="url(#clip0_0_2858)">
<rect width="318" height="98" rx="14" fill="#F5F5F5"/>
<path d="M144.82 34L148.5 26.8516V26.793H144.234V25.5156H150.082V26.8164L146.402 34H144.82ZM153.961 24.7891C155.566 24.7949 156.762 25.7852 156.773 27.1797C156.762 28.5801 155.566 29.5645 153.961 29.5703C152.344 29.5645 151.148 28.5801 151.148 27.1797C151.148 25.7852 152.344 24.7949 153.961 24.7891ZM152.414 27.1797C152.414 28 153.07 28.5156 153.961 28.5156C154.852 28.5156 155.502 28 155.508 27.1797C155.502 26.377 154.852 25.8613 153.961 25.8672C153.07 25.8613 152.414 26.377 152.414 27.1797ZM152.754 31.2812V30.2617H159.785V33.0273H154.055V33.8828H160.102V34.9141H152.777V32.0664H158.484V31.2812H152.754ZM158.473 29.8047V24.4492H159.785V29.8047H158.473ZM167.906 27.8125C167.906 29.3828 168.791 31.0938 170.426 31.8672L169.699 32.8516C168.551 32.3242 167.725 31.2695 167.279 30.0332C166.816 31.3691 165.943 32.4941 164.73 33.0391L164.016 32.0312C165.686 31.2812 166.617 29.4766 166.617 27.8125V27.2617H164.355V26.2188H166.617V24.6719H167.918V26.2188H170.145V27.2617H167.906V27.8125ZM171.176 35.043V24.4492H172.477V28.6445H174.105V29.7344H172.477V35.043H171.176Z" fill="#404040"/>
<g clip-path="url(#clip1_0_2858)">
<path d="M131.001 70.2502C137.391 70.2502 142.571 65.0704 142.571 58.6808C142.571 52.2911 137.391 47.1113 131.001 47.1113C124.611 47.1113 119.432 52.2911 119.432 58.6808C119.432 65.0704 124.611 70.2502 131.001 70.2502Z" fill="#03B5B0"/>
<path d="M131.001 68.8889C137.391 68.8889 142.571 63.7091 142.571 57.3194C142.571 50.9298 137.391 45.75 131.001 45.75C124.611 45.75 119.432 50.9298 119.432 57.3194C119.432 63.7091 124.611 68.8889 131.001 68.8889Z" fill="#B1EEEC"/>
<path d="M131 67.5272C136.262 67.5272 140.528 63.2615 140.528 57.9995C140.528 52.7374 136.262 48.4717 131 48.4717C125.738 48.4717 121.473 52.7374 121.473 57.9995C121.473 63.2615 125.738 67.5272 131 67.5272Z" fill="#D9F7F6"/>
<path d="M131 66.8475C136.262 66.8475 140.528 62.5818 140.528 57.3198C140.528 52.0577 136.262 47.792 131 47.792C125.738 47.792 121.473 52.0577 121.473 57.3198C121.473 62.5818 125.738 66.8475 131 66.8475Z" fill="#03C9C3"/>
<path fill-rule="evenodd" clip-rule="evenodd" d="M128.82 52.8421C129.466 52.196 130.342 51.833 131.256 51.833C132.17 51.833 133.046 52.196 133.692 52.8421C134.338 53.4882 134.701 54.3646 134.701 55.2783C134.701 55.9126 134.187 56.4268 133.553 56.4268C132.918 56.4268 132.404 55.9126 132.404 55.2783C132.404 54.9737 132.283 54.6816 132.068 54.4663C131.853 54.2509 131.56 54.1299 131.256 54.1299C130.951 54.1299 130.659 54.2509 130.444 54.4663C130.228 54.6816 130.107 54.9737 130.107 55.2783V59.8721C130.107 60.1767 130.228 60.4688 130.444 60.6841C130.659 60.8995 130.951 61.0205 131.256 61.0205C131.56 61.0205 131.853 60.8995 132.068 60.6841C132.283 60.4688 132.404 60.1767 132.404 59.8721C132.404 59.2378 132.918 58.7236 133.553 58.7236C134.187 58.7236 134.701 59.2378 134.701 59.8721C134.701 60.7858 134.338 61.6622 133.692 62.3083C133.046 62.9544 132.17 63.3174 131.256 63.3174C130.342 63.3174 129.466 62.9544 128.82 62.3083C128.174 61.6622 127.811 60.7858 127.811 59.8721V55.2783C127.811 54.3646 128.174 53.4882 128.82 52.8421Z" fill="#03B5B0"/>
<path fill-rule="evenodd" clip-rule="evenodd" d="M128.82 52.3324C129.466 51.6862 130.342 51.3232 131.256 51.3232C132.17 51.3232 133.046 51.6862 133.692 52.3324C134.338 52.9785 134.701 53.8548 134.701 54.7686C134.701 55.4028 134.187 55.917 133.553 55.917C132.918 55.917 132.404 55.4028 132.404 54.7686C132.404 54.464 132.283 54.1719 132.068 53.9565C131.853 53.7411 131.56 53.6201 131.256 53.6201C130.951 53.6201 130.659 53.7411 130.444 53.9565C130.228 54.1719 130.107 54.464 130.107 54.7686V59.3623C130.107 59.6669 130.228 59.959 130.444 60.1744C130.659 60.3897 130.951 60.5107 131.256 60.5107C131.56 60.5107 131.853 60.3897 132.068 60.1744C132.283 59.959 132.404 59.6669 132.404 59.3623C132.404 58.728 132.918 58.2139 133.553 58.2139C134.187 58.2139 134.701 58.728 134.701 59.3623C134.701 60.2761 134.338 61.1524 133.692 61.7985C133.046 62.4446 132.17 62.8076 131.256 62.8076C130.342 62.8076 129.466 62.4446 128.82 61.7985C128.174 61.1524 127.811 60.2761 127.811 59.3623V54.7686C127.811 53.8548 128.174 52.9785 128.82 52.3324Z" fill="#E6FAF9"/>
</g>
<path d="M153.6 65.1953C150.65 65.1953 148.492 63.457 148.443 61.0156H151.295C151.363 62.1191 152.369 62.8809 153.6 62.8711C155.064 62.8809 156.109 61.8457 156.1 60.3711C156.109 58.8672 155.045 57.8223 153.561 57.8125C152.496 57.8125 151.754 58.2129 151.334 59.0039H148.678L149.439 50.8594H158.15V53.2617H151.861L151.471 56.8359H151.588C152.105 56.1426 153.18 55.6348 154.42 55.6445C157.018 55.6348 158.951 57.5781 158.951 60.293C158.951 63.1543 156.783 65.1953 153.6 65.1953ZM166.432 65.1953C162.887 65.1953 160.748 62.5586 160.748 57.9297C160.748 53.3105 162.906 50.6641 166.432 50.6641C169.957 50.6641 172.115 53.3105 172.115 57.9297C172.115 62.5781 169.967 65.1953 166.432 65.1953ZM163.756 57.9297C163.736 61.1914 164.791 62.7734 166.432 62.7734C168.072 62.7734 169.117 61.1914 169.107 57.9297C169.117 54.6973 168.062 53.0762 166.432 53.0664C164.801 53.0762 163.756 54.6973 163.756 57.9297ZM179.635 65.1953C176.09 65.1953 173.951 62.5586 173.951 57.9297C173.951 53.3105 176.109 50.6641 179.635 50.6641C183.16 50.6641 185.318 53.3105 185.318 57.9297C185.318 62.5781 183.17 65.1953 179.635 65.1953ZM176.959 57.9297C176.939 61.1914 177.994 62.7734 179.635 62.7734C181.275 62.7734 182.32 61.1914 182.311 57.9297C182.32 54.6973 181.266 53.0762 179.635 53.0664C178.004 53.0762 176.959 54.6973 176.959 57.9297ZM196.881 55.7812C196.646 54.2188 195.445 53.2715 193.795 53.2617C191.598 53.2715 190.143 54.9512 190.143 57.9297C190.143 60.9766 191.617 62.5879 193.775 62.5977C195.387 62.5879 196.598 61.709 196.881 60.1758L199.85 60.1953C199.527 62.8125 197.33 65.1953 193.736 65.1953C189.957 65.1953 187.154 62.5293 187.154 57.9297C187.154 53.3105 190.006 50.6641 193.736 50.6641C196.998 50.6641 199.459 52.5293 199.85 55.7812H196.881Z" fill="#02A19C"/>
<g opacity="0.2" clip-path="url(#clip2_0_2858)">
<g clip-path="url(#clip3_0_2858)">
<path d="M280.411 104.326C287.886 99.937 290.389 90.3192 286 82.8437C281.611 75.3682 271.993 72.8659 264.518 77.2546C257.043 81.6433 254.54 91.2611 258.929 98.7366C263.318 106.212 272.935 108.714 280.411 104.326Z" fill="#525252"/>
<path d="M279.476 102.734C286.952 98.3449 289.454 88.727 285.065 81.2515C280.677 73.776 271.059 71.2737 263.583 75.6624C256.108 80.0511 253.606 89.669 257.994 97.1445C262.383 104.62 272.001 107.122 279.476 102.734Z" fill="#A3A3A3"/>
<path d="M278.538 101.142C284.694 97.5275 286.755 89.6069 283.141 83.4506C279.527 77.2943 271.606 75.2336 265.45 78.8478C259.293 82.4621 257.233 90.3826 260.847 96.5389C264.461 102.695 272.382 104.756 278.538 101.142Z" fill="#D4D4D4"/>
<path d="M278.072 100.346C284.228 96.7321 286.289 88.8116 282.675 82.6553C279.061 76.499 271.14 74.4382 264.984 78.0525C258.828 81.6667 256.767 89.5873 260.381 95.7436C263.995 101.9 271.916 103.961 278.072 100.346Z" fill="#737373"/>
<path fill-rule="evenodd" clip-rule="evenodd" d="M265.902 85.4583C266.214 84.2586 266.99 83.232 268.059 82.6044C269.128 81.9768 270.403 81.7996 271.602 82.1117C272.802 82.4238 273.829 83.1998 274.456 84.2688C274.892 85.0109 274.644 85.9656 273.902 86.4012C273.16 86.8369 272.205 86.5885 271.769 85.8464C271.56 85.4901 271.218 85.2314 270.818 85.1274C270.418 85.0233 269.993 85.0824 269.637 85.2916C269.28 85.5008 269.022 85.843 268.918 86.2429C268.814 86.6428 268.873 87.0677 269.082 87.424L272.237 92.7984C272.446 93.1548 272.789 93.4134 273.188 93.5175C273.588 93.6215 274.013 93.5625 274.37 93.3533C274.726 93.144 274.985 92.8019 275.089 92.4019C275.193 92.002 275.134 91.5772 274.924 91.2208C274.489 90.4788 274.737 89.5241 275.479 89.0884C276.221 88.6528 277.176 88.9012 277.612 89.6432C278.239 90.7123 278.416 91.9868 278.104 93.1866C277.792 94.3863 277.016 95.4128 275.947 96.0405C274.878 96.6681 273.604 96.8453 272.404 96.5332C271.204 96.221 270.178 95.4451 269.55 94.3761L266.395 89.0016C265.767 87.9326 265.59 86.658 265.902 85.4583Z" fill="#525252"/>
<path fill-rule="evenodd" clip-rule="evenodd" d="M265.551 84.8616C265.863 83.6619 266.639 82.6353 267.708 82.0077C268.777 81.3801 270.052 81.2029 271.251 81.515C272.451 81.8272 273.478 82.6031 274.105 83.6721C274.541 84.4142 274.293 85.3689 273.55 85.8045C272.808 86.2402 271.854 85.9918 271.418 85.2497C271.209 84.8934 270.867 84.6348 270.467 84.5307C270.067 84.4267 269.642 84.4857 269.286 84.6949C268.929 84.9041 268.671 85.2463 268.567 85.6462C268.463 86.0462 268.522 86.471 268.731 86.8274L271.886 92.2018C272.095 92.5581 272.437 92.8168 272.837 92.9208C273.237 93.0249 273.662 92.9658 274.018 92.7566C274.375 92.5474 274.633 92.2052 274.738 91.8053C274.842 91.4054 274.782 90.9805 274.573 90.6242C274.138 89.8821 274.386 88.9274 275.128 88.4918C275.87 88.0561 276.825 88.3045 277.26 89.0466C277.888 90.1156 278.065 91.3902 277.753 92.5899C277.441 93.7896 276.665 94.8162 275.596 95.4438C274.527 96.0714 273.252 96.2486 272.053 95.9365C270.853 95.6244 269.826 94.8484 269.199 93.7794L266.044 88.405C265.416 87.3359 265.239 86.0613 265.551 84.8616Z" fill="#E5E5E5"/>
</g>
</g>
<g opacity="0.2" clip-path="url(#clip4_0_2858)">
<g clip-path="url(#clip5_0_2858)">
<path d="M28.4801 108.921C40.4698 116.982 56.7241 113.798 64.7851 101.808C72.8461 89.8182 69.6613 73.5639 57.6716 65.5029C45.682 57.4419 29.4277 60.6267 21.3666 72.6163C13.3056 84.606 16.4904 100.86 28.4801 108.921Z" fill="#525252"/>
<path d="M30.1974 106.368C42.1871 114.429 58.4414 111.244 66.5024 99.254C74.5634 87.2644 71.3786 71.0101 59.3889 62.949C47.3992 54.888 31.1449 58.0728 23.0839 70.0625C15.0229 82.0522 18.2077 98.3065 30.1974 106.368Z" fill="#A3A3A3"/>
<path d="M31.9123 103.809C41.7862 110.447 55.1721 107.825 61.8106 97.9508C68.4491 88.077 65.8263 74.6911 55.9524 68.0526C46.0786 61.4141 32.6927 64.0369 26.0542 73.9107C19.4157 83.7846 22.0385 97.1705 31.9123 103.809Z" fill="#D4D4D4"/>
<path d="M32.7698 102.535C42.6436 109.173 56.0295 106.551 62.668 96.6768C69.3065 86.803 66.6837 73.4171 56.8098 66.7786C46.936 60.1401 33.5501 62.7629 26.9116 72.6367C20.2731 82.5106 22.8959 95.8965 32.7698 102.535Z" fill="#737373"/>
<path fill-rule="evenodd" clip-rule="evenodd" d="M46.3485 73.5046C48.376 73.1073 50.4783 73.5318 52.1929 74.6845C53.9075 75.8373 55.0939 77.624 55.4912 79.6515C55.8885 81.6791 55.464 83.7814 54.3113 85.496C53.5111 86.6861 51.8976 87.0023 50.7075 86.2021C49.5173 85.4019 49.2012 83.7884 50.0013 82.5983C50.3856 82.0267 50.5271 81.326 50.3947 80.6501C50.2622 79.9743 49.8668 79.3787 49.2952 78.9945C48.7237 78.6102 48.0229 78.4687 47.3471 78.6012C46.6712 78.7336 46.0757 79.1291 45.6914 79.7006L39.896 88.3204C39.5118 88.892 39.3703 89.5927 39.5027 90.2686C39.6352 90.9444 40.0306 91.54 40.6022 91.9242C41.1737 92.3085 41.8745 92.45 42.5503 92.3175C43.2261 92.1851 43.8217 91.7897 44.206 91.2181C45.0061 90.028 46.6196 89.7118 47.8098 90.512C48.9999 91.3122 49.3161 92.9257 48.5159 94.1158C47.3631 95.8304 45.5764 97.0168 43.5489 97.4141C41.5214 97.8114 39.4191 97.3869 37.7045 96.2342C35.9899 95.0814 34.8034 93.2947 34.4062 91.2672C34.0089 89.2396 34.4333 87.1373 35.5861 85.4227L41.3815 76.8029C42.5343 75.0883 44.3209 73.9019 46.3485 73.5046Z" fill="#525252"/>
<path fill-rule="evenodd" clip-rule="evenodd" d="M46.9911 72.5456C49.0186 72.1483 51.1209 72.5727 52.8355 73.7255C54.5501 74.8783 55.7365 76.665 56.1338 78.6925C56.5311 80.72 56.1066 82.8223 54.9538 84.5369C54.1537 85.7271 52.5402 86.0432 51.35 85.243C50.1599 84.4429 49.8437 82.8294 50.6439 81.6392C51.0282 81.0677 51.1697 80.3669 51.0372 79.6911C50.9048 79.0152 50.5093 78.4197 49.9378 78.0354C49.3663 77.6512 48.6655 77.5097 47.9897 77.6421C47.3138 77.7745 46.7183 78.17 46.334 78.7415L40.5386 87.3614C40.1544 87.9329 40.0129 88.6337 40.1453 89.3095C40.2777 89.9854 40.6732 90.5809 41.2447 90.9652C41.8163 91.3494 42.517 91.4909 43.1929 91.3585C43.8687 91.2261 44.4643 90.8306 44.8485 90.2591C45.6487 89.0689 47.2622 88.7528 48.4523 89.553C49.6425 90.3531 49.9586 91.9666 49.1585 93.1568C48.0057 94.8714 46.219 96.0578 44.1915 96.4551C42.1639 96.8523 40.0616 96.4279 38.347 95.2751C36.6325 94.1223 35.446 92.3357 35.0488 90.3081C34.6515 88.2806 35.0759 86.1783 36.2287 84.4637L42.0241 75.8439C43.1768 74.1293 44.9635 72.9428 46.9911 72.5456Z" fill="#E5E5E5"/>
</g>
</g>
<g opacity="0.2" clip-path="url(#clip6_0_2858)">
<g clip-path="url(#clip7_0_2858)">
<path d="M84.5843 20.3195C94.3715 24.4769 105.676 19.9129 109.833 10.1257C113.991 0.33845 109.427 -10.9659 99.6393 -15.1232C89.8521 -19.2805 78.5478 -14.7166 74.3905 -4.92934C70.2331 4.8579 74.7971 16.1622 84.5843 20.3195Z" fill="#525252"/>
<path d="M85.471 18.2347C95.2583 22.392 106.563 17.8281 110.72 8.04085C114.877 -1.74639 110.313 -13.0507 100.526 -17.208C90.7388 -21.3654 79.4345 -16.8014 75.2772 -7.01418C71.1198 2.77306 75.6838 14.0774 85.471 18.2347Z" fill="#A3A3A3"/>
<path d="M86.353 16.1468C94.4131 19.5704 103.723 15.8119 107.146 7.75183C110.57 -0.308242 106.811 -9.61767 98.7513 -13.0414C90.6912 -16.465 81.3818 -12.7065 77.9581 -4.64642C74.5344 3.41365 78.293 12.7231 86.353 16.1468Z" fill="#D4D4D4"/>
<path d="M86.7969 15.1068C94.857 18.5305 104.166 14.7719 107.59 6.71186C111.014 -1.34822 107.255 -10.6576 99.1951 -14.0813C91.1351 -17.505 81.8256 -13.7465 78.4019 -5.6864C74.9783 2.37368 78.7368 11.6831 86.7969 15.1068Z" fill="#737373"/>
<path fill-rule="evenodd" clip-rule="evenodd" d="M92.5693 -7.7643C93.9794 -8.3336 95.5579 -8.31943 96.9575 -7.7249C98.3571 -7.13038 99.4633 -6.00421 100.033 -4.59413C100.602 -3.18405 100.588 -1.60557 99.9932 -0.20594C99.5805 0.765587 98.4584 1.21863 97.4868 0.805949C96.5153 0.393273 96.0623 -0.728845 96.4749 -1.70037C96.6731 -2.16691 96.6778 -2.69307 96.4881 -3.1631C96.2983 -3.63313 95.9296 -4.00852 95.4631 -4.20669C94.9965 -4.40487 94.4704 -4.40959 94.0003 -4.21983C93.5303 -4.03006 93.1549 -3.66135 92.9567 -3.1948L89.9679 3.84162C89.7697 4.30816 89.765 4.83432 89.9547 5.30434C90.1445 5.77437 90.5132 6.14977 90.9798 6.34794C91.4463 6.54611 91.9725 6.55083 92.4425 6.36107C92.9125 6.1713 93.2879 5.80259 93.4861 5.33605C93.8988 4.36452 95.0209 3.91148 95.9924 4.32416C96.9639 4.73684 97.417 5.85895 97.0043 6.83048C96.4098 8.23011 95.2836 9.33625 93.8735 9.90554C92.4634 10.4748 90.885 10.4607 89.4853 9.86615C88.0857 9.27163 86.9796 8.14545 86.4103 6.73537C85.841 5.3253 85.8551 3.74682 86.4497 2.34718L89.4385 -4.68924C90.0331 -6.08887 91.1592 -7.195 92.5693 -7.7643Z" fill="#525252"/>
<path fill-rule="evenodd" clip-rule="evenodd" d="M92.9004 -8.54683C94.3104 -9.11613 95.8889 -9.10196 97.2885 -8.50744C98.6882 -7.91291 99.7943 -6.78674 100.364 -5.37666C100.933 -3.96658 100.919 -2.3881 100.324 -0.988471C99.9115 -0.0169447 98.7894 0.436094 97.8179 0.0234175C96.8464 -0.389258 96.3933 -1.51138 96.806 -2.4829C97.0042 -2.94945 97.0089 -3.47561 96.8191 -3.94563C96.6294 -4.41566 96.2607 -4.79105 95.7941 -4.98923C95.3276 -5.1874 94.8014 -5.19212 94.3314 -5.00236C93.8614 -4.81259 93.486 -4.44388 93.2878 -3.97734L90.2989 3.05908C90.1008 3.52563 90.096 4.05179 90.2858 4.52181C90.4756 4.99184 90.8443 5.36723 91.3108 5.56541C91.7774 5.76358 92.3035 5.7683 92.7735 5.57854C93.2436 5.38877 93.619 5.02006 93.8171 4.55352C94.2298 3.58199 95.3519 3.12895 96.3235 3.54163C97.295 3.9543 97.748 5.07642 97.3353 6.04795C96.7408 7.44758 95.6147 8.55371 94.2046 9.12301C92.7945 9.69231 91.216 9.67814 89.8164 9.08362C88.4168 8.48909 87.3106 7.36292 86.7413 5.95284C86.172 4.54276 86.1862 2.96429 86.7807 1.56465L89.7696 -5.47177C90.3641 -6.8714 91.4903 -7.97753 92.9004 -8.54683Z" fill="#E5E5E5"/>
</g>
</g>
<g opacity="0.2" clip-path="url(#clip8_0_2858)">
<g clip-path="url(#clip9_0_2858)">
<path d="M313.38 60.494C322.891 55.7379 326.745 44.1724 321.989 34.6617C317.233 25.151 305.667 21.2967 296.157 26.0528C286.646 30.8089 282.792 42.3744 287.548 51.885C292.304 61.3957 303.869 65.2501 313.38 60.494Z" fill="#525252"/>
<path d="M312.368 58.4671C321.878 53.711 325.733 42.1455 320.977 32.6348C316.221 23.1242 304.655 19.2698 295.144 24.0259C285.634 28.782 281.779 40.3475 286.535 49.8582C291.292 59.3688 302.857 63.2232 312.368 58.4671Z" fill="#A3A3A3"/>
<path d="M311.349 56.442C319.182 52.5252 322.356 43.0007 318.439 35.1683C314.522 27.336 304.998 24.1619 297.166 28.0786C289.333 31.9954 286.159 41.5199 290.076 49.3523C293.993 57.1846 303.517 60.3588 311.349 56.442Z" fill="#D4D4D4"/>
<path d="M310.846 55.4298C318.678 51.513 321.852 41.9885 317.935 34.1562C314.019 26.3239 304.494 23.1497 296.662 27.0665C288.829 30.9833 285.655 40.5078 289.572 48.3401C293.489 56.1724 303.013 59.3466 310.846 55.4298Z" fill="#737373"/>
<path fill-rule="evenodd" clip-rule="evenodd" d="M297.176 36.2066C297.656 34.764 298.69 33.5714 300.051 32.8912C301.411 32.2111 302.985 32.0991 304.428 32.5799C305.871 33.0607 307.063 34.0949 307.743 35.4549C308.215 36.399 307.833 37.5471 306.889 38.0192C305.945 38.4913 304.797 38.1087 304.324 37.1646C304.098 36.7112 303.7 36.3665 303.219 36.2063C302.738 36.046 302.214 36.0833 301.76 36.31C301.307 36.5368 300.962 36.9343 300.802 37.4152C300.642 37.8961 300.679 38.4209 300.906 38.8743L304.325 45.7119C304.552 46.1652 304.949 46.51 305.43 46.6702C305.911 46.8305 306.436 46.7931 306.889 46.5664C307.343 46.3397 307.687 45.9422 307.848 45.4613C308.008 44.9804 307.971 44.4556 307.744 44.0022C307.272 43.0581 307.654 41.9101 308.598 41.438C309.542 40.9659 310.69 41.3485 311.163 42.2925C311.843 43.6526 311.955 45.2272 311.474 46.6698C310.993 48.1125 309.959 49.3051 308.599 49.9852C307.239 50.6654 305.664 50.7774 304.222 50.2966C302.779 49.8158 301.586 48.7816 300.906 47.4215L297.487 40.5839C296.807 39.2239 296.695 37.6493 297.176 36.2066Z" fill="#525252"/>
<path fill-rule="evenodd" clip-rule="evenodd" d="M296.794 35.4473C297.275 34.0046 298.309 32.8121 299.669 32.1319C301.029 31.4518 302.604 31.3398 304.047 31.8205C305.489 32.3013 306.682 33.3355 307.362 34.6956C307.834 35.6397 307.451 36.7877 306.507 37.2598C305.563 37.7319 304.415 37.3493 303.943 36.4053C303.716 35.9519 303.319 35.6072 302.838 35.4469C302.357 35.2867 301.832 35.324 301.379 35.5507C300.926 35.7774 300.581 36.1749 300.421 36.6558C300.26 37.1367 300.298 37.6616 300.524 38.1149L303.944 44.9525C304.17 45.4059 304.568 45.7506 305.049 45.9109C305.53 46.0711 306.055 46.0338 306.508 45.8071C306.961 45.5804 307.306 45.1828 307.466 44.702C307.626 44.2211 307.589 43.6962 307.362 43.2429C306.89 42.2988 307.273 41.1507 308.217 40.6786C309.161 40.2065 310.309 40.5891 310.781 41.5332C311.461 42.8933 311.573 44.4678 311.093 45.9105C310.612 47.3532 309.578 48.5457 308.218 49.2259C306.857 49.906 305.283 50.018 303.84 49.5373C302.398 49.0565 301.205 48.0223 300.525 46.6622L297.106 39.8246C296.425 38.4645 296.313 36.89 296.794 35.4473Z" fill="#E5E5E5"/>
</g>
</g>
</g>
<defs>
<clipPath id="clip0_0_2858">
<rect width="318" height="98" fill="white"/>
</clipPath>
<clipPath id="clip1_0_2858">
<rect width="24.5" height="24.5" fill="white" transform="translate(118.75 45.75)"/>
</clipPath>
<clipPath id="clip2_0_2858">
<rect width="37.9865" height="37.9865" fill="white" transform="translate(246 83.2314) rotate(-30.4163)"/>
</clipPath>
<clipPath id="clip3_0_2858">
<rect width="33.2382" height="33.2381" fill="white" transform="translate(249.25 84.0778) rotate(-30.4163)"/>
</clipPath>
<clipPath id="clip4_0_2858">
<rect width="63.3108" height="63.3108" fill="white" transform="translate(35.3242 42) rotate(33.9141)"/>
</clipPath>
<clipPath id="clip5_0_2858">
<rect width="55.3969" height="55.3969" fill="white" transform="translate(36.3994 47.4922) rotate(33.9141)"/>
</clipPath>
<clipPath id="clip6_0_2858">
<rect width="46.5975" height="46.5975" fill="white" transform="translate(80.2188 -29) rotate(23.0144)"/>
</clipPath>
<clipPath id="clip7_0_2858">
<rect width="40.7728" height="40.7728" fill="white" transform="translate(81.7593 -25.1801) rotate(23.0144)"/>
</clipPath>
<clipPath id="clip8_0_2858">
<rect width="46.5975" height="46.5975" fill="white" transform="translate(273 31.8418) rotate(-26.5687)"/>
</clipPath>
<clipPath id="clip9_0_2858">
<rect width="40.7728" height="40.7728" fill="white" transform="translate(276.907 33.1454) rotate(-26.5687)"/>
</clipPath>
</defs>
</svg>
