<svg width="16" height="16" viewBox="0 0 16 16" fill="none" xmlns="http://www.w3.org/2000/svg">
<path fill-rule="evenodd" clip-rule="evenodd" d="M14.6654 7.99967C14.6654 11.6816 11.6806 14.6663 7.9987 14.6663C4.3168 14.6663 1.33203 11.6816 1.33203 7.99967C1.33203 4.31778 4.3168 1.33301 7.9987 1.33301C11.6806 1.33301 14.6654 4.31778 14.6654 7.99967ZM11.3714 6.4714C11.6318 6.21105 11.6318 5.78895 11.3714 5.5286C11.1111 5.26825 10.6889 5.26825 10.4286 5.5286L6.9 9.05719L5.3714 7.5286C5.11106 7.26825 4.68895 7.26825 4.4286 7.5286C4.16825 7.78895 4.16825 8.21105 4.4286 8.4714L6.4286 10.4714C6.68895 10.7318 7.11106 10.7318 7.3714 10.4714L11.3714 6.4714Z" fill="#03C9C3"/>
</svg>
