<svg width="16" height="16" viewBox="0 0 16 16" fill="none" xmlns="http://www.w3.org/2000/svg">
<path d="M4.66675 1.33331C2.20897 1.33331 0.666748 3.47648 0.666748 5.66665C0.666748 7.89409 1.78285 9.79955 3.18109 11.2864C4.58148 12.7756 6.31807 13.9043 7.70194 14.5963C7.88962 14.6901 8.11054 14.6901 8.29822 14.5963C9.6821 13.9043 11.4187 12.7756 12.8191 11.2864C14.2173 9.79955 15.3334 7.89409 15.3334 5.66665C15.3334 3.48007 13.8193 1.33331 11.3334 1.33331C10.1834 1.33331 9.36884 1.65317 8.74582 2.13982C8.45239 2.36902 8.20743 2.63339 7.99833 2.89091C7.7869 2.63284 7.53946 2.36842 7.24336 2.13858C6.61926 1.65414 5.80597 1.33331 4.66675 1.33331Z" fill="#03C9C3"/>
</svg>
