<svg width="24" height="24" viewBox="0 0 24 24" fill="none" xmlns="http://www.w3.org/2000/svg">
<circle cx="12" cy="12" r="12" fill="#D9F9FF"/>
<path fill-rule="evenodd" clip-rule="evenodd" d="M13.5939 5.8916C13.0968 5.8916 12.6939 6.29455 12.6939 6.7916C12.6939 7.28866 13.0968 7.6916 13.5939 7.6916H14.9981L12.8591 9.82389C12.1571 9.37114 11.321 9.1084 10.4235 9.1084C7.93818 9.1084 5.92346 11.1231 5.92346 13.6084C5.92346 16.0937 7.93818 18.1084 10.4235 18.1084C12.9087 18.1084 14.9235 16.0937 14.9235 13.6084C14.9235 12.6716 14.6372 11.8016 14.1474 11.0813L16.2758 8.95956V10.4362C16.2758 10.9332 16.6787 11.3362 17.1758 11.3362C17.6728 11.3362 18.0758 10.9332 18.0758 10.4362V6.7916C18.0758 6.29455 17.6728 5.8916 17.1758 5.8916H13.5939ZM7.72346 13.6084C7.72346 12.1172 8.93229 10.9084 10.4235 10.9084C11.9146 10.9084 13.1235 12.1172 13.1235 13.6084C13.1235 15.0996 11.9146 16.3084 10.4235 16.3084C8.93229 16.3084 7.72346 15.0996 7.72346 13.6084Z" fill="#4EC9E0"/>
</svg>
