<svg width="20" height="20" viewBox="0 0 20 20" fill="none" xmlns="http://www.w3.org/2000/svg">
<g clip-path="url(#clip0_0_6652)">
<path d="M9.99826 18.7495C14.5623 18.7495 18.2622 15.0496 18.2622 10.4856C18.2622 5.92155 14.5623 2.22168 9.99826 2.22168C5.43424 2.22168 1.73438 5.92155 1.73438 10.4856C1.73438 15.0496 5.43424 18.7495 9.99826 18.7495Z" fill="#03B5B0"/>
<path d="M10.0022 17.7778C14.5662 17.7778 18.2661 14.0779 18.2661 9.51389C18.2661 4.94987 14.5662 1.25 10.0022 1.25C5.43815 1.25 1.73828 4.94987 1.73828 9.51389C1.73828 14.0779 5.43815 17.7778 10.0022 17.7778Z" fill="#B1EEEC"/>
<path d="M10.0009 16.8045C13.7595 16.8045 16.8064 13.7575 16.8064 9.99892C16.8064 6.24031 13.7595 3.19336 10.0009 3.19336C6.24226 3.19336 3.19531 6.24031 3.19531 9.99892C3.19531 13.7575 6.24226 16.8045 10.0009 16.8045Z" fill="#D9F7F6"/>
<path d="M10.0009 16.3181C13.7595 16.3181 16.8064 13.2712 16.8064 9.51259C16.8064 5.75398 13.7595 2.70703 10.0009 2.70703C6.24226 2.70703 3.19531 5.75398 3.19531 9.51259C3.19531 13.2712 6.24226 16.3181 10.0009 16.3181Z" fill="#03C9C3"/>
<path fill-rule="evenodd" clip-rule="evenodd" d="M8.43954 6.3165C8.90106 5.85498 9.52701 5.5957 10.1797 5.5957C10.8324 5.5957 11.4583 5.85498 11.9198 6.3165C12.3813 6.77801 12.6406 7.40396 12.6406 8.05664C12.6406 8.50969 12.2734 8.87695 11.8203 8.87695C11.3673 8.87695 11 8.50969 11 8.05664C11 7.83908 10.9136 7.63043 10.7597 7.47659C10.6059 7.32275 10.3972 7.23633 10.1797 7.23633C9.96213 7.23633 9.75348 7.32275 9.59964 7.47659C9.4458 7.63043 9.35937 7.83908 9.35937 8.05664V11.3379C9.35937 11.5555 9.4458 11.7641 9.59964 11.9179C9.75348 12.0718 9.96213 12.1582 10.1797 12.1582C10.3972 12.1582 10.6059 12.0718 10.7597 11.9179C10.9136 11.7641 11 11.5555 11 11.3379C11 10.8848 11.3673 10.5176 11.8203 10.5176C12.2734 10.5176 12.6406 10.8848 12.6406 11.3379C12.6406 11.9906 12.3813 12.6165 11.9198 13.078C11.4583 13.5396 10.8324 13.7988 10.1797 13.7988C9.52701 13.7988 8.90106 13.5396 8.43954 13.078C7.97803 12.6165 7.71875 11.9906 7.71875 11.3379V8.05664C7.71875 7.40396 7.97803 6.77801 8.43954 6.3165Z" fill="#03B5B0"/>
<path fill-rule="evenodd" clip-rule="evenodd" d="M8.43954 5.95321C8.90106 5.4917 9.52701 5.23242 10.1797 5.23242C10.8324 5.23242 11.4583 5.4917 11.9198 5.95321C12.3813 6.41473 12.6406 7.04068 12.6406 7.69336C12.6406 8.14641 12.2734 8.51367 11.8203 8.51367C11.3673 8.51367 11 8.14641 11 7.69336C11 7.4758 10.9136 7.26715 10.7597 7.11331C10.6059 6.95947 10.3972 6.87305 10.1797 6.87305C9.96213 6.87305 9.75348 6.95947 9.59964 7.11331C9.4458 7.26715 9.35937 7.4758 9.35937 7.69336V10.9746C9.35937 11.1922 9.4458 11.4008 9.59964 11.5547C9.75348 11.7085 9.96213 11.7949 10.1797 11.7949C10.3972 11.7949 10.6059 11.7085 10.7597 11.5547C10.9136 11.4008 11 11.1922 11 10.9746C11 10.5216 11.3673 10.1543 11.8203 10.1543C12.2734 10.1543 12.6406 10.5216 12.6406 10.9746C12.6406 11.6273 12.3813 12.2532 11.9198 12.7148C11.4583 13.1763 10.8324 13.4355 10.1797 13.4355C9.52701 13.4355 8.90106 13.1763 8.43954 12.7148C7.97803 12.2532 7.71875 11.6273 7.71875 10.9746V7.69336C7.71875 7.04068 7.97803 6.41473 8.43954 5.95321Z" fill="#E6FAF9"/>
</g>
<defs>
<clipPath id="clip0_0_6652">
<rect width="17.5" height="17.5" fill="white" transform="translate(1.25 1.25)"/>
</clipPath>
</defs>
</svg>
