<svg width="40" height="40" viewBox="0 0 40 40" fill="none" xmlns="http://www.w3.org/2000/svg">
<path d="M11.9398 4.66699C11.1465 4.66699 10.4014 5.04761 9.93647 5.69034L3.45236 14.6536C2.89747 15.4207 2.9564 16.4717 3.59355 17.1719L19.6988 34.8712C19.8623 35.0509 20.145 35.0508 20.3085 34.8711L36.4069 17.1719C37.0438 16.4717 37.1026 15.4208 36.5478 14.6539L30.0635 5.69034C29.5986 5.04761 28.8535 4.66699 28.0602 4.66699H11.9398Z" fill="#03C9C3"/>
<mask id="mask0_0_6662" style="mask-type:alpha" maskUnits="userSpaceOnUse" x="3" y="4" width="34" height="32">
<path d="M11.9398 4.66699C11.1465 4.66699 10.4014 5.04761 9.93647 5.69034L3.45236 14.6536C2.89747 15.4207 2.9564 16.4717 3.59355 17.1719L19.6988 34.8712C19.8623 35.0509 20.145 35.0508 20.3085 34.8711L36.4069 17.1719C37.0438 16.4717 37.1026 15.4208 36.5478 14.6539L30.0635 5.69034C29.5986 5.04761 28.8535 4.66699 28.0602 4.66699H11.9398Z" fill="#03C9C3"/>
</mask>
<g mask="url(#mask0_0_6662)">
<path d="M9.93647 5.69034L2.84422 15.4943C2.70072 15.6927 2.84245 15.9701 3.08729 15.9701H37.5L30.0635 5.69034C29.5986 5.04761 28.8535 4.66699 28.0602 4.66699H11.9398C11.1465 4.66699 10.4014 5.04761 9.93647 5.69034Z" fill="#16DDD7"/>
</g>
<path d="M19.933 4.70508L11.8047 15.9696H28.0832L19.955 4.70508V4.67444L19.944 4.68976L19.933 4.67444V4.70508Z" fill="#D9F7F6"/>
<path d="M11.8047 15.9697H28.0832L20.1925 34.8806C20.1222 35.049 19.8838 35.0496 19.8126 34.8816L11.8047 15.9697Z" fill="#64DBD7"/>
</svg>
