<svg width="16" height="16" viewBox="0 0 16 16" fill="none" xmlns="http://www.w3.org/2000/svg">
<path fill-rule="evenodd" clip-rule="evenodd" d="M1.52241 14.202L1.5287 14.195C1.53785 14.1846 1.55556 14.1637 1.57998 14.1318C1.62878 14.068 1.70458 13.9597 1.79241 13.8016C1.96758 13.4863 2.19345 12.968 2.34646 12.2029C2.40169 11.9267 2.43651 11.6837 2.45696 11.4718C1.7463 10.3762 1.33351 9.06892 1.33351 7.66699C1.33351 3.801 4.46752 0.666992 8.33351 0.666992C12.1995 0.666992 15.3335 3.801 15.3335 7.66699C15.3335 11.533 12.1995 14.667 8.33351 14.667C7.5296 14.667 6.7561 14.5312 6.03551 14.2809L2.17195 15.3111C1.88055 15.3889 1.57327 15.2613 1.42263 15C1.2735 14.7413 1.31467 14.4154 1.52241 14.202ZM5.3335 9C5.88578 9 6.3335 8.55228 6.3335 8C6.3335 7.44772 5.88578 7 5.3335 7C4.78121 7 4.3335 7.44772 4.3335 8C4.3335 8.55228 4.78121 9 5.3335 9ZM9.3335 8C9.3335 8.55228 8.88578 9 8.3335 9C7.78121 9 7.3335 8.55228 7.3335 8C7.3335 7.44772 7.78121 7 8.3335 7C8.88578 7 9.3335 7.44772 9.3335 8ZM11.3335 9C11.8858 9 12.3335 8.55228 12.3335 8C12.3335 7.44772 11.8858 7 11.3335 7C10.7812 7 10.3335 7.44772 10.3335 8C10.3335 8.55228 10.7812 9 11.3335 9Z" fill="#03C9C3"/>
</svg>
