<svg width="24" height="24" viewBox="0 0 24 24" fill="none" xmlns="http://www.w3.org/2000/svg">
<path fill-rule="evenodd" clip-rule="evenodd" d="M0.999512 4C0.999512 2.34315 2.34266 1 3.99951 1H19.9995C21.6564 1 22.9995 2.34315 22.9995 4V15C22.9995 16.6569 21.6564 18 19.9995 18H13.3616L7.6397 22.7682C7.34161 23.0166 6.92674 23.0702 6.57536 22.9056C6.22397 22.741 5.99951 22.388 5.99951 22V18H3.99951C2.34266 18 0.999512 16.6569 0.999512 15V4ZM6.49951 11C7.32794 11 7.99951 10.3284 7.99951 9.5C7.99951 8.67157 7.32794 8 6.49951 8C5.67108 8 4.99951 8.67157 4.99951 9.5C4.99951 10.3284 5.67108 11 6.49951 11ZM13.4995 9.5C13.4995 10.3284 12.8279 11 11.9995 11C11.1711 11 10.4995 10.3284 10.4995 9.5C10.4995 8.67157 11.1711 8 11.9995 8C12.8279 8 13.4995 8.67157 13.4995 9.5ZM17.4995 11C18.3279 11 18.9995 10.3284 18.9995 9.5C18.9995 8.67157 18.3279 8 17.4995 8C16.6711 8 15.9995 8.67157 15.9995 9.5C15.9995 10.3284 16.6711 11 17.4995 11Z" fill="#D4D4D4"/>
</svg>
