<svg width="32" height="32" viewBox="0 0 32 32" fill="none" xmlns="http://www.w3.org/2000/svg">
<circle cx="16" cy="16" r="16" fill="#E6FAF9"/>
<path fill-rule="evenodd" clip-rule="evenodd" d="M16 9.04333C12.134 9.04333 9 11.8787 9 15.3767C9 17.0613 9.732 18.588 10.9173 19.7233L10.3387 22.556C10.3263 22.6166 10.3311 22.6794 10.3524 22.7374C10.3738 22.7955 10.4108 22.8464 10.4595 22.8846C10.5081 22.9228 10.5664 22.9467 10.6278 22.9537C10.6892 22.9606 10.7514 22.9503 10.8073 22.924L13.9613 21.4353C14.6255 21.6178 15.3112 21.7102 16 21.71C19.866 21.71 23 18.8747 23 15.3767C23 11.8787 19.866 9.04333 16 9.04333" fill="#03C9C3"/>
</svg>
