<svg width="40" height="40" viewBox="0 0 40 40" fill="none" xmlns="http://www.w3.org/2000/svg">
<circle cx="20" cy="20" r="20" fill="#03C9C3"/>
<g clip-path="url(#clip0_59_3737)">
<path fill-rule="evenodd" clip-rule="evenodd" d="M19.9995 11.4595C19.1044 11.4595 18.246 11.8151 17.613 12.448C16.9801 13.0809 16.6245 13.9394 16.6245 14.8345V19.4867C16.6245 20.3818 16.9801 21.2403 17.613 21.8732C18.246 22.5061 19.1044 22.8617 19.9995 22.8617C20.8946 22.8617 21.7531 22.5061 22.386 21.8732C23.0189 21.2403 23.3745 20.3818 23.3745 19.4867V14.8345C23.3745 13.9394 23.0189 13.0809 22.386 12.448C21.7531 11.8151 20.8946 11.4595 19.9995 11.4595Z" fill="white"/>
<path fill-rule="evenodd" clip-rule="evenodd" d="M26.4506 19.4868C26.4506 19.2879 26.3715 19.0971 26.2309 18.9565C26.0902 18.8158 25.8995 18.7368 25.7006 18.7368C25.5016 18.7368 25.3109 18.8158 25.1702 18.9565C25.0296 19.0971 24.9506 19.2879 24.9506 19.4868C24.9492 20.7994 24.4271 22.0578 23.499 22.986C22.5708 23.9141 21.3124 24.4362 19.9998 24.4376C18.6875 24.436 17.4293 23.914 16.5014 22.986C15.5734 22.058 15.0514 20.7999 15.0498 19.4876C15.0498 19.2887 14.9708 19.0979 14.8301 18.9572C14.6895 18.8166 14.4987 18.7376 14.2998 18.7376C14.1009 18.7376 13.9101 18.8166 13.7695 18.9572C13.6288 19.0979 13.5498 19.2887 13.5498 19.4876C13.5498 22.7898 16.0458 25.5176 19.2498 25.8903V28.2506C19.2498 28.4495 19.3288 28.6402 19.4695 28.7809C19.6101 28.9216 19.8009 29.0006 19.9998 29.0006C20.1987 29.0006 20.3895 28.9216 20.5301 28.7809C20.6708 28.6402 20.7498 28.4495 20.7498 28.2506V25.8903C23.9546 25.5168 26.4506 22.7898 26.4506 19.4868Z" fill="white"/>
</g>
<defs>
<clipPath id="clip0_59_3737">
<rect width="18" height="18" fill="white" transform="translate(11 11)"/>
</clipPath>
</defs>
</svg>
