<svg width="80" height="24" viewBox="0 0 80 24" fill="none" xmlns="http://www.w3.org/2000/svg">
<path d="M3.56836 18L2.26758 12.4805H0.333984V10.793H1.86328L0.5625 5.27344H2.98828L4.13086 10.793H5.83594L7.10156 5.27344H9.36914L10.6348 10.793H12.3486L13.4824 5.27344H15.9082L14.6074 10.793H16.1367V12.4805H14.2031L12.9023 18H10.3359L9.0791 12.4805H7.3916L6.13477 18H3.56836ZM4.47363 12.4805L4.88672 14.4668H4.99219L5.44922 12.4805H4.47363ZM7.77832 10.793H8.69238L8.2793 8.96484H8.19141L7.77832 10.793ZM11.0215 12.4805L11.4785 14.4844H11.584L11.9971 12.4805H11.0215ZM22.1484 18.1758C19.4941 18.1758 17.5518 16.6113 17.5078 14.4141H20.0742C20.1357 15.4072 21.041 16.0928 22.1484 16.084C23.4668 16.0928 24.4072 15.1611 24.3984 13.834C24.4072 12.4805 23.4492 11.54 22.1133 11.5312C21.1553 11.5312 20.4873 11.8916 20.1094 12.6035H17.7188L18.4043 5.27344H26.2441V7.43555H20.584L20.2324 10.6523H20.3379C20.8037 10.0283 21.7705 9.57129 22.8867 9.58008C25.2246 9.57129 26.9648 11.3203 26.9648 13.7637C26.9648 16.3389 25.0137 18.1758 22.1484 18.1758ZM33.6973 18.1758C30.5068 18.1758 28.582 15.8027 28.582 11.6367C28.582 7.47949 30.5244 5.09766 33.6973 5.09766C36.8701 5.09766 38.8125 7.47949 38.8125 11.6367C38.8125 15.8203 36.8789 18.1758 33.6973 18.1758ZM31.2891 11.6367C31.2715 14.5723 32.2207 15.9961 33.6973 15.9961C35.1738 15.9961 36.1143 14.5723 36.1055 11.6367C36.1143 8.72754 35.165 7.26855 33.6973 7.25977C32.2295 7.26855 31.2891 8.72754 31.2891 11.6367ZM42.9609 16.6992L41.4492 21.709H39.5859L40.4648 16.6992H42.9609ZM49.6934 18.1758C46.5029 18.1758 44.5781 15.8027 44.5781 11.6367C44.5781 7.47949 46.5205 5.09766 49.6934 5.09766C52.8662 5.09766 54.8086 7.47949 54.8086 11.6367C54.8086 15.8203 52.875 18.1758 49.6934 18.1758ZM47.2852 11.6367C47.2676 14.5723 48.2168 15.9961 49.6934 15.9961C51.1699 15.9961 52.1104 14.5723 52.1016 11.6367C52.1104 8.72754 51.1611 7.26855 49.6934 7.25977C48.2256 7.26855 47.2852 8.72754 47.2852 11.6367ZM61.5762 18.1758C58.3857 18.1758 56.4609 15.8027 56.4609 11.6367C56.4609 7.47949 58.4033 5.09766 61.5762 5.09766C64.749 5.09766 66.6914 7.47949 66.6914 11.6367C66.6914 15.8203 64.7578 18.1758 61.5762 18.1758ZM59.168 11.6367C59.1504 14.5723 60.0996 15.9961 61.5762 15.9961C63.0527 15.9961 63.9932 14.5723 63.9844 11.6367C63.9932 8.72754 63.0439 7.26855 61.5762 7.25977C60.1084 7.26855 59.168 8.72754 59.168 11.6367ZM73.459 18.1758C70.2686 18.1758 68.3438 15.8027 68.3438 11.6367C68.3438 7.47949 70.2861 5.09766 73.459 5.09766C76.6318 5.09766 78.5742 7.47949 78.5742 11.6367C78.5742 15.8203 76.6406 18.1758 73.459 18.1758ZM71.0508 11.6367C71.0332 14.5723 71.9824 15.9961 73.459 15.9961C74.9355 15.9961 75.876 14.5723 75.8672 11.6367C75.876 8.72754 74.9268 7.26855 73.459 7.25977C71.9912 7.26855 71.0508 8.72754 71.0508 11.6367Z" fill="#171717"/>
</svg>
