<svg width="89" height="24" viewBox="0 0 89 24" fill="none" xmlns="http://www.w3.org/2000/svg">
<path d="M3.56836 18L2.26758 12.4805H0.333984V10.793H1.86328L0.5625 5.27344H2.98828L4.13086 10.793H5.83594L7.10156 5.27344H9.36914L10.6348 10.793H12.3486L13.4824 5.27344H15.9082L14.6074 10.793H16.1367V12.4805H14.2031L12.9023 18H10.3359L9.0791 12.4805H7.3916L6.13477 18H3.56836ZM4.47363 12.4805L4.88672 14.4668H4.99219L5.44922 12.4805H4.47363ZM7.77832 10.793H8.69238L8.2793 8.96484H8.19141L7.77832 10.793ZM11.0215 12.4805L11.4785 14.4844H11.584L11.9971 12.4805H11.0215ZM22.957 5.27344V18H20.3027V7.78711H20.2324L17.3145 9.61523V7.27734L20.4609 5.27344H22.957ZM30.8496 18.1758C27.6592 18.1758 25.7344 15.8027 25.7344 11.6367C25.7344 7.47949 27.6768 5.09766 30.8496 5.09766C34.0225 5.09766 35.9648 7.47949 35.9648 11.6367C35.9648 15.8203 34.0312 18.1758 30.8496 18.1758ZM28.4414 11.6367C28.4238 14.5723 29.373 15.9961 30.8496 15.9961C32.3262 15.9961 33.2666 14.5723 33.2578 11.6367C33.2666 8.72754 32.3174 7.26855 30.8496 7.25977C29.3818 7.26855 28.4414 8.72754 28.4414 11.6367ZM42.7324 18.1758C39.542 18.1758 37.6172 15.8027 37.6172 11.6367C37.6172 7.47949 39.5596 5.09766 42.7324 5.09766C45.9053 5.09766 47.8477 7.47949 47.8477 11.6367C47.8477 15.8203 45.9141 18.1758 42.7324 18.1758ZM40.3242 11.6367C40.3066 14.5723 41.2559 15.9961 42.7324 15.9961C44.209 15.9961 45.1494 14.5723 45.1406 11.6367C45.1494 8.72754 44.2002 7.26855 42.7324 7.25977C41.2646 7.26855 40.3242 8.72754 40.3242 11.6367ZM51.9961 16.6992L50.4844 21.709H48.6211L49.5 16.6992H51.9961ZM58.7285 18.1758C55.5381 18.1758 53.6133 15.8027 53.6133 11.6367C53.6133 7.47949 55.5557 5.09766 58.7285 5.09766C61.9014 5.09766 63.8438 7.47949 63.8438 11.6367C63.8438 15.8203 61.9102 18.1758 58.7285 18.1758ZM56.3203 11.6367C56.3027 14.5723 57.252 15.9961 58.7285 15.9961C60.2051 15.9961 61.1455 14.5723 61.1367 11.6367C61.1455 8.72754 60.1963 7.26855 58.7285 7.25977C57.2607 7.26855 56.3203 8.72754 56.3203 11.6367ZM70.6113 18.1758C67.4209 18.1758 65.4961 15.8027 65.4961 11.6367C65.4961 7.47949 67.4385 5.09766 70.6113 5.09766C73.7842 5.09766 75.7266 7.47949 75.7266 11.6367C75.7266 15.8203 73.793 18.1758 70.6113 18.1758ZM68.2031 11.6367C68.1855 14.5723 69.1348 15.9961 70.6113 15.9961C72.0879 15.9961 73.0283 14.5723 73.0195 11.6367C73.0283 8.72754 72.0791 7.26855 70.6113 7.25977C69.1436 7.26855 68.2031 8.72754 68.2031 11.6367ZM82.4941 18.1758C79.3037 18.1758 77.3789 15.8027 77.3789 11.6367C77.3789 7.47949 79.3213 5.09766 82.4941 5.09766C85.667 5.09766 87.6094 7.47949 87.6094 11.6367C87.6094 15.8203 85.6758 18.1758 82.4941 18.1758ZM80.0859 11.6367C80.0684 14.5723 81.0176 15.9961 82.4941 15.9961C83.9707 15.9961 84.9111 14.5723 84.9023 11.6367C84.9111 8.72754 83.9619 7.26855 82.4941 7.25977C81.0264 7.26855 80.0859 8.72754 80.0859 11.6367Z" fill="#171717"/>
</svg>
