<svg width="16" height="16" viewBox="0 0 16 16" fill="none" xmlns="http://www.w3.org/2000/svg">
<g clip-path="url(#clip0_0_7170)">
<path fill-rule="evenodd" clip-rule="evenodd" d="M8.00008 11.412C7.78791 11.412 7.58443 11.3277 7.4344 11.1776C7.28437 11.0276 7.20008 10.8241 7.20008 10.612C7.20008 10.3998 7.28437 10.1963 7.4344 10.0463C7.58443 9.89625 7.78791 9.81196 8.00008 9.81196C8.21226 9.81196 8.41574 9.89625 8.56577 10.0463C8.7158 10.1963 8.80008 10.3998 8.80008 10.612C8.80008 10.8241 8.7158 11.0276 8.56577 11.1776C8.41574 11.3277 8.21226 11.412 8.00008 11.412ZM7.33342 4.85529C7.33342 4.67848 7.40365 4.50891 7.52868 4.38389C7.6537 4.25886 7.82327 4.18863 8.00008 4.18863C8.17689 4.18863 8.34646 4.25886 8.47149 4.38389C8.59651 4.50891 8.66675 4.67848 8.66675 4.85529V8.18863C8.66675 8.36544 8.59651 8.53501 8.47149 8.66003C8.34646 8.78506 8.17689 8.85529 8.00008 8.85529C7.82327 8.85529 7.6537 8.78506 7.52868 8.66003C7.40365 8.53501 7.33342 8.36544 7.33342 8.18863V4.85529ZM8.00008 0.666626C3.95008 0.666626 0.666748 3.94996 0.666748 7.99996C0.666748 12.0506 3.95008 15.3333 8.00008 15.3333C12.0501 15.3333 15.3334 12.0506 15.3334 7.99996C15.3334 3.94996 12.0501 0.666626 8.00008 0.666626Z" fill="#404040"/>
</g>
<defs>
<clipPath id="clip0_0_7170">
<rect width="16" height="16" fill="white"/>
</clipPath>
</defs>
</svg>
