<svg width="12" height="12" viewBox="0 0 12 12" fill="none" xmlns="http://www.w3.org/2000/svg">
<path d="M8.53357 1.13578C8.74999 1.04614 8.98195 1 9.21621 1C9.45046 1 9.68242 1.04614 9.89884 1.13578C10.1153 1.22543 10.3119 1.35682 10.4775 1.52246C10.6432 1.68811 10.7746 1.88475 10.8642 2.10117C10.9539 2.3176 11 2.54955 11 2.78381C11 3.01806 10.9539 3.25002 10.8642 3.46644C10.7746 3.68286 10.6432 3.87951 10.4775 4.04515L10.2185 4.30422L7.69579 1.78154L7.95486 1.52246C8.12051 1.35682 8.31715 1.22543 8.53357 1.13578Z" fill="white"/>
<path d="M6.98868 2.48865L1.8273 7.65003C1.76577 7.71156 1.72137 7.78808 1.69847 7.87203L1.01763 10.3684C0.970419 10.5415 1.01958 10.7267 1.14646 10.8536C1.27333 10.9804 1.45846 11.0296 1.63157 10.9824L4.12799 10.3015C4.21193 10.2786 4.28845 10.2342 4.34998 10.1727L9.51136 5.01133L6.98868 2.48865Z" fill="white"/>
</svg>
