<svg width="12" height="12" viewBox="0 0 12 12" fill="none" xmlns="http://www.w3.org/2000/svg">
<g clip-path="url(#clip0_0_6640)">
<path fill-rule="evenodd" clip-rule="evenodd" d="M0.5 6C0.5 2.96243 2.96243 0.5 6 0.5C9.03757 0.5 11.5 2.96243 11.5 6C11.5 9.03757 9.03757 11.5 6 11.5C2.96243 11.5 0.5 9.03757 0.5 6ZM6.25 2.75C6.52614 2.75 6.75 2.97386 6.75 3.25V5.25H8.75C9.02614 5.25 9.25 5.47386 9.25 5.75V6.25C9.25 6.52614 9.02614 6.75 8.75 6.75H6.75V8.75C6.75 9.02614 6.52614 9.25 6.25 9.25H5.75C5.47386 9.25 5.25 9.02614 5.25 8.75V6.75H3.25C2.97386 6.75 2.75 6.52614 2.75 6.25V5.75C2.75 5.47386 2.97386 5.25 3.25 5.25H5.25V3.25C5.25 2.97386 5.47386 2.75 5.75 2.75H6.25Z" fill="#737373"/>
</g>
<defs>
<clipPath id="clip0_0_6640">
<rect width="12" height="12" fill="white"/>
</clipPath>
</defs>
</svg>
