<svg width="16" height="16" viewBox="0 0 16 16" fill="none" xmlns="http://www.w3.org/2000/svg">
<path d="M11.3781 1.51438C11.6667 1.39486 11.976 1.33334 12.2883 1.33334C12.6007 1.33334 12.9099 1.39486 13.1985 1.51438C13.4871 1.63391 13.7492 1.8091 13.9701 2.02996C14.191 2.25081 14.3662 2.513 14.4857 2.80157C14.6052 3.09013 14.6667 3.39941 14.6667 3.71174C14.6667 4.02408 14.6052 4.33336 14.4857 4.62192C14.3662 4.91048 14.191 5.17268 13.9701 5.39353L13.6247 5.73897L10.2611 2.37539L10.6065 2.02996C10.8274 1.8091 11.0896 1.63391 11.3781 1.51438Z" fill="white"/>
<path d="M9.31828 3.3182L2.43644 10.2C2.3544 10.2821 2.29519 10.3841 2.26467 10.496L1.35688 13.8246C1.29393 14.0554 1.35948 14.3022 1.52865 14.4714C1.69782 14.6406 1.94466 14.7061 2.17547 14.6432L5.50402 13.7354C5.61595 13.7049 5.71798 13.6457 5.80002 13.5636L12.6819 6.68178L9.31828 3.3182Z" fill="white"/>
</svg>
