<svg width="14" height="14" viewBox="0 0 14 14" fill="none" xmlns="http://www.w3.org/2000/svg">
<g clip-path="url(#clip0_0_5633)">
<path fill-rule="evenodd" clip-rule="evenodd" d="M0.583374 7.00001C0.583374 3.45618 3.45621 0.583344 7.00004 0.583344C10.5439 0.583344 13.4167 3.45618 13.4167 7.00001C13.4167 10.5438 10.5439 13.4167 7.00004 13.4167C3.45621 13.4167 0.583374 10.5438 0.583374 7.00001ZM6.00992 7.8133C5.96845 8.00026 6.12728 8.16668 6.32797 8.16668H7.60708C7.75715 8.16668 7.88385 8.0705 7.93712 7.93691C7.98998 7.80435 8.17354 7.5643 8.31489 7.43857C8.4483 7.29819 8.58745 7.16615 8.72456 7.03606C9.2648 6.52345 9.77322 6.04102 9.77322 5.19778C9.77322 3.7351 8.5062 2.91668 7.15793 2.91668C6.12725 2.91668 4.70414 3.38687 4.42401 4.96046C4.36755 5.27764 4.63622 5.54168 4.95838 5.54168H5.78221C6.08932 5.54168 6.31824 5.29459 6.42377 5.00618C6.52537 4.72853 6.73047 4.52382 7.15793 4.52382C7.93724 4.52382 7.93712 5.38051 7.4869 5.94087C7.31705 6.15228 7.11804 6.33952 6.92116 6.52478C6.52161 6.90072 6.13076 7.26848 6.00992 7.8133ZM8.16667 9.91668C8.16667 10.561 7.64434 11.0833 7.00001 11.0833C6.35567 11.0833 5.83334 10.561 5.83334 9.91668C5.83334 9.27234 6.35567 8.75001 7.00001 8.75001C7.64434 8.75001 8.16667 9.27234 8.16667 9.91668Z" fill="#A3A3A3"/>
</g>
<defs>
<clipPath id="clip0_0_5633">
<rect width="14" height="14" fill="white"/>
</clipPath>
</defs>
</svg>
