<svg width="176" height="32" viewBox="0 0 176 32" fill="none" xmlns="http://www.w3.org/2000/svg">
<rect opacity="0.66" y="15" width="2" height="2" rx="1" fill="url(#paint0_linear_0_5569)"/>
<rect opacity="0.66" x="6" y="12" width="2" height="8" rx="1" fill="url(#paint1_linear_0_5569)"/>
<rect opacity="0.66" x="12" y="9" width="2" height="14" rx="1" fill="url(#paint2_linear_0_5569)"/>
<rect opacity="0.66" x="18" y="8" width="2" height="16" rx="1" fill="url(#paint3_linear_0_5569)"/>
<rect opacity="0.66" x="24" y="9" width="2" height="14" rx="1" fill="url(#paint4_linear_0_5569)"/>
<rect opacity="0.66" x="30" y="11" width="2" height="10" rx="1" fill="url(#paint5_linear_0_5569)"/>
<rect opacity="0.66" x="36" y="11" width="2" height="10" rx="1" fill="url(#paint6_linear_0_5569)"/>
<rect opacity="0.66" x="42" y="11" width="2" height="10" rx="1" fill="url(#paint7_linear_0_5569)"/>
<rect opacity="0.66" x="48" y="9" width="2" height="14" rx="1" fill="url(#paint8_linear_0_5569)"/>
<rect opacity="0.66" x="54" y="11" width="2" height="10" rx="1" fill="url(#paint9_linear_0_5569)"/>
<rect opacity="0.66" x="60" y="11" width="2" height="10" rx="1" fill="url(#paint10_linear_0_5569)"/>
<rect opacity="0.66" x="66" y="11" width="2" height="10" rx="1" fill="url(#paint11_linear_0_5569)"/>
<rect opacity="0.66" x="72" y="8" width="2" height="16" rx="1" fill="url(#paint12_linear_0_5569)"/>
<rect opacity="0.66" x="78" y="9" width="2" height="14" rx="1" fill="url(#paint13_linear_0_5569)"/>
<rect opacity="0.66" x="84" y="11" width="2" height="10" rx="1" fill="url(#paint14_linear_0_5569)"/>
<rect opacity="0.66" x="90" y="9" width="2" height="14" rx="1" fill="url(#paint15_linear_0_5569)"/>
<rect opacity="0.66" x="96" y="11" width="2" height="10" rx="1" fill="url(#paint16_linear_0_5569)"/>
<rect opacity="0.66" x="102" y="8" width="2" height="16" rx="1" fill="url(#paint17_linear_0_5569)"/>
<rect opacity="0.66" x="108" y="11" width="2" height="10" rx="1" fill="url(#paint18_linear_0_5569)"/>
<rect opacity="0.66" x="114" y="8" width="2" height="16" rx="1" fill="url(#paint19_linear_0_5569)"/>
<rect opacity="0.66" x="120" y="9" width="2" height="14" rx="1" fill="url(#paint20_linear_0_5569)"/>
<rect opacity="0.66" x="126" y="11" width="2" height="10" rx="1" fill="url(#paint21_linear_0_5569)"/>
<rect opacity="0.66" x="132" y="11" width="2" height="10" rx="1" fill="url(#paint22_linear_0_5569)"/>
<rect opacity="0.66" x="138" y="11" width="2" height="10" rx="1" fill="url(#paint23_linear_0_5569)"/>
<rect opacity="0.66" x="144" y="8" width="2" height="16" rx="1" fill="url(#paint24_linear_0_5569)"/>
<rect opacity="0.66" x="150" y="11" width="2" height="10" rx="1" fill="url(#paint25_linear_0_5569)"/>
<rect opacity="0.66" x="156" y="8" width="2" height="16" rx="1" fill="url(#paint26_linear_0_5569)"/>
<rect opacity="0.66" x="162" y="11" width="2" height="10" rx="1" fill="url(#paint27_linear_0_5569)"/>
<rect opacity="0.66" x="168" y="14" width="2" height="4" rx="1" fill="url(#paint28_linear_0_5569)"/>
<rect opacity="0.66" x="174" y="15" width="2" height="2" rx="1" fill="url(#paint29_linear_0_5569)"/>
<defs>
<linearGradient id="paint0_linear_0_5569" x1="1" y1="15" x2="1" y2="17" gradientUnits="userSpaceOnUse">
<stop stop-color="#03C9C3"/>
<stop offset="1" stop-color="#03C9C3" stop-opacity="0.4"/>
</linearGradient>
<linearGradient id="paint1_linear_0_5569" x1="7" y1="12" x2="7" y2="20" gradientUnits="userSpaceOnUse">
<stop stop-color="#03C9C3"/>
<stop offset="1" stop-color="#03C9C3" stop-opacity="0.4"/>
</linearGradient>
<linearGradient id="paint2_linear_0_5569" x1="13" y1="9" x2="13" y2="23" gradientUnits="userSpaceOnUse">
<stop stop-color="#03C9C3"/>
<stop offset="1" stop-color="#03C9C3" stop-opacity="0.4"/>
</linearGradient>
<linearGradient id="paint3_linear_0_5569" x1="19" y1="8" x2="19" y2="24" gradientUnits="userSpaceOnUse">
<stop stop-color="#03C9C3"/>
<stop offset="1" stop-color="#03C9C3" stop-opacity="0.4"/>
</linearGradient>
<linearGradient id="paint4_linear_0_5569" x1="25" y1="9" x2="25" y2="23" gradientUnits="userSpaceOnUse">
<stop stop-color="#03C9C3"/>
<stop offset="1" stop-color="#03C9C3" stop-opacity="0.4"/>
</linearGradient>
<linearGradient id="paint5_linear_0_5569" x1="31" y1="11" x2="31" y2="21" gradientUnits="userSpaceOnUse">
<stop stop-color="#03C9C3"/>
<stop offset="1" stop-color="#03C9C3" stop-opacity="0.4"/>
</linearGradient>
<linearGradient id="paint6_linear_0_5569" x1="37" y1="11" x2="37" y2="21" gradientUnits="userSpaceOnUse">
<stop stop-color="#03C9C3"/>
<stop offset="1" stop-color="#03C9C3" stop-opacity="0.4"/>
</linearGradient>
<linearGradient id="paint7_linear_0_5569" x1="43" y1="11" x2="43" y2="21" gradientUnits="userSpaceOnUse">
<stop stop-color="#03C9C3"/>
<stop offset="1" stop-color="#03C9C3" stop-opacity="0.4"/>
</linearGradient>
<linearGradient id="paint8_linear_0_5569" x1="49" y1="9" x2="49" y2="23" gradientUnits="userSpaceOnUse">
<stop stop-color="#03C9C3"/>
<stop offset="1" stop-color="#03C9C3" stop-opacity="0.4"/>
</linearGradient>
<linearGradient id="paint9_linear_0_5569" x1="55" y1="11" x2="55" y2="21" gradientUnits="userSpaceOnUse">
<stop stop-color="#03C9C3"/>
<stop offset="1" stop-color="#03C9C3" stop-opacity="0.4"/>
</linearGradient>
<linearGradient id="paint10_linear_0_5569" x1="61" y1="11" x2="61" y2="21" gradientUnits="userSpaceOnUse">
<stop stop-color="#03C9C3"/>
<stop offset="1" stop-color="#03C9C3" stop-opacity="0.4"/>
</linearGradient>
<linearGradient id="paint11_linear_0_5569" x1="67" y1="11" x2="67" y2="21" gradientUnits="userSpaceOnUse">
<stop stop-color="#03C9C3"/>
<stop offset="1" stop-color="#03C9C3" stop-opacity="0.4"/>
</linearGradient>
<linearGradient id="paint12_linear_0_5569" x1="73" y1="8" x2="73" y2="24" gradientUnits="userSpaceOnUse">
<stop stop-color="#03C9C3"/>
<stop offset="1" stop-color="#03C9C3" stop-opacity="0.4"/>
</linearGradient>
<linearGradient id="paint13_linear_0_5569" x1="79" y1="9" x2="79" y2="23" gradientUnits="userSpaceOnUse">
<stop stop-color="#03C9C3"/>
<stop offset="1" stop-color="#03C9C3" stop-opacity="0.4"/>
</linearGradient>
<linearGradient id="paint14_linear_0_5569" x1="85" y1="11" x2="85" y2="21" gradientUnits="userSpaceOnUse">
<stop stop-color="#03C9C3"/>
<stop offset="1" stop-color="#03C9C3" stop-opacity="0.4"/>
</linearGradient>
<linearGradient id="paint15_linear_0_5569" x1="91" y1="9" x2="91" y2="23" gradientUnits="userSpaceOnUse">
<stop stop-color="#03C9C3"/>
<stop offset="1" stop-color="#03C9C3" stop-opacity="0.4"/>
</linearGradient>
<linearGradient id="paint16_linear_0_5569" x1="97" y1="11" x2="97" y2="21" gradientUnits="userSpaceOnUse">
<stop stop-color="#03C9C3"/>
<stop offset="1" stop-color="#03C9C3" stop-opacity="0.4"/>
</linearGradient>
<linearGradient id="paint17_linear_0_5569" x1="103" y1="8" x2="103" y2="24" gradientUnits="userSpaceOnUse">
<stop stop-color="#03C9C3"/>
<stop offset="1" stop-color="#03C9C3" stop-opacity="0.4"/>
</linearGradient>
<linearGradient id="paint18_linear_0_5569" x1="109" y1="11" x2="109" y2="21" gradientUnits="userSpaceOnUse">
<stop stop-color="#03C9C3"/>
<stop offset="1" stop-color="#03C9C3" stop-opacity="0.4"/>
</linearGradient>
<linearGradient id="paint19_linear_0_5569" x1="115" y1="8" x2="115" y2="24" gradientUnits="userSpaceOnUse">
<stop stop-color="#03C9C3"/>
<stop offset="1" stop-color="#03C9C3" stop-opacity="0.4"/>
</linearGradient>
<linearGradient id="paint20_linear_0_5569" x1="121" y1="9" x2="121" y2="23" gradientUnits="userSpaceOnUse">
<stop stop-color="#03C9C3"/>
<stop offset="1" stop-color="#03C9C3" stop-opacity="0.4"/>
</linearGradient>
<linearGradient id="paint21_linear_0_5569" x1="127" y1="11" x2="127" y2="21" gradientUnits="userSpaceOnUse">
<stop stop-color="#03C9C3"/>
<stop offset="1" stop-color="#03C9C3" stop-opacity="0.4"/>
</linearGradient>
<linearGradient id="paint22_linear_0_5569" x1="133" y1="11" x2="133" y2="21" gradientUnits="userSpaceOnUse">
<stop stop-color="#03C9C3"/>
<stop offset="1" stop-color="#03C9C3" stop-opacity="0.4"/>
</linearGradient>
<linearGradient id="paint23_linear_0_5569" x1="139" y1="11" x2="139" y2="21" gradientUnits="userSpaceOnUse">
<stop stop-color="#03C9C3"/>
<stop offset="1" stop-color="#03C9C3" stop-opacity="0.4"/>
</linearGradient>
<linearGradient id="paint24_linear_0_5569" x1="145" y1="8" x2="145" y2="24" gradientUnits="userSpaceOnUse">
<stop stop-color="#03C9C3"/>
<stop offset="1" stop-color="#03C9C3" stop-opacity="0.4"/>
</linearGradient>
<linearGradient id="paint25_linear_0_5569" x1="151" y1="11" x2="151" y2="21" gradientUnits="userSpaceOnUse">
<stop stop-color="#03C9C3"/>
<stop offset="1" stop-color="#03C9C3" stop-opacity="0.4"/>
</linearGradient>
<linearGradient id="paint26_linear_0_5569" x1="157" y1="8" x2="157" y2="24" gradientUnits="userSpaceOnUse">
<stop stop-color="#03C9C3"/>
<stop offset="1" stop-color="#03C9C3" stop-opacity="0.4"/>
</linearGradient>
<linearGradient id="paint27_linear_0_5569" x1="163" y1="11" x2="163" y2="21" gradientUnits="userSpaceOnUse">
<stop stop-color="#03C9C3"/>
<stop offset="1" stop-color="#03C9C3" stop-opacity="0.4"/>
</linearGradient>
<linearGradient id="paint28_linear_0_5569" x1="169" y1="14" x2="169" y2="18" gradientUnits="userSpaceOnUse">
<stop stop-color="#03C9C3"/>
<stop offset="1" stop-color="#03C9C3" stop-opacity="0.4"/>
</linearGradient>
<linearGradient id="paint29_linear_0_5569" x1="175" y1="15" x2="175" y2="17" gradientUnits="userSpaceOnUse">
<stop stop-color="#03C9C3"/>
<stop offset="1" stop-color="#03C9C3" stop-opacity="0.4"/>
</linearGradient>
</defs>
</svg>
