<svg width="33" height="32" viewBox="0 0 33 32" fill="none" xmlns="http://www.w3.org/2000/svg">
<path d="M18.4148 2H13.7648C13.5548 2 13.3448 2.09 13.2148 2.26L11.3248 4.52C11.1448 4.73 11.1048 5.03 11.2248 5.28L13.2448 9.76C13.3648 10.02 13.6148 10.19 13.9048 10.19H18.2948C18.5748 10.19 18.8348 10.02 18.9548 9.76L20.9748 5.28C21.0848 5.03 21.0448 4.73 20.8748 4.52L18.9848 2.26C18.9129 2.17971 18.8251 2.11517 18.727 2.07042C18.6289 2.02568 18.5226 2.0017 18.4148 2Z" fill="#00A6ED"/>
<path d="M21.002 4.83C20.9812 4.71493 20.9293 4.60774 20.852 4.52L18.962 2.26C18.894 2.18016 18.8098 2.11569 18.715 2.07087C18.6201 2.02604 18.5169 2.00189 18.412 2H13.762C13.552 2 13.342 2.09 13.212 2.26L11.322 4.52C11.242 4.61 11.192 4.72 11.172 4.83H21.002Z" fill="#26EAFC"/>
<path d="M19.712 8.53001V8.10001H12.482V8.53001C12.482 9.07001 12.162 9.55001 11.682 9.77001C7.89199 11.51 5.30199 15.42 5.51199 19.9C5.77199 25.46 10.362 29.91 15.922 30C21.842 30.1 26.692 25.3 26.692 19.4C26.692 15.13 24.152 11.44 20.502 9.76001C20.022 9.54001 19.712 9.06001 19.712 8.53001ZM16.092 26.93C11.942 26.93 8.56199 23.55 8.56199 19.4C8.56199 15.25 11.942 11.87 16.092 11.87C20.242 11.87 23.622 15.25 23.622 19.4C23.622 23.55 20.242 26.93 16.092 26.93Z" fill="#B4ACBC"/>
</svg>
