<svg width="33" height="32" viewBox="0 0 33 32" fill="none" xmlns="http://www.w3.org/2000/svg">
<path d="M14.7031 21.3223L20.1681 21.3648C20.1681 21.3648 19.7331 22.7773 19.3731 23.3323C18.7856 24.2323 18.4931 24.6923 18.2431 25.6148C17.8556 27.0348 17.8881 28.1273 17.8881 28.1273C17.8881 28.1273 18.1906 28.0223 18.5581 28.1273C19.0056 28.2548 19.2481 28.5523 19.2081 28.7348C19.1706 28.8973 18.6731 28.7873 18.3281 29.1323C18.0556 29.4048 17.9506 29.8873 17.9081 30.1998C17.8656 30.5148 17.8231 30.9123 17.2381 30.9948C16.6506 31.0798 15.7731 31.1423 15.5831 30.8473C15.3956 30.5548 15.4981 25.4448 15.4981 25.4448L14.7031 21.3223Z" fill="#307D31"/>
<path d="M14.6388 20.1895C14.5338 20.377 12.0588 20.822 12.0588 20.822C12.0588 20.822 11.2313 21.2645 10.9188 22.7095C10.7488 23.492 10.7863 25.077 10.6388 25.632C10.4288 26.427 9.54883 26.8895 9.59133 27.077C9.63383 27.2645 10.4013 27.252 10.9938 26.992C12.3338 26.4045 12.5688 25.1895 13.0038 24.1445C13.4238 23.1395 14.2188 22.612 14.2188 22.612C14.2188 22.612 14.0313 23.342 14.1113 24.147C14.1788 24.8395 14.3963 25.722 14.1113 26.5795C13.8388 27.397 13.4563 27.8895 13.6088 27.9645C13.7238 28.0195 15.0888 27.882 15.6338 26.687C16.2363 25.367 16.2788 24.2845 16.6388 23.5095C17.0363 22.652 17.7938 22.287 17.7938 22.287C17.7938 22.287 18.3313 22.602 18.9888 23.522C19.7213 24.547 20.3338 25.4095 20.7288 25.9395C21.6538 27.1845 22.9363 27.577 22.9763 27.367C23.0388 27.032 22.3588 26.4945 22.2213 25.8395C21.8838 24.227 22.3463 23.4545 21.9638 22.217C21.4138 20.4295 20.1163 20.397 19.6663 20.312C19.5613 20.297 14.6388 20.1895 14.6388 20.1895Z" fill="#5C9823"/>
<path d="M12.3257 11.0855C12.0432 10.833 7.8582 7.78298 7.8582 7.78298L7.7957 5.92798C7.7957 5.92798 6.7707 3.99048 7.95069 2.54798C8.97569 1.29548 10.3432 1.65048 10.3432 1.65048C10.3432 1.65048 11.0282 0.787979 12.2232 0.727979C13.7507 0.650479 14.4957 1.93548 14.4957 1.93548L21.3832 3.06798L25.2507 5.58298C25.2507 5.58298 25.8232 5.39798 26.2982 5.73298C26.7932 6.08048 26.6307 6.81048 26.5757 7.13798C26.5232 7.45048 21.4132 11.528 21.4132 11.528L21.9482 19.518L20.1632 21.5105C20.1632 21.5105 19.9132 21.7555 19.4007 21.8205C19.1032 21.858 18.7207 21.738 18.7207 21.738L17.6082 18.543L12.3257 11.0855Z" fill="#96010C"/>
<path d="M21.2867 1.71577L20.3567 1.78577L19.7042 2.33327L19.9367 3.38577C19.9367 3.38577 19.9667 4.17327 19.3467 4.55077C18.7267 4.92827 17.5092 5.54827 17.5092 5.54827L16.6692 6.93827C16.6692 6.93827 16.1292 6.76077 15.2492 6.30827C14.4267 5.88327 13.3742 4.91327 13.3742 4.91327L11.4917 4.78577C11.4917 4.78577 11.1317 4.75327 10.8292 5.07327C10.3942 5.53827 10.5492 6.52327 11.4017 7.42577C12.2217 8.29327 13.9967 9.35077 14.3917 9.64327C14.7867 9.93577 15.3892 10.3108 15.7317 10.5033C16.0617 10.6883 16.4567 10.9533 16.6292 10.9208C16.8017 10.8858 17.0567 10.2983 17.8642 9.73077C18.6717 9.16327 19.4617 8.68327 20.7517 8.23577C22.0417 7.78827 23.2792 7.27327 23.6567 7.03327C24.0342 6.79327 23.5192 5.16077 23.0542 4.16327C22.5892 3.16577 21.3192 1.61327 21.2867 1.71577Z" fill="#AF0C1B"/>
<path d="M16.7659 5.9957C16.4484 6.4157 16.5084 6.9057 16.5084 6.9057C16.5084 6.9057 17.2009 7.3207 17.8834 7.5582C19.1209 7.9882 21.9059 7.8682 23.2459 7.2657C24.5859 6.6632 25.2409 6.1432 25.4459 5.5132C25.6859 4.7732 25.8859 3.2782 24.4459 2.1257C22.7959 0.8032 20.3059 1.5257 20.3059 1.8707C20.3059 2.2157 21.3034 1.9407 21.3034 3.1932C21.3034 4.4457 20.2034 5.2032 19.0859 5.3582C17.9684 5.5132 17.2459 5.3582 16.7659 5.9957Z" fill="#DB132C"/>
<path d="M11.0612 4.91324C11.0612 4.91324 10.9337 4.40824 11.3537 4.00324C11.9887 3.38324 12.7987 3.05824 13.2612 2.55824C13.7237 2.05824 14.3812 1.11074 15.9937 0.890743C18.3837 0.563243 19.9287 1.45824 20.2737 2.55824C20.6187 3.65824 19.9637 4.03574 19.2937 4.05324C18.6237 4.07074 18.2512 3.75574 17.0237 3.96824C14.9437 4.32824 14.2212 5.44574 14.0337 5.55074C13.8437 5.65324 13.2262 5.29324 12.3837 5.06824C11.7762 4.90574 11.3362 4.94574 11.0612 4.91324Z" fill="#F71538"/>
<path d="M17.9062 12.0944C17.9062 12.0944 18.3312 10.6819 19.7188 9.78689C21.1087 8.89189 22.1213 8.86939 23.8888 8.06689C25.6563 7.26439 26.2662 6.73689 26.5487 6.55189C26.8387 6.36189 27.1012 6.18939 27.3037 6.52189C27.4337 6.73689 27.2087 7.61689 26.6112 8.47189C26.0012 9.34439 25.4012 9.82439 24.9462 11.3269C24.3437 13.3094 25.5012 15.1119 24.2662 18.2969C23.8662 19.3269 22.9287 20.2694 22.0562 20.8819C21.1837 21.4944 19.9262 21.6319 19.9262 21.6319C19.9262 21.6319 20.3737 21.3194 20.6187 20.1694C20.7387 19.6044 20.9188 18.6019 20.7812 17.5344C20.3887 14.4819 17.9062 12.0944 17.9062 12.0944Z" fill="#CD0E1F"/>
<path d="M8.43419 11.67C8.46419 12.34 8.14919 14.7775 8.55669 16.735C8.87669 18.275 10.4617 20.9975 13.4292 21.7975C16.1592 22.535 19.0817 21.775 19.0817 21.775C19.0817 21.775 20.1842 19.9125 19.6267 17.1975C19.0192 14.2375 16.0617 12.0375 12.6517 10.3525C8.55419 8.32749 7.81169 5.88749 7.81169 5.88749C7.81169 5.88749 6.46419 5.53499 6.12669 6.74749C5.60919 8.60749 8.38919 10.6575 8.43419 11.67Z" fill="#E2122D"/>
</svg>
