<svg width="16" height="16" viewBox="0 0 16 16" fill="none" xmlns="http://www.w3.org/2000/svg">
<g clip-path="url(#clip0_0_8406)">
<g clip-path="url(#clip1_0_8406)">
<path d="M7.00052 14.8005C10.6517 14.8005 13.6116 11.8406 13.6116 8.18943C13.6116 4.53821 10.6517 1.57832 7.00052 1.57832C3.3493 1.57832 0.389404 4.53821 0.389404 8.18943C0.389404 11.8406 3.3493 14.8005 7.00052 14.8005Z" fill="#03B5B0"/>
<path d="M7.00052 14.0228C10.6517 14.0228 13.6116 11.0629 13.6116 7.41169C13.6116 3.76048 10.6517 0.800583 7.00052 0.800583C3.3493 0.800583 0.389404 3.76048 0.389404 7.41169C0.389404 11.0629 3.3493 14.0228 7.00052 14.0228Z" fill="#B1EEEC"/>
<path d="M7.00109 13.2445C10.008 13.2445 12.4455 10.807 12.4455 7.8001C12.4455 4.79322 10.008 2.35566 7.00109 2.35566C3.9942 2.35566 1.55664 4.79322 1.55664 7.8001C1.55664 10.807 3.9942 13.2445 7.00109 13.2445Z" fill="#D9F7F6"/>
<path d="M7.00109 12.8563C10.008 12.8563 12.4455 10.4187 12.4455 7.41182C12.4455 4.40494 10.008 1.96738 7.00109 1.96738C3.9942 1.96738 1.55664 4.40494 1.55664 7.41182C1.55664 10.4187 3.9942 12.8563 7.00109 12.8563Z" fill="#03C9C3"/>
<path fill-rule="evenodd" clip-rule="evenodd" d="M5.75437 4.85339C6.12358 4.48418 6.62434 4.27676 7.14648 4.27676C7.66863 4.27676 8.16939 4.48418 8.5386 4.85339C8.90781 5.2226 9.11523 5.72336 9.11523 6.24551C9.11523 6.60794 8.82142 6.90176 8.45898 6.90176C8.09655 6.90176 7.80273 6.60794 7.80273 6.24551C7.80273 6.07146 7.73359 5.90454 7.61052 5.78147C7.48745 5.6584 7.32053 5.58926 7.14648 5.58926C6.97244 5.58926 6.80552 5.6584 6.68245 5.78147C6.55937 5.90454 6.49023 6.07146 6.49023 6.24551V8.87051C6.49023 9.04455 6.55937 9.21147 6.68245 9.33454C6.80552 9.45762 6.97244 9.52676 7.14648 9.52676C7.32053 9.52676 7.48745 9.45762 7.61052 9.33454C7.73359 9.21147 7.80273 9.04455 7.80273 8.87051C7.80273 8.50807 8.09655 8.21426 8.45898 8.21426C8.82142 8.21426 9.11523 8.50807 9.11523 8.87051C9.11523 9.39265 8.90781 9.89341 8.5386 10.2626C8.16939 10.6318 7.66863 10.8393 7.14648 10.8393C6.62434 10.8393 6.12358 10.6318 5.75437 10.2626C5.38516 9.89341 5.17773 9.39265 5.17773 8.87051V6.24551C5.17773 5.72336 5.38516 5.2226 5.75437 4.85339Z" fill="#03B5B0"/>
<path fill-rule="evenodd" clip-rule="evenodd" d="M5.75437 4.56159C6.12358 4.19238 6.62434 3.98495 7.14648 3.98495C7.66863 3.98495 8.16939 4.19238 8.5386 4.56159C8.90781 4.9308 9.11523 5.43156 9.11523 5.9537C9.11523 6.31614 8.82142 6.60995 8.45898 6.60995C8.09655 6.60995 7.80273 6.31614 7.80273 5.9537C7.80273 5.77966 7.73359 5.61274 7.61052 5.48967C7.48745 5.36659 7.32053 5.29745 7.14648 5.29745C6.97244 5.29745 6.80552 5.36659 6.68245 5.48967C6.55937 5.61274 6.49023 5.77966 6.49023 5.9537V8.5787C6.49023 8.75275 6.55937 8.91967 6.68245 9.04274C6.80552 9.16581 6.97244 9.23495 7.14648 9.23495C7.32053 9.23495 7.48745 9.16581 7.61052 9.04274C7.73359 8.91967 7.80273 8.75275 7.80273 8.5787C7.80273 8.21627 8.09655 7.92245 8.45898 7.92245C8.82142 7.92245 9.11523 8.21627 9.11523 8.5787C9.11523 9.10085 8.90781 9.60161 8.5386 9.97082C8.16939 10.34 7.66863 10.5475 7.14648 10.5475C6.62434 10.5475 6.12358 10.34 5.75437 9.97082C5.38516 9.60161 5.17773 9.10085 5.17773 8.5787V5.9537C5.17773 5.43156 5.38516 4.9308 5.75437 4.56159Z" fill="#E6FAF9"/>
<circle cx="12.6002" cy="11.8006" r="3.6" fill="#E6FAF9"/>
<path fill-rule="evenodd" clip-rule="evenodd" d="M12.7806 9.14316C13.0198 9.14316 13.2252 9.30778 13.2701 9.53545L13.2901 9.63669C13.3688 10.0346 13.7933 10.2723 14.1881 10.1393L14.2885 10.1055C14.5144 10.0294 14.7642 10.1196 14.8837 10.3203L15.0643 10.6235C15.1838 10.8243 15.1395 11.0791 14.9586 11.2307L14.8781 11.2981C14.562 11.5631 14.562 12.0383 14.8781 12.3033L14.9586 12.3707C15.1395 12.5223 15.1838 12.7771 15.0643 12.9779L14.8837 13.2811C14.7642 13.4818 14.5144 13.572 14.2885 13.4959L14.1881 13.4621C13.7933 13.3291 13.3688 13.5667 13.2901 13.9647L13.2701 14.0659C13.2252 14.2936 13.0197 14.4582 12.7806 14.4582H12.4195C12.1804 14.4582 11.975 14.2936 11.93 14.066L11.91 13.9647C11.8314 13.5667 11.4068 13.3291 11.0121 13.4621L10.9116 13.4959C10.6858 13.572 10.436 13.4818 10.3165 13.2811L10.1359 12.9779C10.0163 12.7771 10.0607 12.5223 10.2416 12.3707L10.322 12.3033C10.6382 12.0383 10.6382 11.5631 10.322 11.2981L10.2416 11.2307C10.0607 11.0791 10.0163 10.8243 10.1359 10.6235L10.3165 10.3203C10.436 10.1196 10.6858 10.0294 10.9116 10.1055L11.0121 10.1393C11.4068 10.2723 11.8314 10.0346 11.91 9.63672L11.93 9.53544C11.975 9.30777 12.1804 9.14316 12.4195 9.14316H12.7806ZM12.6001 12.56C13.0194 12.56 13.3594 12.22 13.3594 11.8007C13.3594 11.3813 13.0194 11.0414 12.6001 11.0414C12.1807 11.0414 11.8408 11.3813 11.8408 11.8007C11.8408 12.22 12.1807 12.56 12.6001 12.56Z" fill="#03B5B0"/>
</g>
</g>
<defs>
<clipPath id="clip0_0_8406">
<rect width="16" height="16" fill="white"/>
</clipPath>
<clipPath id="clip1_0_8406">
<rect width="16" height="14.8" fill="white" transform="translate(0 0.599998)"/>
</clipPath>
</defs>
</svg>
