<svg width="41" height="40" viewBox="0 0 41 40" fill="none" xmlns="http://www.w3.org/2000/svg">
<circle cx="20.9248" cy="21.4009" r="13.4585" fill="#D9F7F6"/>
<path d="M31.5682 26.0015C32.1515 24.5848 32.4682 23.0682 32.4682 21.4015C32.4682 20.2015 32.2849 19.0515 31.9682 17.9848C30.8849 18.2348 29.7515 18.3682 28.5682 18.3682C26.1448 18.3708 23.7563 17.7907 21.6041 16.6769C19.4518 15.563 17.5989 13.9481 16.2015 11.9682C14.7067 15.5851 11.8867 18.4945 8.3182 20.1015C8.25154 20.5182 8.25154 20.9682 8.25154 21.4015C8.25154 22.9927 8.56495 24.5683 9.17386 26.0383C9.78278 27.5084 10.6753 28.8441 11.8004 29.9693C14.0727 32.2416 17.1547 33.5182 20.3682 33.5182C21.7886 33.5182 23.1651 33.2656 24.4441 32.8051C24.9424 32.6257 25.5109 32.8183 25.7514 33.2901C25.9144 33.6097 26.0538 33.8884 26.1711 34.1262C26.4406 34.6725 26.1439 35.3146 25.555 35.4704C24.0332 35.8729 21.3773 36.5348 20.3682 36.5348C16.3349 36.5348 12.4849 34.9515 9.65154 32.1015C7.9282 30.3835 6.64716 28.2732 5.9182 25.9515H4.70154C4.14925 25.9515 3.70154 25.5038 3.70154 24.9515V19.3682C3.70154 18.8159 4.14925 18.3682 4.70154 18.3682H5.5182C6.06861 15.689 7.33403 13.2089 9.18019 11.1908C11.0263 9.17279 13.3844 7.69218 16.0041 6.9061C18.6238 6.12002 21.4074 6.05779 24.0596 6.72601C26.7119 7.39424 29.1337 8.76799 31.0682 10.7015C33.1686 12.7936 34.6012 15.4617 35.1849 18.3682H36.0216C36.579 18.3682 37.0289 18.824 37.0215 19.3814L36.9576 24.2258C36.9431 25.3272 36.4751 26.3739 35.6639 27.119L31.3374 31.093C31.1241 31.289 30.8362 31.3828 30.5484 31.3502L23.9432 30.6024C22.9322 30.488 22.1682 29.6327 22.1682 28.6151V27.6182H29.7504C30.0469 27.6182 30.328 27.4867 30.518 27.2591L31.5682 26.0015Z" fill="#03B5B0"/>
<path d="M31.5678 24.5998C32.1512 23.1832 32.4678 21.6665 32.4678 19.9998C32.4678 18.7998 32.2845 17.6498 31.9678 16.5832C30.8845 16.8332 29.7512 16.9665 28.5678 16.9665C26.1445 16.9691 23.756 16.389 21.6037 15.2752C19.4515 14.1614 17.5986 12.5464 16.2012 10.5665C14.7063 14.1835 11.8864 17.0928 8.31784 18.6998C8.25117 19.1165 8.25117 19.5665 8.25117 19.9998C8.25117 21.591 8.56458 23.1666 9.1735 24.6367C9.78242 26.1067 10.6749 27.4425 11.8001 28.5676C14.0724 30.8399 17.1543 32.1165 20.3678 32.1165C21.7882 32.1165 23.1647 31.864 24.4438 31.4035C24.942 31.2241 25.5105 31.4166 25.751 31.8884C25.914 32.2081 26.0534 32.4867 26.1707 32.7245C26.4403 33.2709 26.1436 33.9129 25.5546 34.0687C24.0328 34.4712 21.377 35.1332 20.3678 35.1332C16.3345 35.1332 12.4845 33.5498 9.65117 30.6998C7.92783 28.9818 6.64679 26.8715 5.91784 24.5498H4.70117C4.14889 24.5498 3.70117 24.1021 3.70117 23.5498V17.9665C3.70117 17.4142 4.14889 16.9665 4.70117 16.9665H5.51784C6.06824 14.2874 7.33366 11.8072 9.17982 9.78915C11.026 7.77112 13.384 6.29051 16.0037 5.50443C18.6234 4.71835 21.4071 4.65612 24.0593 5.32434C26.7115 5.99257 29.1333 7.36632 31.0678 9.29983C33.1682 11.3919 34.6009 14.06 35.1845 16.9665H36.0212C36.5787 16.9665 37.0285 17.4223 37.0211 17.9797L36.9573 22.8242C36.9427 23.9255 36.4747 24.9722 35.6635 25.7173L31.337 29.6913C31.1237 29.8873 30.8359 29.9811 30.548 29.9485L23.4726 29.1475C22.7294 29.0634 22.1678 28.4347 22.1678 27.6867C22.1678 26.8747 22.8261 26.2165 23.638 26.2165H29.7501C30.0465 26.2165 30.3277 26.085 30.5177 25.8575L31.5678 24.5998ZM15.8178 19.6165C16.3178 19.6165 16.8012 19.8165 17.1512 20.1832C17.5029 20.5378 17.7003 21.017 17.7003 21.5165C17.7003 22.016 17.5029 22.4952 17.1512 22.8498C16.8012 23.1998 16.3178 23.3998 15.8178 23.3998C14.7678 23.3998 13.9178 22.5665 13.9178 21.5165C13.9178 20.4665 14.7678 19.6165 15.8178 19.6165ZM24.9012 19.6165C25.9512 19.6165 26.7845 20.4665 26.7845 21.5165C26.7845 22.5665 25.9512 23.3998 24.9012 23.3998C23.8512 23.3998 23.0012 22.5665 23.0012 21.5165C23.0012 21.0126 23.2014 20.5293 23.5577 20.173C23.914 19.8167 24.3973 19.6165 24.9012 19.6165Z" fill="#03C9C3"/>
</svg>
