<svg width="14" height="14" viewBox="0 0 14 14" fill="none" xmlns="http://www.w3.org/2000/svg">
<g clip-path="url(#clip0_0_5618)">
<g clip-path="url(#clip1_0_5618)">
<path d="M6.99957 13.1491C10.1944 13.1491 12.7843 10.5592 12.7843 7.3644C12.7843 4.16959 10.1944 1.57968 6.99957 1.57968C3.80475 1.57968 1.21484 4.16959 1.21484 7.3644C1.21484 10.5592 3.80475 13.1491 6.99957 13.1491Z" fill="#03B5B0"/>
<path d="M6.99957 12.4694C10.1944 12.4694 12.7843 9.87953 12.7843 6.68472C12.7843 3.4899 10.1944 0.899994 6.99957 0.899994C3.80475 0.899994 1.21484 3.4899 1.21484 6.68472C1.21484 9.87953 3.80475 12.4694 6.99957 12.4694Z" fill="#B1EEEC"/>
<path d="M6.99436 11.7881C9.62538 11.7881 11.7582 9.65526 11.7582 7.02423C11.7582 4.39321 9.62538 2.26035 6.99436 2.26035C4.36333 2.26035 2.23047 4.39321 2.23047 7.02423C2.23047 9.65526 4.36333 11.7881 6.99436 11.7881Z" fill="#D9F7F6"/>
<path d="M6.99436 11.4483C9.62538 11.4483 11.7582 9.31541 11.7582 6.68439C11.7582 4.05337 9.62538 1.9205 6.99436 1.9205C4.36333 1.9205 2.23047 4.05337 2.23047 6.68439C2.23047 9.31541 4.36333 11.4483 6.99436 11.4483Z" fill="#03C9C3"/>
<path fill-rule="evenodd" clip-rule="evenodd" d="M5.9069 4.44654C6.22996 4.12348 6.66812 3.94199 7.125 3.94199C7.58188 3.94199 8.02004 4.12348 8.3431 4.44654C8.66616 4.7696 8.84766 5.20777 8.84766 5.66464C8.84766 5.98177 8.59057 6.23886 8.27344 6.23886C7.95631 6.23886 7.69922 5.98177 7.69922 5.66464C7.69922 5.51235 7.63872 5.3663 7.53103 5.25861C7.42335 5.15092 7.27729 5.09042 7.125 5.09042C6.97271 5.09042 6.82665 5.15092 6.71897 5.25861C6.61128 5.3663 6.55078 5.51235 6.55078 5.66464V7.96152C6.55078 8.11381 6.61128 8.25986 6.71897 8.36755C6.82665 8.47524 6.97271 8.53574 7.125 8.53574C7.27729 8.53574 7.42335 8.47524 7.53103 8.36755C7.63872 8.25986 7.69922 8.11381 7.69922 7.96152C7.69922 7.64439 7.95631 7.3873 8.27344 7.3873C8.59057 7.3873 8.84766 7.64439 8.84766 7.96152C8.84766 8.41839 8.66616 8.85656 8.3431 9.17962C8.02004 9.50268 7.58188 9.68417 7.125 9.68417C6.66812 9.68417 6.22996 9.50268 5.9069 9.17962C5.58384 8.85656 5.40234 8.41839 5.40234 7.96152V5.66464C5.40234 5.20777 5.58384 4.7696 5.9069 4.44654Z" fill="#03B5B0"/>
<path fill-rule="evenodd" clip-rule="evenodd" d="M5.9069 4.19068C6.22996 3.86762 6.66812 3.68613 7.125 3.68613C7.58188 3.68613 8.02004 3.86762 8.3431 4.19068C8.66616 4.51374 8.84766 4.95191 8.84766 5.40878C8.84766 5.72592 8.59057 5.983 8.27344 5.983C7.95631 5.983 7.69922 5.72592 7.69922 5.40878C7.69922 5.25649 7.63872 5.11044 7.53103 5.00275C7.42335 4.89506 7.27729 4.83456 7.125 4.83456C6.97271 4.83456 6.82665 4.89506 6.71897 5.00275C6.61128 5.11044 6.55078 5.25649 6.55078 5.40878V7.70566C6.55078 7.85795 6.61128 8.004 6.71897 8.11169C6.82665 8.21938 6.97271 8.27988 7.125 8.27988C7.27729 8.27988 7.42335 8.21938 7.53103 8.11169C7.63872 8.004 7.69922 7.85795 7.69922 7.70566C7.69922 7.38853 7.95631 7.13144 8.27344 7.13144C8.59057 7.13144 8.84766 7.38853 8.84766 7.70566C8.84766 8.16254 8.66616 8.6007 8.3431 8.92376C8.02004 9.24682 7.58188 9.42831 7.125 9.42831C6.66812 9.42831 6.22996 9.24682 5.9069 8.92376C5.58384 8.6007 5.40234 8.16254 5.40234 7.70566V5.40878C5.40234 4.95191 5.58384 4.51374 5.9069 4.19068Z" fill="#E6FAF9"/>
</g>
</g>
<defs>
<clipPath id="clip0_0_5618">
<rect width="14" height="14" fill="white"/>
</clipPath>
<clipPath id="clip1_0_5618">
<rect width="12.25" height="12.25" fill="white" transform="translate(0.875 0.899994)"/>
</clipPath>
</defs>
</svg>
