<svg width="17" height="16" viewBox="0 0 17 16" fill="none" xmlns="http://www.w3.org/2000/svg">
<g clip-path="url(#clip0_0_5101)">
<path d="M8.49929 14.9997C12.1505 14.9997 15.1104 12.0398 15.1104 8.38859C15.1104 4.73738 12.1505 1.77748 8.49929 1.77748C4.84808 1.77748 1.88818 4.73738 1.88818 8.38859C1.88818 12.0398 4.84808 14.9997 8.49929 14.9997Z" fill="#03B5B0"/>
<path d="M8.50052 14.2225C12.1517 14.2225 15.1116 11.2626 15.1116 7.61139C15.1116 3.96017 12.1517 1.00027 8.50052 1.00027C4.8493 1.00027 1.8894 3.96017 1.8894 7.61139C1.8894 11.2626 4.8493 14.2225 8.50052 14.2225Z" fill="#B1EEEC"/>
<path d="M8.49962 13.4439C11.5065 13.4439 13.9441 11.0063 13.9441 7.99941C13.9441 4.99252 11.5065 2.55496 8.49962 2.55496C5.49274 2.55496 3.05518 4.99252 3.05518 7.99941C3.05518 11.0063 5.49274 13.4439 8.49962 13.4439Z" fill="#D9F7F6"/>
<path d="M8.49962 13.055C11.5065 13.055 13.9441 10.6175 13.9441 7.6106C13.9441 4.60371 11.5065 2.16615 8.49962 2.16615C5.49274 2.16615 3.05518 4.60371 3.05518 7.6106C3.05518 10.6175 5.49274 13.055 8.49962 13.055Z" fill="#03C9C3"/>
<path fill-rule="evenodd" clip-rule="evenodd" d="M7.25339 5.05347C7.6226 4.68426 8.12336 4.47684 8.64551 4.47684C9.16765 4.47684 9.66841 4.68426 10.0376 5.05347C10.4068 5.42268 10.6143 5.92344 10.6143 6.44559C10.6143 6.80802 10.3204 7.10184 9.95801 7.10184C9.59557 7.10184 9.30176 6.80802 9.30176 6.44559C9.30176 6.27154 9.23262 6.10462 9.10955 5.98155C8.98648 5.85848 8.81956 5.78934 8.64551 5.78934C8.47146 5.78934 8.30454 5.85848 8.18147 5.98155C8.0584 6.10462 7.98926 6.27154 7.98926 6.44559V9.07059C7.98926 9.24464 8.0584 9.41155 8.18147 9.53463C8.30454 9.6577 8.47146 9.72684 8.64551 9.72684C8.81956 9.72684 8.98648 9.6577 9.10955 9.53463C9.23262 9.41155 9.30176 9.24464 9.30176 9.07059C9.30176 8.70815 9.59557 8.41434 9.95801 8.41434C10.3204 8.41434 10.6143 8.70815 10.6143 9.07059C10.6143 9.59273 10.4068 10.0935 10.0376 10.4627C9.66841 10.8319 9.16765 11.0393 8.64551 11.0393C8.12336 11.0393 7.6226 10.8319 7.25339 10.4627C6.88418 10.0935 6.67676 9.59273 6.67676 9.07059V6.44559C6.67676 5.92344 6.88418 5.42268 7.25339 5.05347Z" fill="#03B5B0"/>
<path fill-rule="evenodd" clip-rule="evenodd" d="M7.25339 4.76218C7.6226 4.39297 8.12336 4.18555 8.64551 4.18555C9.16765 4.18555 9.66841 4.39297 10.0376 4.76218C10.4068 5.13139 10.6143 5.63215 10.6143 6.1543C10.6143 6.51673 10.3204 6.81055 9.95801 6.81055C9.59557 6.81055 9.30176 6.51673 9.30176 6.1543C9.30176 5.98025 9.23262 5.81333 9.10955 5.69026C8.98648 5.56719 8.81956 5.49805 8.64551 5.49805C8.47146 5.49805 8.30454 5.56719 8.18147 5.69026C8.0584 5.81333 7.98926 5.98025 7.98926 6.1543V8.7793C7.98926 8.95334 8.0584 9.12026 8.18147 9.24333C8.30454 9.36641 8.47146 9.43555 8.64551 9.43555C8.81956 9.43555 8.98648 9.36641 9.10955 9.24333C9.23262 9.12026 9.30176 8.95334 9.30176 8.7793C9.30176 8.41686 9.59557 8.12305 9.95801 8.12305C10.3204 8.12305 10.6143 8.41686 10.6143 8.7793C10.6143 9.30144 10.4068 9.8022 10.0376 10.1714C9.66841 10.5406 9.16765 10.748 8.64551 10.748C8.12336 10.748 7.6226 10.5406 7.25339 10.1714C6.88418 9.8022 6.67676 9.30144 6.67676 8.7793V6.1543C6.67676 5.63215 6.88418 5.13139 7.25339 4.76218Z" fill="#E6FAF9"/>
</g>
<defs>
<clipPath id="clip0_0_5101">
<rect width="14" height="14" fill="white" transform="translate(1.5 1.00014)"/>
</clipPath>
</defs>
</svg>
