<svg width="16" height="16" viewBox="0 0 16 16" fill="none" xmlns="http://www.w3.org/2000/svg">
<path fill-rule="evenodd" clip-rule="evenodd" d="M0.666748 8.00002C0.666748 3.94993 3.94999 0.666687 8.00008 0.666687C12.0502 0.666687 15.3334 3.94993 15.3334 8.00002C15.3334 12.0501 12.0502 15.3334 8.00008 15.3334C3.94999 15.3334 0.666748 12.0501 0.666748 8.00002ZM6.00008 7.00002C6.55237 7.00002 7.00008 6.55231 7.00008 6.00002C7.00008 5.44774 6.55237 5.00002 6.00008 5.00002C5.4478 5.00002 5.00008 5.44774 5.00008 6.00002C5.00008 6.55231 5.4478 7.00002 6.00008 7.00002ZM4.93336 9.46673C5.22699 9.24651 5.64315 9.30513 5.8646 9.59728L5.8677 9.60123C5.87166 9.60624 5.87921 9.61563 5.89023 9.62877C5.91234 9.6551 5.94815 9.69617 5.99698 9.74712C6.09518 9.84959 6.24274 9.98861 6.43381 10.1276C6.81852 10.4074 7.35038 10.6667 8.00003 10.6667C8.64967 10.6667 9.18154 10.4074 9.56625 10.1276C9.75732 9.98861 9.90488 9.84959 10.0031 9.74712C10.0519 9.69617 10.0877 9.6551 10.1098 9.62877C10.1209 9.61563 10.1284 9.60624 10.1324 9.60123L10.1355 9.59728C10.3569 9.30513 10.7731 9.24651 11.0667 9.46673C11.3612 9.68764 11.4209 10.1055 11.2 10.4001L11.1994 10.401C11.128 10.4957 11.0477 10.5841 10.9657 10.6697C10.8243 10.8172 10.6177 11.0115 10.3505 11.2059C9.81852 11.5928 9.01705 12.0001 8.00003 12.0001C6.98301 12.0001 6.18154 11.5928 5.64958 11.2059C5.38232 11.0115 5.17571 10.8172 5.03433 10.6697C4.95263 10.5844 4.87284 10.4962 4.80147 10.402C4.58244 10.1109 4.64154 9.68559 4.93336 9.46673ZM11.0001 6.00002C11.0001 6.55231 10.5524 7.00002 10.0001 7.00002C9.4478 7.00002 9.00008 6.55231 9.00008 6.00002C9.00008 5.44774 9.4478 5.00002 10.0001 5.00002C10.5524 5.00002 11.0001 5.44774 11.0001 6.00002Z" fill="#03C9C3"/>
</svg>
