<svg width="13" height="10" viewBox="0 0 13 10" fill="none" xmlns="http://www.w3.org/2000/svg">
<path d="M2.85742 10L1.72266 5.625H0.273438V4.46289H1.42188L0.287109 0.101562H1.75L2.78906 4.46289H4.53906L5.63281 0.101562H7.13672L8.23047 4.46289H9.97363L11.0195 0.101562H12.4824L11.3408 4.46289H12.4961V5.625H11.04L9.89844 10H8.39453L7.25977 5.625H5.50977L4.375 10H2.85742ZM3.06934 5.625L3.5957 7.82617H3.69141L4.24512 5.625H3.06934ZM5.81738 4.46289H6.95215L6.42578 2.42578H6.34375L5.81738 4.46289ZM8.52441 5.625L9.07812 7.83984H9.16016L9.69336 5.625H8.52441Z" fill="#171717"/>
</svg>
